<svg width="107" height="45" viewBox="0 0 107 45" fill="none" xmlns="http://www.w3.org/2000/svg">
<g clip-path="url(#clip0_1_16)">
<path d="M92.285 19.655C90.48 20.068 85.713 20.297 85.713 20.297L85.127 22.162C85.127 22.162 87.487 21.963 89.215 22.132C89.215 22.132 89.771 22.086 89.832 22.742C89.863 23.415 89.786 24.118 89.786 24.118C89.786 24.118 89.74 24.531 89.169 24.638C88.506 24.745 84.032 24.944 84.032 24.944L83.307 27.359C83.307 27.359 83.044 27.909 83.647 27.756C84.201 27.603 88.891 26.716 89.508 26.839C90.156 26.992 90.897 27.879 90.681 28.673C90.434 29.636 85.744 32.601 82.906 32.403C82.906 32.403 81.409 32.494 80.159 30.492C78.956 28.582 80.576 24.99 80.576 24.99C80.576 24.99 79.851 23.308 80.391 22.697C80.391 22.697 80.699 22.437 81.625 22.361L82.782 20.007C82.782 20.007 81.471 20.083 80.699 19.136C79.989 18.219 79.929 17.821 80.484 17.576C81.07 17.271 86.5 16.308 90.234 16.43C90.234 16.43 91.544 16.278 92.702 18.524C92.702 18.524 93.227 19.441 92.301 19.655H92.285V19.655ZM78.215 28.704C77.753 29.819 76.472 30.996 74.93 30.278C73.356 29.544 70.872 24.531 70.872 24.531C70.872 24.531 69.947 22.666 69.762 22.728C69.762 22.728 69.561 22.361 69.452 24.408C69.299 26.442 69.484 30.4 68.635 31.027C67.864 31.638 66.938 31.378 66.414 30.66C65.982 29.942 65.797 28.215 66.044 25.204C66.321 22.193 67.015 18.983 67.894 17.989C68.82 16.981 69.561 17.714 69.839 17.989C69.839 17.989 71.027 19.059 73.032 22.223L73.372 22.803C73.372 22.803 75.192 25.815 75.377 25.8C75.377 25.8 75.531 25.952 75.655 25.83C75.84 25.784 75.778 24.806 75.778 24.806C75.778 24.806 75.438 21.551 73.742 16.048C73.742 16.048 73.495 15.345 73.664 14.673C73.819 14.061 74.482 14.367 74.482 14.367C74.482 14.367 77.043 15.59 78.292 19.717C79.527 23.843 78.694 27.587 78.232 28.704H78.216H78.215ZM65.659 18.112C65.412 18.54 65.304 19.136 64.239 19.304C64.239 19.304 53.903 20.022 53.394 20.741C53.394 20.741 53.054 21.169 53.61 21.276C54.196 21.398 56.541 21.703 57.652 21.765C58.855 21.765 62.897 21.795 64.378 23.599C64.378 23.599 65.227 24.455 65.196 26.396C65.166 28.383 64.81 29.086 64.023 29.804C63.206 30.477 56.202 33.594 51.681 28.826C51.681 28.826 49.614 26.533 52.407 24.791C52.407 24.791 54.412 23.568 59.549 24.99C59.549 24.99 61.092 25.54 61.03 26.105C60.938 26.717 59.75 27.328 58.022 27.297C56.356 27.252 55.122 26.457 55.369 26.594C55.6 26.671 53.564 25.616 52.931 26.334C52.314 27.007 52.468 27.404 53.085 27.817C54.628 28.704 60.691 28.383 62.496 26.38C62.496 26.38 63.221 25.57 62.126 24.913C61.046 24.302 57.899 23.92 56.68 23.873C55.523 23.813 51.188 23.873 50.54 22.758C50.54 22.758 49.923 21.963 50.602 19.793C51.312 17.5 56.356 16.613 58.547 16.43C58.547 16.43 64.563 16.186 65.69 17.409C65.69 17.409 65.844 17.684 65.659 18.096V18.112V18.112ZM48.595 31.547C47.87 32.081 46.327 31.852 45.88 31.241C45.448 30.706 45.294 28.597 45.37 25.28C45.479 21.887 45.525 17.73 46.296 17.057C47.068 16.4 47.531 16.981 47.839 17.424C48.148 17.882 48.549 18.387 48.611 19.441C48.703 20.511 48.965 26.014 48.965 26.014C48.965 26.014 49.305 31.027 48.61 31.547H48.595V31.547ZM50.138 13.664C48.008 14.382 46.558 14.154 45.324 13.618C44.784 14.581 44.461 14.871 44.059 14.933C43.442 14.993 42.902 14.016 42.825 13.71C42.702 13.48 42.409 13.068 42.763 12.136C41.56 11.066 41.468 9.62899 41.683 8.66599C41.961 7.53599 43.998 3.28599 50.169 2.78199C50.169 2.78199 53.192 2.56799 53.717 4.15699H53.81C53.81 4.15699 56.74 4.15699 56.679 6.75599C56.679 9.35399 53.439 12.594 50.138 13.71V13.664V13.664ZM52.884 6.26599C50.94 6.57199 47.947 9.13999 46.512 11.264C48.718 11.662 52.575 11.509 54.303 8.05399C54.303 8.05399 55.121 5.88399 52.883 6.26599H52.884ZM44.352 7.94799C43.735 8.94099 43.705 9.53799 43.998 9.93499C44.723 8.86499 46.003 7.18399 47.932 5.86899C46.451 6.02199 45.201 6.63299 44.352 7.94799ZM96.914 31.439C95.494 34.894 94.291 38.394 93.597 43.636C93.597 43.636 93.443 44.66 92.594 44.324C91.745 44.018 90.357 42.643 90.048 40.702C89.74 38.164 90.882 33.885 93.211 28.964C92.532 27.894 92.054 26.304 92.44 24.073C92.44 24.073 93.057 19.946 97.222 16.216C97.222 16.216 97.716 15.804 97.994 15.941C98.333 16.094 98.194 17.409 97.916 18.081C97.67 18.723 95.818 21.902 95.818 21.902C95.818 21.902 94.661 24.072 94.985 25.769C97.175 22.437 102.159 15.682 105.244 17.821C107.204 19.197 107.204 23.629 105.738 26.197C104.581 28.23 101.31 32.433 96.945 31.455L96.914 31.44V31.439ZM103.362 21.061C102.221 22.284 100.184 24.608 98.58 27.756C100.277 27.573 101.928 26.64 102.437 26.166C103.254 25.448 105.136 23.507 104.843 20.939C104.843 20.939 104.658 19.594 103.362 21.061V21.061ZM34.248 33.243C28.786 34.893 23.634 34.129 20.826 33.396C20.749 34.526 20.626 35.001 20.44 35.184C20.224 35.429 18.434 36.437 17.447 35.001C17.015 34.313 16.799 33.075 16.676 31.944C10.351 29.101 7.419 24.914 7.326 24.76C7.173 24.608 5.738 23.125 7.173 21.29C8.515 19.64 12.958 17.974 16.938 17.317C17.092 13.954 17.463 11.357 17.941 10.21C18.511 8.83399 19.237 10.057 19.885 10.974C20.409 11.662 20.733 14.612 20.764 16.965C23.356 16.843 24.929 17.026 27.814 17.577C31.61 18.219 34.14 20.144 33.939 22.315C33.754 24.455 31.779 25.341 31.008 25.402C30.237 25.463 29.002 24.898 29.002 24.898C28.138 24.5 28.925 24.134 29.928 23.706C31.038 23.171 30.792 22.636 30.792 22.636C30.391 21.413 25.469 20.603 20.579 20.603C20.579 23.278 20.687 27.71 20.764 30.293C24.189 30.935 26.75 30.798 26.75 30.798C26.75 30.798 39.246 30.446 39.6 22.544C39.987 14.627 27.105 7.04599 17.617 4.66199C8.144 2.19999 2.776 3.94299 2.313 4.17199C1.803 4.41699 2.267 4.50899 2.267 4.50899C2.267 4.50899 2.776 4.58499 3.701 4.89099C4.627 5.19699 3.886 5.65499 3.886 5.65499C2.266 6.20499 0.461998 5.88499 0.105998 5.15099C-0.248002 4.43199 0.337998 3.77499 1.032 2.81199C1.68 1.81899 2.421 1.84899 2.421 1.84899C14.146 -2.20001 28.462 5.05999 28.462 5.05999C41.853 11.755 44.136 19.626 43.89 22.683C43.674 25.693 42.501 30.783 34.248 33.259V33.244V33.243ZM8.484 22.315C7.157 22.926 8.083 23.905 8.083 23.905C10.582 26.549 13.637 28.215 16.568 29.254C16.908 24.669 16.876 23.034 16.876 20.725C12.341 21.031 9.718 21.765 8.484 22.315V22.315Z" fill="black"/>
</g>
<defs>
<clipPath id="clip0_1_16">
<rect width="107" height="45" fill="white"/>
</clipPath>
</defs>
</svg>
