<svg width="165" height="45" viewBox="0 0 165 45" fill="none" xmlns="http://www.w3.org/2000/svg">
<path d="M143.002 21.4C143.002 15.243 147.649 10.945 153.806 10.945C159.963 10.945 164.61 15.3 164.61 21.4C164.61 27.44 159.963 31.855 153.806 31.855C147.649 31.855 143.002 27.441 143.002 21.4ZM158.453 21.4C158.453 18.496 156.652 16.405 153.806 16.405C150.96 16.405 149.159 18.495 149.159 21.4C149.159 24.304 150.96 26.395 153.806 26.395C156.652 26.395 158.453 24.305 158.453 21.4ZM138.879 16.52C139.285 17.334 139.459 18.205 139.459 19.135C139.459 21.4 138.298 23.375 136.439 25.001C138.995 26.279 140.505 29.183 140.505 32.029C140.505 37.315 136.265 40.8 129.817 40.8C123.37 40.8 119.13 37.315 119.13 32.03C119.13 29.183 120.64 26.279 123.196 25.001C121.279 23.375 120.176 21.4 120.176 19.135C120.176 14.546 123.777 11.119 129.469 11.119C132.838 11.119 133.825 11.7 135.742 11.7C137.02 11.7 137.891 11.526 139.459 10.713C139.982 10.423 140.389 10.306 140.737 10.306C141.492 10.306 141.899 11.061 141.899 12.049C141.957 14.023 141.028 15.766 138.879 16.521V16.52ZM134.522 31.855C134.522 29.474 132.722 27.847 129.876 27.847C127.029 27.847 125.229 29.474 125.229 31.855C125.229 34.12 127.204 35.863 129.876 35.863C132.489 35.863 134.522 34.063 134.522 31.855ZM126.158 19.483C126.158 21.458 127.843 23.084 129.876 23.084C131.967 23.084 133.593 21.458 133.593 19.484C133.593 17.334 132.083 15.882 129.876 15.882C127.668 15.94 126.158 17.334 126.158 19.483V19.483ZM116.342 21.748V29.068C116.342 30.461 115.819 31.1 114.309 31.1H112.276C110.766 31.1 110.243 30.52 110.243 29.067V21.923C110.243 20.123 109.953 18.844 109.314 17.973C108.617 17.102 107.571 16.637 106.235 16.637C104.958 16.637 103.796 17.102 103.041 17.973C102.344 18.786 101.879 20.123 101.879 21.865V29.009C101.879 30.519 101.298 31.042 99.846 31.042H97.813C96.419 31.042 95.78 30.519 95.78 29.009V12.571C95.78 11.641 96.245 11.177 96.942 11.177C97.988 11.177 99.44 12.049 100.543 13.733C102.17 11.816 104.667 10.829 107.107 10.829C110.069 10.829 112.45 11.874 114.019 13.675C115.587 15.592 116.342 17.915 116.342 21.748V21.748ZM84.628 5.311C84.628 3.452 86.138 2 88.113 2C89.972 2 91.598 3.452 91.598 5.31C91.598 7.111 89.972 8.622 88.113 8.622C86.138 8.622 84.628 7.112 84.628 5.311ZM85.035 29.067V13.733C85.035 12.339 85.558 11.7 87.068 11.7H89.1C90.61 11.7 91.133 12.28 91.133 13.733V29.125C91.133 30.519 90.61 31.158 89.1 31.158H87.067C85.615 31.1 85.034 30.519 85.034 29.068L85.035 29.067ZM74.347 29.067V9.783C74.347 4.963 77.077 2.174 79.285 2.174C79.982 2.174 80.446 2.639 80.446 3.568V29.125C80.446 30.635 79.866 31.158 78.413 31.158H76.38C74.928 31.1 74.347 30.578 74.347 29.068V29.067ZM49.197 21.4C49.197 15.243 53.844 10.945 60.001 10.945C66.158 10.945 70.804 15.3 70.804 21.4C70.804 27.44 66.157 31.855 60.001 31.855C53.844 31.855 49.197 27.441 49.197 21.4ZM64.647 21.4C64.647 18.496 62.847 16.405 60.001 16.405C57.155 16.405 55.354 18.495 55.354 21.4C55.354 24.304 57.154 26.395 60.001 26.395C62.847 26.395 64.647 24.305 64.647 21.4ZM46.06 13.733V30.17C46.06 31.099 45.596 31.564 44.899 31.564C43.853 31.564 42.401 30.692 41.356 29.066C39.846 30.866 37.522 31.97 34.908 31.97C32.295 31.97 30.204 31.04 28.635 29.589C26.835 27.846 25.847 25.116 25.847 21.225V13.732C25.847 12.338 26.37 11.699 27.88 11.699H29.913C31.423 11.699 31.946 12.279 31.946 13.732V20.644C31.946 22.967 32.353 24.245 33.108 25.058C33.747 25.755 34.676 26.104 35.838 26.104C36.999 26.104 38.103 25.639 38.742 24.884C39.497 24.071 39.904 22.734 39.904 20.818V13.732C39.904 12.222 40.484 11.699 41.936 11.699H43.969C45.479 11.699 46.06 12.222 46.06 13.732V13.733ZM21.723 3.51V30.113C21.723 31.042 21.259 31.507 20.562 31.507C19.516 31.507 18.064 30.635 17.019 29.009C15.741 30.519 13.127 31.855 10.107 31.855C4.066 31.855 0 27.383 0 21.4C0 15.475 4.124 10.945 10.107 10.945C12.314 10.945 14.23 11.642 15.683 12.629V9.783C15.683 4.963 18.413 2.174 20.62 2.174C21.317 2.174 21.723 2.639 21.723 3.51V3.51ZM15.625 21.4C15.625 18.38 13.534 16.405 10.92 16.405C8.248 16.405 6.157 18.38 6.157 21.4C6.157 24.42 8.247 26.395 10.92 26.395C13.534 26.395 15.625 24.42 15.625 21.4Z" fill="black"/>
</svg>
