<svg width="211" height="45" viewBox="0 0 211 45" fill="none" xmlns="http://www.w3.org/2000/svg">
<g clip-path="url(#clip0_1_20)">
<path fill-rule="evenodd" clip-rule="evenodd" d="M0 0H21.384V21.384H0V0ZM74.372 25.919L73.117 29.477H73.012C72.6908 28.2857 72.2827 27.1196 71.791 25.988L65.058 9.07H58.465V36.035H62.825V19.395C62.825 18.349 62.825 17.163 62.791 15.698C62.7685 15.2605 62.7345 14.8237 62.689 14.388C62.6754 14.2548 62.6627 14.1214 62.651 13.988H62.756C62.9089 14.77 63.1188 15.5397 63.384 16.291L71.477 35.965H74.547L82.57 16.116C82.703 15.77 82.837 15.158 82.97 14.546C83.011 14.357 83.052 14.169 83.093 13.989H83.198C83.1124 15.6043 83.0424 17.2204 82.988 18.837V35.93H87.628V9H81.28L74.372 25.92V25.919ZM92.023 16.605H96.558V35.93H92.023V16.605ZM94.326 8.442C93.558 8.442 92.93 8.721 92.407 9.209C91.884 9.698 91.605 10.326 91.605 11.093C91.605 11.826 91.884 12.453 92.407 12.942C92.93 13.43 93.558 13.674 94.326 13.674C95.093 13.674 95.756 13.395 96.244 12.942C96.5011 12.7082 96.7057 12.4225 96.8441 12.1038C96.9826 11.785 97.0517 11.4405 97.047 11.093C97.047 10.361 96.767 9.733 96.244 9.209C95.791 8.721 95.128 8.442 94.326 8.442ZM112.64 16.43C111.803 16.2513 110.949 16.1578 110.093 16.151C108.035 16.151 106.151 16.605 104.582 17.511C103.012 18.419 101.756 19.674 100.954 21.244C100.116 22.849 99.698 24.698 99.698 26.826C99.698 28.674 100.116 30.314 100.919 31.814C101.721 33.279 102.837 34.465 104.337 35.267C105.768 36.07 107.442 36.488 109.326 36.488C111.489 36.488 113.337 36.035 114.803 35.198L114.837 35.163V30.977L114.663 31.117C114 31.605 113.233 32.023 112.465 32.267C111.663 32.547 110.93 32.687 110.303 32.687C108.489 32.687 107.058 32.163 106.047 31.012C105 29.895 104.477 28.36 104.477 26.442C104.477 24.454 105 22.884 106.082 21.732C107.163 20.582 108.593 19.988 110.337 19.988C111.802 19.988 113.303 20.477 114.663 21.454L114.837 21.594V17.163L114.803 17.128L114.751 17.107C114.171 16.867 113.52 16.6 112.64 16.43V16.43ZM127.605 16.29C126.487 16.2809 125.4 16.6637 124.535 17.372C123.768 18 123.244 18.907 122.791 19.988H122.756V16.605H118.221V35.93H122.756V26.058C122.756 24.384 123.105 22.988 123.872 21.977C124.64 20.93 125.616 20.407 126.802 20.407C127.082 20.407 127.361 20.454 127.671 20.505C127.826 20.531 127.989 20.558 128.163 20.581C128.651 20.721 129 20.861 129.244 21.035L129.419 21.175V16.64L129.314 16.605C129 16.395 128.372 16.291 127.605 16.291V16.29ZM139.954 16.186C136.779 16.186 134.233 17.128 132.454 18.976C130.64 20.826 129.768 23.372 129.768 26.581C129.768 29.581 130.675 32.023 132.419 33.802C134.163 35.547 136.535 36.454 139.5 36.454C142.605 36.454 145.082 35.512 146.861 33.628C148.675 31.744 149.547 29.233 149.547 26.128C149.547 23.058 148.709 20.616 147 18.838C145.361 17.058 142.954 16.186 139.954 16.186ZM143.582 31.046C142.744 32.128 141.419 32.651 139.779 32.651C138.14 32.651 136.814 32.128 135.872 30.977C134.93 29.895 134.477 28.326 134.477 26.337C134.477 24.279 134.965 22.709 135.872 21.593C136.814 20.477 138.105 19.919 139.744 19.919C141.349 19.919 142.605 20.442 143.512 21.523C144.419 22.605 144.907 24.174 144.907 26.233C144.837 28.326 144.454 29.965 143.582 31.047V31.046ZM159.663 24.628C158.233 24.035 157.326 23.581 156.907 23.198C156.558 22.848 156.384 22.36 156.384 21.733C156.384 21.209 156.593 20.686 157.116 20.337C157.64 19.988 158.233 19.814 159.105 19.814C159.872 19.814 160.675 19.954 161.442 20.163C162.209 20.373 162.907 20.686 163.465 21.105L163.64 21.245V16.988L163.535 16.954C162.867 16.6979 162.179 16.4992 161.477 16.36C160.739 16.2307 159.993 16.1608 159.244 16.151C157.082 16.151 155.302 16.674 153.907 17.826C152.512 18.907 151.849 20.372 151.849 22.081C151.849 22.988 151.989 23.791 152.302 24.454C152.629 25.1529 153.106 25.7717 153.698 26.267C154.326 26.756 155.233 27.314 156.489 27.837C157.535 28.291 158.337 28.64 158.826 28.919C159.314 29.198 159.628 29.512 159.872 29.756C160.047 30.035 160.151 30.384 160.151 30.837C160.151 32.128 159.175 32.756 157.186 32.756C156.419 32.756 155.616 32.616 154.675 32.302C153.767 31.9998 152.909 31.5651 152.128 31.012L151.954 30.872V35.302L152.058 35.337C152.721 35.651 153.523 35.86 154.5 36.105C155.477 36.279 156.349 36.419 157.116 36.419C159.454 36.419 161.372 35.895 162.733 34.744C164.128 33.628 164.861 32.198 164.861 30.349C164.861 29.059 164.512 27.907 163.744 27.035C162.733 26.198 161.477 25.325 159.663 24.628V24.628ZM176.826 16.186C173.651 16.186 171.105 17.128 169.326 18.976C167.547 20.826 166.64 23.372 166.64 26.581C166.64 29.581 167.547 32.023 169.291 33.802C171.035 35.547 173.407 36.454 176.372 36.454C179.477 36.454 181.954 35.512 183.733 33.628C185.547 31.744 186.419 29.233 186.419 26.128C186.419 23.058 185.582 20.616 183.872 18.838C182.233 17.058 179.826 16.186 176.826 16.186ZM180.419 31.046C179.582 32.128 178.256 32.651 176.616 32.651C174.942 32.651 173.651 32.128 172.709 30.977C171.768 29.895 171.314 28.326 171.314 26.337C171.314 24.279 171.802 22.709 172.709 21.593C173.651 20.477 174.942 19.919 176.582 19.919C178.151 19.919 179.442 20.442 180.349 21.523C181.256 22.605 181.744 24.174 181.744 26.233C181.744 28.326 181.291 29.965 180.419 31.047V31.046ZM210.663 20.337V16.605H206.093V10.884L205.954 10.919L201.628 12.209L201.523 12.244V16.604H194.686V14.163C194.686 13.047 194.965 12.174 195.454 11.616C195.942 11.058 196.675 10.779 197.582 10.779C198.209 10.779 198.872 10.919 199.605 11.233L199.779 11.337V7.395L199.675 7.361C199.047 7.151 198.209 7.011 197.128 7.011C195.768 7.011 194.582 7.326 193.5 7.849C192.448 8.41248 191.586 9.27424 191.023 10.326C190.43 11.372 190.116 12.558 190.116 13.919V16.605H186.942V20.302H190.116V35.93H194.686V20.337H201.523V30.279C201.523 34.361 203.442 36.419 207.279 36.419C207.907 36.419 208.57 36.314 209.198 36.209C209.861 36.069 210.349 35.895 210.628 35.756L210.663 35.721V31.988L210.488 32.128C210.201 32.3218 209.883 32.4636 209.547 32.547C209.198 32.651 208.884 32.687 208.64 32.687C207.733 32.687 207.105 32.477 206.651 31.954C206.233 31.465 206.023 30.663 206.023 29.477V20.337H210.663V20.337ZM45 0H23.616V21.384H45V0ZM0 23.616H21.384V45H0V23.616ZM45 23.616H23.616V45H45V23.616Z" fill="black"/>
</g>
<defs>
<clipPath id="clip0_1_20">
<rect width="211" height="45" fill="white"/>
</clipPath>
</defs>
</svg>
