<svg width="118" height="45" viewBox="0 0 118 45" fill="none" xmlns="http://www.w3.org/2000/svg">
<path d="M16.134 35.95C14.369 36.26 12.572 36.354 10.714 36.602L5.04898 19.953V37.317C3.28298 37.503 1.67298 37.752 0.000976562 38V6.19299H4.70798L11.149 24.24V6.19299H16.135V35.95H16.134ZM25.888 17.841C27.808 17.841 30.75 17.748 32.515 17.748V22.718C30.317 22.718 27.746 22.718 25.888 22.811V30.204C28.799 30.017 31.71 29.769 34.652 29.675V34.459L20.933 35.546V6.19299H34.652V11.163H25.888V17.841V17.841ZM53.078 11.163H47.937V34.024C46.264 34.024 44.592 34.024 42.982 34.086V11.163H37.842V6.19299H53.077V11.163H53.078ZM61.128 17.499H67.91V22.469H61.128V33.745H56.266V6.19299H70.11V11.163H61.13V17.499H61.128ZM78.16 29.396C80.978 29.458 83.827 29.676 86.583 29.831V34.739C82.155 34.459 77.727 34.179 73.206 34.086V6.19299H78.16V29.396ZM90.764 35.08C92.343 35.174 94.015 35.267 95.625 35.453V6.19299H90.764V35.08ZM117.333 6.19299L111.047 21.32L117.333 38C115.475 37.752 113.617 37.41 111.759 37.1L108.198 27.905L104.575 36.354C102.779 36.044 101.045 35.95 99.249 35.701L105.628 21.133L99.868 6.19299H105.194L108.446 14.549L111.914 6.19299H117.333V6.19299Z" fill="black"/>
</svg>
