<svg width="84" height="45" viewBox="0 0 84 45" fill="none" xmlns="http://www.w3.org/2000/svg">
<g clip-path="url(#clip0_1_25)">
<path fill-rule="evenodd" clip-rule="evenodd" d="M14.005 26.723C13.341 26.723 12.821 27.188 12.821 27.866C12.821 28.546 13.344 29.007 14.005 29.007C14.667 29.007 15.19 28.542 15.19 27.867C15.19 27.188 14.67 26.723 14.005 26.723ZM14.005 28.68C13.531 28.68 13.18 28.334 13.18 27.866C13.18 27.399 13.529 27.05 14.005 27.05C14.475 27.05 14.83 27.404 14.83 27.866C14.83 28.326 14.473 28.68 14.005 28.68ZM25.532 22.725H19.765L20.421 12.702L16.676 22.725H11.32L19.818 0.0700073H25.516L24.858 10.231L28.674 0.0700073H34.029L25.532 22.725V22.725ZM26.228 22.725L34.724 0.0700073H40.079L31.583 22.726H26.228V22.725Z" fill="black"/>
<path fill-rule="evenodd" clip-rule="evenodd" d="M10.703 14.916C3.21997 23.704 -3.83903 35.396 2.39597 40.78C8.43797 46 15.99 42.91 21.14 40.85C26.29 38.79 83.204 14.074 83.204 14.074C83.754 13.8 83.651 13.457 82.964 13.628C82.687 13.698 21.004 30.414 21.004 30.414C13.176 32.611 4.25097 27.822 10.704 14.916H10.703Z" fill="black"/>
<path fill-rule="evenodd" clip-rule="evenodd" d="M14.207 27.947C14.373 27.939 14.503 27.853 14.503 27.623C14.503 27.326 14.309 27.252 13.985 27.252H13.52V28.482H13.83V27.958H13.883L14.165 28.481H14.522L14.207 27.947ZM14.007 27.747H13.831V27.462H13.98C14.071 27.462 14.176 27.472 14.176 27.592C14.176 27.72 14.116 27.747 14.008 27.747H14.007ZM67.838 0C67.173 0 66.652 0.465 66.652 1.143C66.652 1.821 67.176 2.283 67.837 2.283C68.498 2.283 69.022 1.818 69.022 1.143C69.02 0.465 68.5 0 67.836 0H67.838ZM67.838 1.958C67.363 1.958 67.012 1.611 67.012 1.144C67.012 0.676 67.361 0.327 67.837 0.327C68.307 0.327 68.662 0.681 68.662 1.144C68.6631 1.25213 68.6425 1.35939 68.6012 1.45937C68.56 1.55935 68.4991 1.65001 68.4222 1.72597C68.3452 1.80192 68.2537 1.8616 68.1532 1.90146C68.0526 1.94133 67.9451 1.96055 67.837 1.958H67.838Z" fill="black"/>
<path fill-rule="evenodd" clip-rule="evenodd" d="M68.039 1.22397C68.205 1.21597 68.335 1.12997 68.335 0.89997C68.335 0.60297 68.141 0.52897 67.818 0.52897H67.352V1.75797H67.662V1.23497H67.715L67.997 1.75797H68.354L68.039 1.22397V1.22397ZM67.839 1.02397H67.662V0.73997H67.812C67.902 0.73997 68.008 0.75097 68.008 0.86997C68.008 0.99797 67.947 1.02497 67.839 1.02497V1.02397ZM64.308 3.84597L65.747 0.0689697H49.407L43.797 6.86597L46.387 0.0699697H40.963L32.535 22.726H37.89L41.488 13.252L41.735 22.726L58.166 22.69L59.73 18.332H53.483L55.536 12.84H60.684L62.269 8.61797H57.119L58.885 3.84697H64.308V3.84597ZM47.048 21.215L46.704 9.40597L54.801 0.51597L47.047 21.215H47.048Z" fill="black"/>
</g>
<defs>
<clipPath id="clip0_1_25">
<rect width="84" height="45" fill="white"/>
</clipPath>
</defs>
</svg>
