<svg width="121" height="45" viewBox="0 0 121 45" fill="none" xmlns="http://www.w3.org/2000/svg">
<path d="M18.052 4C8.082 4 0 12.059 0 22C0 31.942 8.082 40 18.052 40C28.022 40 36.104 31.942 36.104 22C36.104 12.06 28.022 4 18.052 4ZM26.33 29.961C26.174 30.2156 25.9233 30.3977 25.633 30.4675C25.3427 30.5373 25.0366 30.4889 24.782 30.333C20.544 27.752 15.209 27.167 8.925 28.599C8.63436 28.6651 8.32935 28.6133 8.07685 28.4549C7.82435 28.2965 7.64496 28.0445 7.578 27.754C7.5449 27.6102 7.54054 27.4612 7.56519 27.3157C7.58983 27.1702 7.64299 27.031 7.72161 26.9061C7.80023 26.7812 7.90275 26.6731 8.02329 26.588C8.14383 26.5028 8.28001 26.4423 8.424 26.41C15.301 24.844 21.199 25.518 25.957 28.418C26.0831 28.4946 26.1927 28.5953 26.2798 28.7144C26.3668 28.8335 26.4294 28.9686 26.4641 29.112C26.4987 29.2554 26.5047 29.4042 26.4817 29.5499C26.4587 29.6956 26.4072 29.8353 26.33 29.961V29.961ZM28.54 25.061C28.3441 25.3785 28.0303 25.6053 27.6674 25.6919C27.3046 25.7785 26.9222 25.7178 26.604 25.523C21.752 22.549 14.355 21.687 8.616 23.425C8.25889 23.5332 7.87343 23.4955 7.5441 23.32C7.21476 23.1446 6.9684 22.8458 6.859 22.489C6.75164 22.1324 6.79024 21.7478 6.96631 21.4197C7.14238 21.0915 7.44152 20.8467 7.798 20.739C14.354 18.756 22.504 19.716 28.076 23.131C28.2336 23.2269 28.3706 23.353 28.4793 23.5021C28.5879 23.6511 28.6661 23.8202 28.7092 23.9996C28.7523 24.1789 28.7595 24.365 28.7305 24.5472C28.7015 24.7293 28.6367 24.9039 28.54 25.061V25.061ZM28.73 19.956C22.911 16.511 13.312 16.194 7.758 17.875C7.33074 18.005 6.86935 17.9599 6.47533 17.7496C6.08132 17.5394 5.78696 17.1813 5.657 16.754C5.52704 16.3267 5.57214 15.8653 5.78237 15.4713C5.9926 15.0773 6.35074 14.783 6.778 14.653C13.154 12.723 23.754 13.095 30.452 17.061C30.6428 17.1732 30.8095 17.322 30.9425 17.4989C31.0756 17.6758 31.1724 17.8772 31.2273 18.0916C31.2822 18.306 31.2942 18.5291 31.2626 18.7482C31.231 18.9672 31.1563 19.1779 31.043 19.368C30.8138 19.7522 30.4416 20.0298 30.008 20.1401C29.5744 20.2503 29.1149 20.1841 28.73 19.956V19.956ZM49.113 20.616C45.996 19.876 45.442 19.356 45.442 18.262C45.442 17.23 46.416 16.535 47.867 16.535C49.272 16.535 50.665 17.063 52.127 18.149C52.1485 18.1651 52.1731 18.1766 52.1992 18.183C52.2254 18.1893 52.2525 18.1904 52.279 18.186C52.3061 18.1822 52.3322 18.1729 52.3556 18.1586C52.379 18.1443 52.3992 18.1254 52.415 18.103L53.937 15.964C53.967 15.9216 53.9797 15.8692 53.9725 15.8178C53.9652 15.7663 53.9386 15.7195 53.898 15.687C52.158 14.296 50.201 13.62 47.912 13.62C44.547 13.62 42.195 15.633 42.195 18.515C42.195 21.605 44.224 22.699 47.729 23.543C50.71 24.228 51.215 24.803 51.215 25.828C51.215 26.965 50.197 27.672 48.559 27.672C46.739 27.672 45.254 27.059 43.594 25.628C43.5528 25.5931 43.4999 25.5752 43.446 25.578C43.419 25.58 43.3927 25.5874 43.3687 25.5998C43.3446 25.6122 43.3233 25.6292 43.306 25.65L41.598 27.674C41.5637 27.7146 41.5465 27.767 41.5503 27.8201C41.554 27.8731 41.5783 27.9226 41.618 27.958C43.549 29.678 45.925 30.585 48.49 30.585C52.115 30.585 54.459 28.609 54.459 25.551C54.465 22.97 52.915 21.541 49.119 20.62L49.113 20.617V20.616ZM62.663 17.552C61.092 17.552 59.803 18.169 58.738 19.434V18.01C58.7381 17.9833 58.733 17.9568 58.7228 17.932C58.7127 17.9073 58.6978 17.8848 58.6789 17.8658C58.66 17.8469 58.6376 17.8318 58.6129 17.8215C58.5882 17.8113 58.5617 17.806 58.535 17.806H55.743C55.7163 17.8061 55.69 17.8115 55.6654 17.8218C55.6408 17.8322 55.6185 17.8472 55.5998 17.8662C55.581 17.8851 55.5661 17.9076 55.5561 17.9322C55.546 17.9569 55.5409 17.9833 55.541 18.01V33.83C55.541 33.942 55.631 34.035 55.743 34.035H58.535C58.5618 34.0349 58.5883 34.0295 58.613 34.0191C58.6377 34.0087 58.6601 33.9936 58.679 33.9745C58.6978 33.9555 58.7127 33.9329 58.7229 33.9081C58.733 33.8833 58.7381 33.8568 58.738 33.83V28.837C59.802 30.026 61.092 30.608 62.663 30.608C65.583 30.608 68.541 28.366 68.541 24.081C68.546 19.794 65.588 17.551 62.665 17.551H62.663V17.552ZM65.295 24.081C65.295 26.262 63.948 27.786 62.016 27.786C60.109 27.786 58.669 26.193 58.669 24.081C58.669 21.968 60.109 20.375 62.016 20.375C63.916 20.375 65.295 21.933 65.295 24.08V24.081ZM76.118 17.551C72.357 17.551 69.41 20.44 69.41 24.127C69.41 27.775 72.337 30.632 76.073 30.632C79.847 30.632 82.803 27.754 82.803 24.081C82.803 20.42 79.867 17.552 76.118 17.552V17.551ZM76.118 27.808C74.118 27.808 72.608 26.204 72.608 24.079C72.608 21.945 74.066 20.397 76.073 20.397C78.086 20.397 79.603 22 79.603 24.127C79.603 26.26 78.138 27.807 76.118 27.807V27.808ZM90.835 17.806H87.763V14.676C87.7633 14.6492 87.7582 14.6226 87.7481 14.5977C87.738 14.5728 87.7231 14.5502 87.7043 14.5312C87.6854 14.5121 87.6629 14.497 87.6382 14.4866C87.6134 14.4763 87.5868 14.471 87.56 14.471H84.77C84.7158 14.471 84.6638 14.4925 84.6254 14.5307C84.587 14.5689 84.5653 14.6208 84.565 14.675V17.806H83.225C83.1982 17.8059 83.1716 17.8111 83.1468 17.8213C83.122 17.8315 83.0994 17.8465 83.0805 17.8655C83.0615 17.8844 83.0465 17.907 83.0363 17.9318C83.0261 17.9566 83.0209 17.9832 83.021 18.01V20.402C83.021 20.514 83.112 20.606 83.224 20.606H84.564V26.796C84.564 29.295 85.813 30.563 88.277 30.563C89.277 30.563 90.107 30.357 90.889 29.914C90.9206 29.8968 90.947 29.8714 90.9653 29.8404C90.9836 29.8094 90.9932 29.774 90.993 29.738V27.459C90.9928 27.4244 90.9838 27.3905 90.9668 27.3604C90.9498 27.3303 90.9255 27.305 90.896 27.287C90.8666 27.2684 90.8328 27.2579 90.7981 27.2564C90.7633 27.255 90.7288 27.2628 90.698 27.279C90.1914 27.5403 89.629 27.6752 89.059 27.672C88.165 27.672 87.764 27.266 87.764 26.359V20.607H90.836C90.8627 20.6069 90.889 20.6015 90.9136 20.5912C90.9382 20.5808 90.9605 20.5658 90.9792 20.5468C90.998 20.5279 91.0129 20.5054 91.0229 20.4808C91.033 20.4561 91.0381 20.4297 91.038 20.403V18.01C91.0388 17.9833 91.0342 17.9568 91.0245 17.9319C91.0148 17.9071 91.0002 17.8844 90.9815 17.8654C90.9628 17.8463 90.9405 17.8312 90.9158 17.821C90.8911 17.8108 90.8647 17.8057 90.838 17.806H90.836H90.835ZM101.535 17.818V17.434C101.535 16.302 101.97 15.798 102.945 15.798C103.527 15.798 103.995 15.913 104.518 16.088C104.549 16.0982 104.581 16.1009 104.613 16.0959C104.645 16.0909 104.676 16.0783 104.702 16.0593C104.728 16.0402 104.749 16.0152 104.764 15.9863C104.779 15.9574 104.786 15.9254 104.786 15.893V13.548C104.786 13.5041 104.772 13.4613 104.746 13.4261C104.72 13.3909 104.683 13.3652 104.641 13.353C103.89 13.1242 103.107 13.0122 102.322 13.021C99.746 13.021 98.382 14.468 98.382 17.205V17.794H97.04C96.986 17.7943 96.9342 17.8158 96.896 17.854C96.8578 17.8922 96.8363 17.944 96.836 17.998V20.402C96.836 20.514 96.928 20.606 97.04 20.606H98.381V30.15C98.381 30.264 98.474 30.355 98.586 30.355H101.375C101.49 30.355 101.58 30.265 101.58 30.151V20.606H104.186L108.179 30.15C107.726 31.152 107.28 31.352 106.672 31.352C106.18 31.352 105.661 31.206 105.133 30.916C105.083 30.8909 105.025 30.8855 104.971 30.901C104.944 30.9101 104.92 30.9245 104.899 30.9434C104.878 30.9623 104.862 30.9853 104.85 31.011L103.904 33.081C103.883 33.128 103.88 33.1813 103.896 33.2303C103.912 33.2793 103.947 33.3203 103.992 33.345C104.98 33.878 105.87 34.105 106.971 34.105C109.032 34.105 110.173 33.147 111.175 30.572L116.016 18.097C116.029 18.0662 116.034 18.0325 116.03 17.9993C116.026 17.966 116.014 17.9343 115.995 17.907C115.977 17.8799 115.952 17.8576 115.923 17.8423C115.894 17.827 115.862 17.819 115.829 17.819H112.923C112.88 17.8189 112.839 17.832 112.804 17.8565C112.769 17.8811 112.743 17.9159 112.729 17.956L109.752 26.432L106.493 17.95C106.478 17.9115 106.452 17.8784 106.418 17.855C106.384 17.8317 106.344 17.8191 106.303 17.819H101.535V17.818ZM95.331 17.806H92.54C92.4858 17.806 92.4338 17.8275 92.3954 17.8657C92.357 17.9039 92.3353 17.9558 92.335 18.01V30.15C92.335 30.264 92.428 30.355 92.54 30.355H95.331C95.443 30.355 95.536 30.265 95.536 30.151V18.01C95.536 17.9831 95.5307 17.9565 95.5204 17.9317C95.5101 17.9069 95.4949 17.8844 95.4759 17.8654C95.4568 17.8464 95.4342 17.8314 95.4094 17.8212C95.3845 17.811 95.3579 17.8059 95.331 17.806ZM93.951 12.278C93.6885 12.2775 93.4285 12.3287 93.1859 12.4287C92.9432 12.5286 92.7226 12.6755 92.5367 12.8607C92.3508 13.046 92.2032 13.2661 92.1023 13.5084C92.0015 13.7507 91.9494 14.0105 91.949 14.273C91.9501 14.8033 92.1617 15.3114 92.5373 15.6857C92.9129 16.06 93.4217 16.2698 93.952 16.269C95.057 16.269 95.952 15.376 95.952 14.273C95.9512 13.7433 95.7401 13.2355 95.365 12.8614C94.99 12.4873 94.4817 12.2775 93.952 12.278H93.951ZM118.4 21.71C118.142 21.7112 117.887 21.6614 117.648 21.5634C117.41 21.4654 117.193 21.3212 117.011 21.1391C116.828 20.957 116.684 20.7406 116.585 20.5024C116.487 20.2641 116.436 20.0088 116.437 19.751C116.437 18.677 117.308 17.782 118.411 17.782C119.515 17.782 120.375 18.667 120.375 19.74C120.375 20.814 119.504 21.71 118.4 21.71V21.71ZM118.411 17.977C118.178 17.9751 117.947 18.0198 117.731 18.1084C117.515 18.1969 117.319 18.3276 117.155 18.4928C116.99 18.658 116.86 18.8544 116.773 19.0704C116.685 19.2865 116.641 19.5178 116.644 19.751C116.641 19.9828 116.684 20.2128 116.771 20.4277C116.858 20.6425 116.987 20.8378 117.151 21.002C117.315 21.1662 117.509 21.2961 117.724 21.384C117.938 21.472 118.168 21.5162 118.4 21.514C118.633 21.516 118.865 21.4715 119.08 21.3829C119.296 21.2944 119.492 21.1637 119.657 20.9985C119.821 20.8333 119.951 20.6369 120.039 20.4208C120.127 20.2047 120.171 19.9732 120.168 19.74C120.171 19.5081 120.128 19.278 120.041 19.0631C119.954 18.8482 119.824 18.6529 119.661 18.4886C119.497 18.3244 119.302 18.1945 119.087 18.1067C118.873 18.0188 118.643 17.9747 118.411 17.977V17.977ZM118.847 19.941L119.403 20.717H118.933L118.433 20.005H118.004V20.717H117.612V18.66H118.53C119.011 18.66 119.325 18.904 119.325 19.316C119.327 19.653 119.131 19.859 118.849 19.94H118.847V19.941ZM118.515 19.014H118.004V19.664H118.515C118.769 19.664 118.922 19.54 118.922 19.339C118.922 19.127 118.769 19.014 118.515 19.014Z" fill="black"/>
</svg>
