<svg width="143" height="45" viewBox="0 0 143 45" fill="none" xmlns="http://www.w3.org/2000/svg">
<g clip-path="url(#clip0_1_9)">
<path d="M28.18 15.518C30.9494 17.4985 34.2703 18.5607 37.675 18.555V11.745C37.005 11.745 36.336 11.675 35.681 11.537V16.897C32.2766 16.9022 28.9563 15.8401 26.187 13.86V27.756C26.187 34.707 20.548 40.342 13.594 40.342C10.999 40.342 8.587 39.558 6.584 38.213C7.75565 39.4136 9.15595 40.3672 10.7022 41.0176C12.2485 41.6681 13.9095 42.0021 15.587 42C22.542 42 28.181 36.365 28.181 29.413V15.518H28.18ZM30.64 8.648C29.2331 7.11575 28.3688 5.1636 28.18 3.092V2.216H26.29C26.5232 3.53332 27.031 4.78681 27.7805 5.89497C28.5299 7.00313 29.5042 7.94113 30.64 8.648ZM10.982 32.879C10.241 31.9046 9.82978 30.7194 9.80802 29.4954C9.78626 28.2714 10.1551 27.0724 10.861 26.0722C11.5669 25.0721 12.5731 24.3229 13.7336 23.9334C14.8942 23.5438 16.1486 23.5343 17.315 23.906V16.945C16.6547 16.8544 15.9883 16.816 15.322 16.83V22.248C14.7567 22.0687 14.1671 21.9776 13.574 21.978C12.2785 21.9783 11.021 22.4154 10.0046 23.2187C8.9882 24.022 8.27232 25.1444 7.97264 26.4048C7.67296 27.6651 7.80698 28.9897 8.35304 30.1645C8.8991 31.3393 9.82531 32.2956 10.982 32.879V32.879Z" fill="#3C3C3C"/>
<path d="M26.186 13.86C28.9554 15.8397 32.2757 16.9015 35.68 16.896V11.536C33.7404 11.1211 31.9786 10.1116 30.64 8.648C29.5042 7.94113 28.5299 7.00313 27.7805 5.89497C27.031 4.78681 26.5232 3.53332 26.29 2.216H21.327V29.413C21.323 30.6172 20.9417 31.7898 20.2367 32.7661C19.5318 33.7423 18.5385 34.4731 17.3967 34.8556C16.2549 35.2381 15.0219 35.2531 13.8711 34.8986C12.7203 34.544 11.7096 33.8378 10.981 32.879C9.82312 32.2966 8.89565 31.3405 8.3487 30.1654C7.80175 28.9903 7.66733 27.6651 7.96718 26.4041C8.26703 25.1432 8.98362 24.0203 10.001 23.2172C11.0183 22.4142 12.2769 21.9779 13.573 21.979C14.183 21.979 14.77 22.074 15.321 22.249V16.83C8.489 16.971 2.994 22.55 2.994 29.413C2.98939 32.7036 4.2784 35.8642 6.583 38.213C8.65548 39.6051 11.0964 40.3468 13.593 40.343C20.548 40.343 26.186 34.707 26.186 27.756V13.86Z" fill="black"/>
<path d="M35.68 11.537V10.087C33.8983 10.0897 32.1517 9.59099 30.64 8.648C31.9781 10.1124 33.7401 11.1224 35.68 11.537V11.537ZM26.29 2.217C26.245 1.957 26.21 1.697 26.186 1.434V0.559998H19.333V27.757C19.3296 28.7387 19.0754 29.7032 18.5945 30.559C18.1136 31.4148 17.4219 32.1335 16.5851 32.6468C15.7484 33.1602 14.7943 33.4512 13.8135 33.4921C12.8327 33.5331 11.8577 33.3228 10.981 32.881C11.7096 33.8397 12.7203 34.546 13.8711 34.9006C15.0219 35.2551 16.2549 35.2401 17.3967 34.8576C18.5385 34.475 19.5318 33.7443 20.2367 32.7681C20.9417 31.7918 21.323 30.6192 21.327 29.415V2.216H26.29V2.217ZM15.321 16.83V15.288C14.7484 15.2094 14.171 15.17 13.593 15.17C6.638 15.17 1 20.805 1 27.756C1 32.114 3.216 35.955 6.583 38.214C4.27804 35.8653 2.98866 32.7047 2.993 29.414C2.993 22.551 8.489 16.971 15.321 16.83Z" fill="#C2C2C2"/>
<path d="M115.084 34.644C120.06 34.644 124.094 30.642 124.094 25.707C124.094 20.771 120.06 16.769 115.084 16.769H113.726C118.703 16.769 122.737 20.771 122.737 25.707C122.737 30.642 118.703 34.644 113.726 34.644H115.084Z" fill="#3C3C3C"/>
<path d="M113.602 16.769H112.245C107.269 16.769 103.234 20.771 103.234 25.707C103.234 30.642 107.269 34.644 112.245 34.644H113.602C108.626 34.644 104.591 30.642 104.591 25.707C104.591 20.771 108.626 16.769 113.602 16.769Z" fill="#BEBEBE"/>
<path d="M45.1 12.729V17.259H50.406V34.52H55.715V17.38H60.035L61.515 12.728H45.1V12.729ZM88.547 12.729V17.259H93.854V34.52H99.162V17.38H103.482L104.963 12.728H88.547V12.729ZM62.504 15.299C62.5053 14.9602 62.5733 14.625 62.7042 14.3125C62.8351 13.9999 63.0262 13.7163 63.2667 13.4776C63.5072 13.239 63.7924 13.05 64.1059 12.9216C64.4194 12.7931 64.7552 12.7277 65.094 12.729C65.433 12.7274 65.769 12.7927 66.0829 12.921C66.3967 13.0493 66.6821 13.2382 66.9229 13.4768C67.1637 13.7155 67.3551 13.9993 67.4862 14.3119C67.6173 14.6246 67.6856 14.96 67.687 15.299C67.6858 15.6382 67.6178 15.9738 67.4868 16.2866C67.3558 16.5994 67.1644 16.8834 66.9236 17.1222C66.6827 17.3609 66.3972 17.5499 66.0832 17.6782C65.7693 17.8066 65.4331 17.8717 65.094 17.87C64.7552 17.8713 64.4194 17.8059 64.1059 17.6775C63.7924 17.549 63.5072 17.3601 63.2667 17.1214C63.0262 16.8828 62.8351 16.5991 62.7042 16.2866C62.5733 15.9741 62.5053 15.6388 62.504 15.3V15.299ZM62.504 19.707H67.686V34.521H62.504V19.707V19.707ZM69.909 12.728V34.521H75.093V28.89L76.698 27.42L81.758 34.644H87.312L80.029 24.114L86.571 17.747H80.276L75.093 22.889V12.73H69.91L69.909 12.728ZM125.822 12.728V34.521H131.007V28.89L132.611 27.42L137.672 34.644H143.227L135.944 24.114L142.485 17.747H136.191L131.007 22.889V12.73H125.822V12.728ZM113.726 34.644C118.702 34.644 122.737 30.642 122.737 25.707C122.737 20.771 118.702 16.769 113.726 16.769H113.603C108.626 16.769 104.592 20.771 104.592 25.707C104.592 30.642 108.626 34.644 113.603 34.644H113.726ZM109.282 25.707C109.282 23.306 111.245 21.361 113.665 21.361C116.084 21.361 118.046 23.306 118.046 25.707C118.046 28.107 116.084 30.053 113.665 30.053C111.245 30.053 109.282 28.108 109.282 25.707Z" fill="black"/>
</g>
<defs>
<clipPath id="clip0_1_9">
<rect width="143" height="45" fill="white"/>
</clipPath>
</defs>
</svg>
