<svg width="750" height="500" viewBox="0 0 750 500" fill="none" xmlns="http://www.w3.org/2000/svg">
<path d="M697.69 188.52C697.69 188.52 592.19 73.21 431.09 34C269.99 -5.20997 246.27 123.15 200.47 173.8C154.67 224.45 71.25 218.8 30.36 280.93C-10.53 343.06 34.45 452.67 234.81 480.48C435.17 508.29 422.91 401.15 547.21 420.78C671.51 440.41 814.64 334.91 697.69 188.52Z" fill="black"/>
<path opacity="0.7" d="M697.69 188.52C697.69 188.52 592.19 73.21 431.09 34C269.99 -5.20997 246.27 123.15 200.47 173.8C154.67 224.45 71.25 218.8 30.36 280.93C-10.53 343.06 34.45 452.67 234.81 480.48C435.17 508.29 422.91 401.15 547.21 420.78C671.51 440.41 814.64 334.91 697.69 188.52Z" fill="white"/>
<path d="M29.76 383.28H722.66" stroke="#263238" stroke-linecap="round" stroke-linejoin="round"/>
<path d="M584.89 133.82V387.45H687.07V133.82H584.89ZM679.07 380.15H592.89V141.15H679.07V380.15Z" fill="#263238" stroke="#263238" stroke-linecap="round" stroke-linejoin="round"/>
<path d="M610.36 163.72H603.78L600.5 187.1H613.64L610.36 163.72Z" fill="white" stroke="#263238" stroke-linecap="round" stroke-linejoin="round"/>
<path d="M611.4 157.29H602.74L603.74 163.91H610.4L611.4 157.29Z" fill="white" stroke="#263238" stroke-linecap="round" stroke-linejoin="round"/>
<path d="M628.48 187.9C634.384 187.9 639.17 183.114 639.17 177.21C639.17 171.306 634.384 166.52 628.48 166.52C622.576 166.52 617.79 171.306 617.79 177.21C617.79 183.114 622.576 187.9 628.48 187.9Z" fill="white" stroke="#263238" stroke-linecap="round" stroke-linejoin="round"/>
<path d="M674.88 221.26H640.56V256.28H674.88V221.26Z" fill="white" stroke="#263238" stroke-linecap="round" stroke-linejoin="round"/>
<path d="M668.92 227.34H646.52V250.2H668.92V227.34Z" fill="white" stroke="#263238" stroke-linecap="round" stroke-linejoin="round"/>
<path d="M602.36 224.09H593.87V255.93H602.36V224.09Z" fill="white" stroke="#263238" stroke-linecap="round" stroke-linejoin="round"/>
<path d="M611.2 224.09H602.71V255.93H611.2V224.09Z" fill="white" stroke="#263238" stroke-linecap="round" stroke-linejoin="round"/>
<path d="M620.12 223.539L611.786 225.158L617.856 256.414L626.19 254.795L620.12 223.539Z" fill="white" stroke="#263238" stroke-linecap="round" stroke-linejoin="round"/>
<path d="M668.79 380.06H677.28V348.22H668.79V380.06Z" fill="white" stroke="#263238" stroke-linecap="round" stroke-linejoin="round"/>
<path d="M659.96 380.06H668.45V348.22H659.96V380.06Z" fill="white" stroke="#263238" stroke-linecap="round" stroke-linejoin="round"/>
<path d="M644.992 378.93L653.326 380.548L659.396 349.292L651.062 347.674L644.992 378.93Z" fill="white" stroke="#263238" stroke-linecap="round" stroke-linejoin="round"/>
<path d="M636.84 324.53C642.49 324.53 647.07 317.282 647.07 308.34C647.07 299.399 642.49 292.15 636.84 292.15C631.19 292.15 626.61 299.399 626.61 308.34C626.61 317.282 631.19 324.53 636.84 324.53Z" fill="white" stroke="#263238" stroke-linecap="round" stroke-linejoin="round"/>
<path d="M640.84 289C641.16 286.11 643.73 274.89 643.73 274.89H629.93C629.93 274.89 632.5 286.11 632.82 289C632.947 290.905 632.498 292.804 631.53 294.45L636.83 299.11L642.12 294.45C641.157 292.803 640.711 290.904 640.84 289V289Z" fill="white" stroke="#263238" stroke-linecap="round" stroke-linejoin="round"/>
<path d="M679.07 187.56H592.89V196.87H679.07V187.56Z" fill="#263238" stroke="#263238" stroke-linecap="round" stroke-linejoin="round"/>
<path d="M679.07 256.29H592.89V265.6H679.07V256.29Z" fill="#263238" stroke="#263238" stroke-linecap="round" stroke-linejoin="round"/>
<path d="M679.07 325.01H592.89V334.32H679.07V325.01Z" fill="#263238" stroke="#263238" stroke-linecap="round" stroke-linejoin="round"/>
<path d="M143.28 80.89H95.48V142.34H143.28V80.89Z" stroke="#263238" stroke-linecap="round" stroke-linejoin="round"/>
<path d="M140.19 84.86H98.57V138.38H140.19V84.86Z" stroke="#263238" stroke-linecap="round" stroke-linejoin="round"/>
<path d="M126.1 102.98H112.66V120.26H126.1V102.98Z" stroke="#263238" stroke-linecap="round" stroke-linejoin="round"/>
<path d="M86.8 126.83H39V188.28H86.8V126.83Z" stroke="#263238" stroke-linecap="round" stroke-linejoin="round"/>
<path d="M83.7 130.8H42.08V184.32H83.7V130.8Z" stroke="#263238" stroke-linecap="round" stroke-linejoin="round"/>
<path d="M69.62 148.92H56.18V166.2H69.62V148.92Z" stroke="#263238" stroke-linecap="round" stroke-linejoin="round"/>
<path d="M204.43 126.83H156.63V188.28H204.43V126.83Z" stroke="#263238" stroke-linecap="round" stroke-linejoin="round"/>
<path d="M201.33 130.8H159.71V184.32H201.33V130.8Z" stroke="#263238" stroke-linecap="round" stroke-linejoin="round"/>
<path d="M187.25 148.92H173.81V166.2H187.25V148.92Z" stroke="#263238" stroke-linecap="round" stroke-linejoin="round"/>
<path d="M143.28 152.02H95.48V187.92H143.28V152.02Z" stroke="#263238" stroke-linecap="round" stroke-linejoin="round"/>
<path d="M140.19 154.34H98.57V185.6H140.19V154.34Z" stroke="#263238" stroke-linecap="round" stroke-linejoin="round"/>
<path d="M126.1 164.92H112.66V175.01H126.1V164.92Z" stroke="#263238" stroke-linecap="round" stroke-linejoin="round"/>
<path d="M148.28 230.51V199.59H125.05V230.51H148.28Z" stroke="#263238" stroke-linecap="round" stroke-linejoin="round"/>
<path d="M146.78 228.51V201.58H126.55V228.51H146.78Z" stroke="#263238" stroke-linecap="round" stroke-linejoin="round"/>
<path d="M139.94 219.39V210.7H133.41V219.39H139.94Z" stroke="#263238" stroke-linecap="round" stroke-linejoin="round"/>
<path d="M113.95 230.5V199.58H90.72V230.5H113.95Z" stroke="#263238" stroke-linecap="round" stroke-linejoin="round"/>
<path d="M112.45 228.51V201.58H92.22V228.51H112.45Z" stroke="#263238" stroke-linecap="round" stroke-linejoin="round"/>
<path d="M105.61 219.39V210.7H99.08V219.39H105.61Z" stroke="#263238" stroke-linecap="round" stroke-linejoin="round"/>
<path d="M428.92 106.51H307.96V273H428.92V106.51Z" fill="#263238" stroke="#263238" stroke-linecap="round" stroke-linejoin="round"/>
<path d="M423.15 113.93H313.72V265.57H423.15V113.93Z" fill="white" stroke="#263238" stroke-linecap="round" stroke-linejoin="round"/>
<path d="M379.97 137.41L352.99 164.4" stroke="#263238" stroke-linecap="round" stroke-linejoin="round"/>
<path d="M394.07 123.31L382.67 134.71" stroke="#263238" stroke-linecap="round" stroke-linejoin="round"/>
<path d="M361.68 146.1L345.49 162.3" stroke="#263238" stroke-linecap="round" stroke-linejoin="round"/>
<path d="M357.78 252.56L352.99 257.36" stroke="#263238" stroke-linecap="round" stroke-linejoin="round"/>
<path d="M394.07 216.27L360.48 249.86" stroke="#263238" stroke-linecap="round" stroke-linejoin="round"/>
<path d="M361.68 239.06L345.49 255.26" stroke="#263238" stroke-linecap="round" stroke-linejoin="round"/>
<path d="M372.45 196C372.448 195.279 372.232 194.574 371.83 193.975C371.428 193.376 370.857 192.91 370.19 192.635C369.523 192.36 368.789 192.29 368.082 192.431C367.374 192.573 366.725 192.922 366.216 193.433C365.706 193.944 365.359 194.594 365.219 195.302C365.079 196.009 365.152 196.743 365.429 197.409C365.705 198.076 366.173 198.645 366.773 199.046C367.373 199.446 368.079 199.66 368.8 199.66C369.769 199.657 370.697 199.271 371.382 198.585C372.066 197.899 372.45 196.969 372.45 196V196Z" fill="#263238" stroke="#263238" stroke-linecap="round" stroke-linejoin="round"/>
<path d="M423.15 195.44H313.72V202.15H423.15V195.44Z" fill="#263238" stroke="#263238" stroke-linecap="round" stroke-linejoin="round"/>
<path d="M432.48 96.54H305.12V110.77H432.48V96.54Z" fill="#263238" stroke="#263238" stroke-linecap="round" stroke-linejoin="round"/>
<path d="M432.48 268.02H305.12V282.25H432.48V268.02Z" fill="#263238" stroke="#263238" stroke-linecap="round" stroke-linejoin="round"/>
<path d="M477.3 76.6201H259.58V80.8901H477.3V76.6201Z" fill="white" stroke="#263238" stroke-linecap="round" stroke-linejoin="round"/>
<path d="M275.02 73.0601H271.9C269.42 73.0601 267.41 75.0703 267.41 77.5501V293.41C267.41 295.89 269.42 297.9 271.9 297.9H275.02C277.5 297.9 279.51 295.89 279.51 293.41V77.5501C279.51 75.0703 277.5 73.0601 275.02 73.0601Z" fill="white" stroke="#263238" stroke-linecap="round" stroke-linejoin="round"/>
<path d="M286.4 73.0601H283.28C280.8 73.0601 278.79 75.0703 278.79 77.5501V293.41C278.79 295.89 280.8 297.9 283.28 297.9H286.4C288.88 297.9 290.89 295.89 290.89 293.41V77.5501C290.89 75.0703 288.88 73.0601 286.4 73.0601Z" fill="white" stroke="#263238" stroke-linecap="round" stroke-linejoin="round"/>
<path d="M297.78 73.0601H294.66C292.18 73.0601 290.17 75.0703 290.17 77.5501V293.41C290.17 295.89 292.18 297.9 294.66 297.9H297.78C300.26 297.9 302.27 295.89 302.27 293.41V77.5501C302.27 75.0703 300.26 73.0601 297.78 73.0601Z" fill="white" stroke="#263238" stroke-linecap="round" stroke-linejoin="round"/>
<path d="M309.17 73.0601H306.05C303.57 73.0601 301.56 75.0703 301.56 77.5501V293.41C301.56 295.89 303.57 297.9 306.05 297.9H309.17C311.65 297.9 313.66 295.89 313.66 293.41V77.5501C313.66 75.0703 311.65 73.0601 309.17 73.0601Z" fill="white" stroke="#263238" stroke-linecap="round" stroke-linejoin="round"/>
<path d="M431.55 73.0601H428.43C425.95 73.0601 423.94 75.0703 423.94 77.5501V293.41C423.94 295.89 425.95 297.9 428.43 297.9H431.55C434.03 297.9 436.04 295.89 436.04 293.41V77.5501C436.04 75.0703 434.03 73.0601 431.55 73.0601Z" fill="white" stroke="#263238" stroke-linecap="round" stroke-linejoin="round"/>
<path d="M442.93 73.0601H439.81C437.33 73.0601 435.32 75.0703 435.32 77.5501V293.41C435.32 295.89 437.33 297.9 439.81 297.9H442.93C445.41 297.9 447.42 295.89 447.42 293.41V77.5501C447.42 75.0703 445.41 73.0601 442.93 73.0601Z" fill="white" stroke="#263238" stroke-linecap="round" stroke-linejoin="round"/>
<path d="M454.32 73.0601H451.2C448.72 73.0601 446.71 75.0703 446.71 77.5501V293.41C446.71 295.89 448.72 297.9 451.2 297.9H454.32C456.8 297.9 458.81 295.89 458.81 293.41V77.5501C458.81 75.0703 456.8 73.0601 454.32 73.0601Z" fill="white" stroke="#263238" stroke-linecap="round" stroke-linejoin="round"/>
<path d="M465.7 73.0601H462.58C460.1 73.0601 458.09 75.0703 458.09 77.5501V293.41C458.09 295.89 460.1 297.9 462.58 297.9H465.7C468.18 297.9 470.19 295.89 470.19 293.41V77.5501C470.19 75.0703 468.18 73.0601 465.7 73.0601Z" fill="white" stroke="#263238" stroke-linecap="round" stroke-linejoin="round"/>
<path d="M241 316.86C241 316.86 242.45 275.73 247.19 274.63C251.93 273.53 264.3 277.55 303.99 276.09C343.68 274.63 364.8 275.73 366.26 276.82C367.72 277.91 372.81 339.45 370.63 340.18C368.45 340.91 322.93 336.18 303.99 336.54C285.05 336.9 246.82 340.18 243.55 339.45C240.28 338.72 241 316.86 241 316.86Z" fill="black" stroke="#263238" stroke-linecap="round" stroke-linejoin="round"/>
<path d="M494.55 316.86C494.55 316.86 493.09 275.73 488.36 274.63C483.63 273.53 471.25 277.55 431.56 276.09C391.87 274.63 370.75 275.73 369.29 276.82C367.83 277.91 368.46 339.45 370.65 340.18C372.84 340.91 412.65 336.18 431.56 336.54C450.47 336.9 488.73 340.18 492 339.45C495.27 338.72 494.55 316.86 494.55 316.86Z" fill="black" stroke="#263238" stroke-linecap="round" stroke-linejoin="round"/>
<path d="M501.36 380.59H241.38V397.34H501.36V380.59Z" fill="black" stroke="#263238" stroke-linecap="round" stroke-linejoin="round"/>
<path d="M372.59 336.17H241.38V365.08H372.59V336.17Z" fill="black" stroke="#263238" stroke-linecap="round" stroke-linejoin="round"/>
<path d="M500.4 336.17H372.12V365.08H500.4V336.17Z" fill="black" stroke="#263238" stroke-linecap="round" stroke-linejoin="round"/>
<path d="M372.59 352.56H241.38V381.47H372.59V352.56Z" fill="black" stroke="#263238" stroke-linecap="round" stroke-linejoin="round"/>
<path d="M500.4 352.56H372.12V381.47H500.4V352.56Z" fill="black" stroke="#263238" stroke-linecap="round" stroke-linejoin="round"/>
<path d="M283.05 282.64C283.05 282.64 270.66 292.83 259.05 293.2C247.44 293.57 242.3 290.65 235.38 294.29C228.46 297.93 247.77 339.08 254.32 341.29C260.87 343.5 295.83 335.46 299.83 334.01C303.83 332.56 290.73 296.5 288.91 290.68C287.09 284.86 287.05 280.82 283.05 282.64Z" fill="#263238" stroke="#263238" stroke-linecap="round" stroke-linejoin="round"/>
<path d="M302.19 295.75C302.19 295.75 289.45 291.75 287.63 292.84C285.81 293.93 290.17 315.42 291.27 321.24C292.37 327.06 290.17 335.44 292.36 336.54C294.55 337.64 337.51 339.08 343.36 338.36C349.21 337.64 337.17 305.95 336.07 296.85C334.97 287.75 335.71 288.85 331.34 290.29C326.97 291.73 312 295.75 302.19 295.75Z" fill="white" stroke="#263238" stroke-linecap="round" stroke-linejoin="round"/>
<path d="M452.92 282.64C452.92 282.64 465.3 292.83 476.92 293.2C488.54 293.57 493.67 290.65 500.59 294.29C507.51 297.93 488.21 339.08 481.65 341.29C475.09 343.5 440.14 335.46 436.14 334.01C432.14 332.56 445.24 296.5 447.06 290.68C448.88 284.86 448.91 280.82 452.92 282.64Z" fill="#263238" stroke="#263238" stroke-linecap="round" stroke-linejoin="round"/>
<path d="M433.77 295.75C433.77 295.75 446.52 291.75 448.34 292.84C450.16 293.93 445.79 315.42 444.7 321.24C443.61 327.06 445.79 335.44 443.6 336.54C441.41 337.64 398.45 339.08 392.6 338.36C386.75 337.64 398.79 305.95 399.88 296.85C400.97 287.75 400.24 288.85 404.61 290.29C408.98 291.73 423.94 295.75 433.77 295.75Z" fill="white" stroke="#263238" stroke-linecap="round" stroke-linejoin="round"/>
<path d="M232.31 311.77H240C241.35 311.77 242.645 312.306 243.599 313.261C244.554 314.215 245.09 315.51 245.09 316.86V404.31C245.09 405.456 244.635 406.555 243.825 407.365C243.015 408.175 241.916 408.63 240.77 408.63H231.56C230.414 408.63 229.315 408.175 228.505 407.365C227.695 406.555 227.24 405.456 227.24 404.31V316.86C227.24 315.514 227.774 314.222 228.724 313.268C229.674 312.314 230.964 311.775 232.31 311.77V311.77Z" fill="black" stroke="#263238" stroke-linecap="round" stroke-linejoin="round"/>
<path d="M498 311.77H505.66C507.01 311.77 508.305 312.306 509.259 313.261C510.214 314.215 510.75 315.51 510.75 316.86V404.31C510.75 405.456 510.295 406.555 509.485 407.365C508.675 408.175 507.576 408.63 506.43 408.63H497.22C496.074 408.63 494.975 408.175 494.165 407.365C493.355 406.555 492.9 405.456 492.9 404.31V316.86C492.9 316.191 493.032 315.528 493.288 314.91C493.545 314.292 493.921 313.73 494.394 313.257C494.868 312.785 495.43 312.41 496.049 312.155C496.668 311.899 497.331 311.769 498 311.77Z" fill="black" stroke="#263238" stroke-linecap="round" stroke-linejoin="round"/>
<path d="M578.51 355.35C578.16 352.59 567.65 349.12 567.65 349.12L553.28 349.8L538.91 349.12C538.91 349.12 528.4 352.59 528.05 355.35C527.7 358.11 521.74 398.63 521.74 398.63C530.414 401.049 539.366 402.329 548.37 402.44H558.19C567.194 402.329 576.146 401.049 584.82 398.63C584.82 398.63 578.86 358.12 578.51 355.35Z" fill="white" stroke="#263238" stroke-linecap="round" stroke-linejoin="round"/>
<path d="M553.28 353.13C563.232 353.13 571.3 350.018 571.3 346.18C571.3 342.342 563.232 339.23 553.28 339.23C543.328 339.23 535.26 342.342 535.26 346.18C535.26 350.018 543.328 353.13 553.28 353.13Z" fill="white" stroke="#263238" stroke-linecap="round" stroke-linejoin="round"/>
<path d="M519 332.57L525.17 341.32C525.17 345.63 537.76 349.12 553.28 349.12C568.8 349.12 581.39 345.63 581.39 341.32L587.56 332.57H519Z" fill="white" stroke="#263238" stroke-linecap="round" stroke-linejoin="round"/>
<path d="M553.28 339.92C572.212 339.92 587.56 336.629 587.56 332.57C587.56 328.511 572.212 325.22 553.28 325.22C534.348 325.22 519 328.511 519 332.57C519 336.629 534.348 339.92 553.28 339.92Z" fill="white" stroke="#263238" stroke-linecap="round" stroke-linejoin="round"/>
<path d="M553.35 330.76L557.98 279.22L516.67 242.54" stroke="#263238" stroke-width="2" stroke-linecap="round" stroke-linejoin="round"/>
<path d="M517.18 242.85C517.906 242.363 518.514 241.721 518.962 240.971C519.41 240.22 519.686 239.38 519.77 238.51C520.16 235.51 518.67 232.91 516.45 232.62C514.23 232.33 512.12 234.49 511.73 237.45C511.585 238.312 511.634 239.195 511.872 240.035C512.111 240.876 512.534 241.653 513.11 242.31C508.82 243.31 504.97 248.93 504.02 256.14C503.877 257.217 503.807 258.303 503.81 259.39L521.76 261.74C522.041 260.695 522.251 259.633 522.39 258.56C523.34 251.34 521.07 244.91 517.18 242.85Z" fill="white" stroke="#263238" stroke-linecap="round" stroke-linejoin="round"/>
<path d="M564.93 328.25H541.77V333.27H564.93V328.25Z" fill="white" stroke="#263238" stroke-linecap="round" stroke-linejoin="round"/>
<path d="M444.23 393.16L451.92 430.85H449.8L437.69 393.74L444.23 393.16Z" fill="#263238" stroke="#263238" stroke-linecap="round" stroke-linejoin="round"/>
<path d="M303.67 393.16L295.98 430.85H298.1L310.21 393.74L303.67 393.16Z" fill="#263238" stroke="#263238" stroke-linecap="round" stroke-linejoin="round"/>
<path d="M297.33 410.47L289.64 448.15H291.75L303.87 411.05L297.33 410.47Z" fill="#263238" stroke="#263238" stroke-linecap="round" stroke-linejoin="round"/>
<path d="M451.92 410.47L459.61 448.15H457.49L445.38 411.05L451.92 410.47Z" fill="#263238" stroke="#263238" stroke-linecap="round" stroke-linejoin="round"/>
<path d="M477.62 408.63L464.22 388.24H282.54L269.14 408.63H477.62Z" fill="white" stroke="#263238" stroke-linecap="round" stroke-linejoin="round"/>
<path d="M477.34 408.63H269.14V412.27H477.34V408.63Z" fill="#263238" stroke="#263238" stroke-linecap="round" stroke-linejoin="round"/>
<path d="M379.32 399.46L377.51 400.56H364.69L362.88 399.46C360.983 398.374 359.008 397.431 356.97 396.64C356.172 396.363 355.502 395.803 355.09 395.066C354.677 394.329 354.549 393.465 354.73 392.64L358.85 376.81H383.35L387.47 392.64C387.651 393.465 387.523 394.329 387.11 395.066C386.698 395.803 386.028 396.363 385.23 396.64C383.192 397.431 381.217 398.374 379.32 399.46Z" fill="white" stroke="#263238" stroke-linecap="round" stroke-linejoin="round"/>
<path d="M377.51 400.56H364.69C363.29 400.56 362.25 398.07 362.55 395.45L364.7 376.83H377.5L379.65 395.45C380 398.07 378.91 400.56 377.51 400.56Z" fill="white" stroke="#263238" stroke-linecap="round" stroke-linejoin="round"/>
<path d="M358.85 376.83L355.08 371.19L362.2 375.05L363.09 370L365.17 370.6L363.68 364.96L369.62 369.41L374.07 359.92L374.96 369.71L380.59 366.74L379.11 371.19L385.63 368.52L382.07 373.56L385.04 373.86L383.35 376.83H358.85Z" fill="#263238" stroke="#263238" stroke-linecap="round" stroke-linejoin="round"/>
<path d="M166.1 257.35C166.106 257.344 166.111 257.337 166.115 257.33C166.118 257.322 166.12 257.313 166.12 257.305C166.12 257.296 166.118 257.288 166.115 257.28C166.111 257.273 166.106 257.266 166.1 257.26C166.086 257.249 166.068 257.242 166.05 257.242C166.032 257.242 166.014 257.249 166 257.26C163.926 262.244 162.284 267.396 161.09 272.66C159.881 277.937 158.976 283.279 158.38 288.66L157.99 292.66C157.94 293.33 157.86 294 157.81 294.66L157.7 296.66C157.7 298.01 157.56 299.36 157.52 300.71V304.77L157.57 306.77C157.57 307.44 157.64 308.12 157.69 308.77C157.79 310.12 157.87 311.47 158 312.77C158.26 315.46 158.66 318.14 159.08 320.77C159.082 320.787 159.091 320.802 159.104 320.813C159.117 320.824 159.133 320.83 159.15 320.83C159.169 320.83 159.186 320.823 159.199 320.809C159.213 320.796 159.22 320.779 159.22 320.76C159.22 319.41 159.15 318.07 159.12 316.76C159.09 315.45 158.97 314.08 158.99 312.76C159.01 311.44 158.99 310.08 158.94 308.76V306.76V304.76V300.76L159.05 296.76V294.76C159.05 294.09 159.13 293.42 159.16 292.76L159.41 288.76C159.866 283.415 160.624 278.1 161.68 272.84C162.706 267.559 164.184 262.377 166.1 257.35V257.35Z" fill="#263238"/>
<path d="M166.68 278.37C166.683 278.361 166.684 278.351 166.683 278.341C166.682 278.332 166.679 278.322 166.675 278.314C166.67 278.305 166.664 278.298 166.656 278.292C166.648 278.286 166.639 278.282 166.63 278.28C166.63 278.28 166.56 278.28 166.54 278.28C164.247 284.992 162.724 291.944 162 299C161.65 302.51 161.25 306 161.21 309.57C161.118 313.111 161.242 316.654 161.58 320.18C161.58 320.196 161.586 320.211 161.598 320.222C161.609 320.234 161.624 320.24 161.64 320.24C161.64 320.24 161.72 320.24 161.72 320.18C162.13 316.66 162.38 313.18 162.62 309.63C162.86 306.08 162.91 302.63 163.14 299.09C163.362 295.586 163.78 292.097 164.39 288.64C164.964 285.177 165.729 281.749 166.68 278.37Z" fill="#263238"/>
<path d="M178.33 285.76C178.316 285.749 178.298 285.742 178.28 285.742C178.262 285.742 178.244 285.749 178.23 285.76C175.314 287.628 172.689 289.916 170.44 292.55C169.307 293.872 168.287 295.287 167.39 296.78L166.77 297.97L166.28 299.19C166.113 299.598 165.969 300.015 165.85 300.44C165.73 300.86 165.58 301.27 165.47 301.69C164.58 305.062 164.041 308.517 163.86 312C163.685 315.455 163.815 318.918 164.25 322.35C164.25 322.369 164.257 322.386 164.271 322.399C164.284 322.413 164.301 322.42 164.32 322.42C164.339 322.42 164.356 322.413 164.369 322.399C164.383 322.386 164.39 322.369 164.39 322.35L165.28 312.1C165.523 308.712 165.953 305.34 166.57 302C166.67 301.59 166.79 301.18 166.89 300.77C166.99 300.36 167.1 299.96 167.25 299.57L167.66 298.38L168.2 297.26C169.011 295.763 169.947 294.338 171 293C173.077 290.28 175.543 287.881 178.32 285.88C178.331 285.875 178.34 285.867 178.347 285.857C178.354 285.847 178.358 285.835 178.359 285.823C178.36 285.811 178.358 285.799 178.353 285.788C178.348 285.777 178.34 285.767 178.33 285.76Z" fill="#263238"/>
<path d="M172.69 298.92C171.176 300.026 169.96 301.489 169.15 303.18C168.296 304.842 167.625 306.593 167.15 308.4C167.012 308.843 166.899 309.294 166.81 309.75L166.48 311.11C166.312 312.026 166.198 312.951 166.14 313.88C166.14 314.81 166.14 315.74 166.14 316.67C166.213 317.596 166.337 318.517 166.51 319.43C166.514 319.444 166.522 319.457 166.532 319.467C166.543 319.478 166.556 319.486 166.57 319.49C166.57 319.49 166.64 319.49 166.65 319.43C166.866 318.533 167.029 317.625 167.14 316.71C167.29 315.81 167.43 314.91 167.53 314.01C167.63 313.11 167.78 312.23 167.85 311.33C167.92 310.43 168.04 309.53 168.24 308.66C168.549 306.885 169.059 305.15 169.76 303.49C170.393 301.79 171.421 300.264 172.76 299.04V299.04C172.771 299.026 172.778 299.008 172.778 298.99C172.778 298.972 172.771 298.954 172.76 298.94C172.751 298.931 172.74 298.925 172.727 298.922C172.715 298.918 172.702 298.918 172.69 298.92V298.92Z" fill="#263238"/>
<path d="M156.35 309.19C155.97 304.64 155.22 300.13 154.51 295.63C153.8 291.13 153.01 286.63 152.19 282.16C151.37 277.69 150.45 273.22 149.48 268.77C149.468 268.762 149.454 268.757 149.44 268.757C149.426 268.757 149.412 268.762 149.4 268.77C149.4 268.77 149.33 268.77 149.34 268.85C150.12 273.34 150.82 277.85 151.49 282.33C152.16 286.81 152.81 291.33 153.38 295.84C153.95 300.35 154.38 304.84 154.94 309.38L156.6 322.92C156.6 322.92 156.6 322.99 156.67 322.99C156.689 322.99 156.706 322.983 156.719 322.969C156.733 322.956 156.74 322.939 156.74 322.92C156.8 321.78 156.8 320.64 156.83 319.49C156.86 318.34 156.78 317.21 156.76 316.07C156.72 313.73 156.52 311.46 156.35 309.19Z" fill="#263238"/>
<path d="M153.62 309.12C153.38 307.32 153.05 305.53 152.7 303.74L152.07 301.09C151.86 300.2 151.66 299.31 151.4 298.44C150.492 294.914 149.329 291.458 147.92 288.1L147.38 286.84L146.77 285.62C146.39 284.8 145.92 284.01 145.48 283.22C144.586 281.625 143.479 280.158 142.19 278.86C142.177 278.849 142.161 278.844 142.145 278.844C142.129 278.844 142.113 278.849 142.1 278.86C142.093 278.867 142.088 278.874 142.084 278.883C142.081 278.891 142.079 278.901 142.079 278.91C142.079 278.919 142.081 278.929 142.084 278.937C142.088 278.946 142.093 278.953 142.1 278.96C143.294 280.303 144.303 281.799 145.1 283.41C145.49 284.22 145.91 285.02 146.25 285.85L146.78 287.09L147.26 288.35C148.509 291.723 149.512 295.182 150.26 298.7C150.67 300.45 150.95 302.23 151.26 304L151.69 306.66C151.84 307.55 152.03 308.43 152.16 309.32C152.44 311.1 152.77 312.87 153.08 314.65C153.39 316.43 153.68 318.22 154.08 320C154.082 320.017 154.091 320.032 154.104 320.043C154.117 320.054 154.133 320.06 154.15 320.06C154.169 320.06 154.186 320.053 154.199 320.039C154.213 320.026 154.22 320.009 154.22 319.99C154.22 318.17 154.22 316.35 154.09 314.54C153.96 312.73 153.81 310.93 153.62 309.12Z" fill="#263238"/>
<path d="M149.86 309.35C149.02 306.97 148.04 304.63 146.98 302.35C145.906 300.067 144.697 297.849 143.36 295.71C143.345 295.701 143.328 295.697 143.31 295.697C143.292 295.697 143.275 295.701 143.26 295.71C143.249 295.724 143.242 295.742 143.242 295.76C143.242 295.778 143.249 295.796 143.26 295.81C144.431 298.028 145.466 300.316 146.36 302.66C147.28 304.99 148.11 307.35 148.81 309.75C149.51 312.15 150.03 314.58 150.67 316.99C151.31 319.4 151.88 321.82 152.67 324.26C152.681 324.265 152.693 324.268 152.705 324.268C152.717 324.268 152.729 324.265 152.74 324.26C152.759 324.26 152.776 324.253 152.789 324.239C152.803 324.226 152.81 324.209 152.81 324.19C152.844 321.649 152.606 319.111 152.1 316.62C151.553 314.139 150.804 311.708 149.86 309.35Z" fill="#263238"/>
<path d="M149.7 317.3C149.239 315.811 148.565 314.396 147.7 313.1C146.895 311.77 145.916 310.552 144.79 309.48C144.212 308.96 143.59 308.491 142.93 308.08C142.282 307.659 141.574 307.339 140.83 307.13C140.818 307.122 140.804 307.117 140.79 307.117C140.776 307.117 140.762 307.122 140.75 307.13C140.739 307.144 140.732 307.162 140.732 307.18C140.732 307.198 140.739 307.216 140.75 307.23V307.23C142.092 307.876 143.282 308.8 144.24 309.94C145.212 311.052 146.029 312.29 146.67 313.62C147.36 314.93 147.67 316.37 148.32 317.71C148.58 318.4 148.84 319.1 149.15 319.79C149.41 320.509 149.718 321.211 150.07 321.89V321.89C150.079 321.897 150.089 321.9 150.1 321.9C150.111 321.9 150.121 321.897 150.13 321.89C150.149 321.89 150.166 321.883 150.18 321.87C150.193 321.856 150.2 321.839 150.2 321.82C150.228 321.046 150.202 320.27 150.12 319.5C150.017 318.76 149.877 318.026 149.7 317.3Z" fill="#263238"/>
<path d="M150 275.29C147.728 274.655 145.673 273.411 144.056 271.693C142.44 269.974 141.325 267.847 140.83 265.54C139.11 257.54 144.65 260.95 139.68 248.34C134.71 235.73 135.86 232.86 137.58 229.23C139.3 225.6 140.26 226.74 141.79 231.52C143.32 236.3 148.86 243.75 150.96 257.7C153.06 271.65 150 275.29 150 275.29Z" fill="black"/>
<path d="M164.7 261.72C164.7 261.72 159.7 260 159.54 250.63C159.38 241.26 163.17 243.18 163.74 231.52C164.31 219.86 165.08 211.65 167.18 211.45C169.28 211.25 174.83 217.19 176.74 230.18C178.65 243.17 174.26 251.78 170.43 255.6C166.6 259.42 164.7 261.72 164.7 261.72Z" fill="black"/>
<path d="M147.31 286.56C147.31 286.56 146.16 279.68 143.87 276.43C141.58 273.18 136.61 270.32 133.36 264.01C130.11 257.7 126.48 254.65 126.67 263.63C126.86 272.61 130.87 277.2 135.84 280.25C140.81 283.3 147.31 286.56 147.31 286.56Z" fill="black"/>
<path d="M145.21 298.41C142.174 292.817 138.378 287.671 133.93 283.12C127.24 276.62 121.93 273.37 123.8 276.62C125.67 279.87 128.01 279.68 131.26 285.41C134.51 291.14 133.55 295.35 138.14 298.6C142.73 301.85 145.21 298.41 145.21 298.41Z" fill="black"/>
<path d="M144.63 309.69C144.44 309.11 144.25 304.91 137.75 301.47C131.25 298.03 125.14 299.37 125.9 301.09C126.66 302.81 130.68 305.67 134.7 307.39C137.9 308.571 141.237 309.343 144.63 309.69V309.69Z" fill="black"/>
<path d="M164.32 286.94C164.32 286.94 161.45 283.31 162.98 275.67C164.51 268.03 167.98 269.93 171.77 265.92C175.56 261.91 174.83 261.33 178.65 257.13C182.47 252.93 185.91 250.63 187.44 252.35C188.97 254.07 186.68 259.42 184.38 262.48C182.08 265.54 178.46 267.07 176.74 270.89C175.02 274.71 175.74 280.83 171.39 283.69C167.04 286.55 164.32 286.94 164.32 286.94Z" fill="black"/>
<path d="M173.87 289.05C173.87 289.05 180.75 281.21 185.72 275.48C190.69 269.75 192.6 265.35 192.79 269.17C192.98 272.99 194.51 276.05 190.5 281.02C186.49 285.99 173.87 289.05 173.87 289.05Z" fill="black"/>
<path d="M170.24 301.66C170.24 301.66 170.05 298.6 180.94 291.53C191.83 284.46 196.42 283.12 195.28 285.99C194.14 288.86 189.35 291.72 184.19 296.88C179.03 302.04 170.24 301.66 170.24 301.66Z" fill="black"/>
<path d="M150.44 274.47C150.44 274.47 147.88 260.76 145.21 251.01C142.54 241.26 140.81 235.34 140.81 235.34" stroke="#263238" stroke-linecap="round" stroke-linejoin="round"/>
<path d="M164.26 261.86C164.26 261.86 168.9 247 170.43 238C171.96 229 170.24 222.33 169.43 218.31" stroke="#263238" stroke-linecap="round" stroke-linejoin="round"/>
<path d="M146.71 286.27C144.647 282.743 142.289 279.398 139.66 276.27C135.46 271.27 132.21 268.63 130.3 263.85" stroke="#263238" stroke-linecap="round" stroke-linejoin="round"/>
<path d="M164.32 286.94C164.32 286.94 165.85 277.77 169.48 272.99C173.11 268.21 180.37 260.76 183.24 255.99" stroke="#263238" stroke-linecap="round" stroke-linejoin="round"/>
<path d="M144.18 309.48C144.18 309.48 137.75 305.29 133.18 303" stroke="#263238" stroke-linecap="round" stroke-linejoin="round"/>
<path d="M181 348C180.57 336.4 167.68 328.67 167.68 328.67H147.94C147.94 328.67 135.06 336.4 134.63 348C134.2 359.6 149.23 402.12 149.23 402.12H166.4C166.4 402.12 181.44 359.59 181 348Z" fill="#263238" stroke="#263238" stroke-linecap="round" stroke-linejoin="round"/>
<path d="M170.23 317.27H145.03L147.94 328.67H167.33L170.23 317.27Z" fill="#263238" stroke="#263238" stroke-linecap="round" stroke-linejoin="round"/>
</svg>
