<svg width="500" height="500" viewBox="0 0 500 500" fill="none" xmlns="http://www.w3.org/2000/svg">
<path d="M451.21 32.2899H309.45V286.95H451.21V32.2899Z" fill="#EBEBEB"/>
<path d="M444.09 39.6699H315.12V279.36H444.09V39.6699Z" fill="#FAFAFA"/>
<path d="M457.2 289.24L451.21 286.95V27.97H457.2V289.24Z" fill="#E0E0E0"/>
<path d="M346.73 194.5L380.23 163.36C384.47 159.42 390.02 155.17 395.48 157.11C398.1 158.05 400.08 160.29 402.65 161.36C407.79 163.51 413.65 160.36 417.65 156.49C421.65 152.62 424.73 147.66 429.51 144.81C434.29 141.96 441.75 142.33 444.11 147.37V181.25L395.44 202.09L346.73 194.5Z" fill="#F5F5F5"/>
<path d="M315.12 175C327.46 170 339.78 174.25 348.61 184.23C350.47 186.33 352.16 188.75 354.72 189.91C358.18 191.48 362.17 190.31 365.95 189.91C371.135 189.397 376.36 190.329 381.048 192.602C385.735 194.875 389.702 198.401 392.51 202.79L351.31 223L315.12 222.74V175Z" fill="#E0E0E0"/>
<path d="M444.08 175.19C436 171.26 428.8 176 421.3 181C413.8 186 406.83 192.51 398 194.53C392.13 195.89 385.83 195.14 380.15 197.16C368.57 201.28 361.87 215.98 349.61 216.68C343 217.06 337 213 331.05 210C325.1 207 320.42 204.09 315.12 208.14V279.36H444.12L444.08 175.19Z" fill="#EBEBEB"/>
<path d="M446.89 108.62H315.12V111.17H446.89V108.62Z" fill="#E0E0E0"/>
<path d="M446.89 165.7H315.12V168.25H446.89V165.7Z" fill="#E0E0E0"/>
<path d="M446.89 222.78H315.12V225.33H446.89V222.78Z" fill="#E0E0E0"/>
<path d="M376.34 109.9V286.16H382.86V109.9H376.34Z" fill="#E0E0E0"/>
<path d="M342.9 39.6699H339.95V109.9H342.9V39.6699Z" fill="#E0E0E0"/>
<path d="M368.36 39.6699H365.41V109.9H368.36V39.6699Z" fill="#E0E0E0"/>
<path d="M393.82 39.6699H390.87V109.9H393.82V39.6699Z" fill="#E0E0E0"/>
<path d="M419.28 39.6699H416.33V109.9H419.28V39.6699Z" fill="#E0E0E0"/>
<path d="M309.46 27.97H303.46V288.52H309.46V27.97Z" fill="#E0E0E0"/>
<path d="M457.21 25.34H303.46V32.29H457.21V25.34Z" fill="#E0E0E0"/>
<path d="M461.26 290.1H299.2V296.57H461.26V290.1Z" fill="#E0E0E0"/>
<path d="M451.21 286.95L461.26 290.1H299.2L309.45 286.95H451.21Z" fill="#E0E0E0"/>
<path d="M150.91 36.08H78.28V141.35H150.91V36.08Z" fill="#E0E0E0"/>
<path d="M147.28 36.08H74.65V141.35H147.28V36.08Z" fill="#F5F5F5"/>
<path d="M138.25 47.48H83.67V129.95H138.25V47.48Z" fill="white"/>
<path d="M138.25 130C138.25 130 138.25 129.86 138.25 129.6C138.25 129.34 138.25 128.94 138.25 128.43C138.25 127.43 138.25 125.88 138.25 123.91C138.25 119.91 138.25 114.2 138.2 106.91C138.2 92.37 138.2 71.77 138.11 47.52L138.29 47.71H83.67L83.87 47.51C83.87 78.63 83.87 107.31 83.87 129.98L83.71 129.83L123.44 129.91H134.44H137.33H138.33H137.33H134.48H123.54L83.71 129.99H83.55V130C83.55 107.33 83.55 78.65 83.55 47.53V47.34H138.55V47.52C138.55 71.82 138.49 92.46 138.46 107.03C138.46 114.29 138.46 120.03 138.41 124.03C138.41 126.03 138.41 127.48 138.41 128.51C138.41 129.01 138.41 129.39 138.41 129.66C138.41 129.93 138.25 130 138.25 130Z" fill="#E0E0E0"/>
<path d="M147.48 36.08C147.109 36.7475 146.674 37.3771 146.18 37.96C145.34 39.09 144.18 40.63 142.78 42.29C141.38 43.95 140.13 45.41 139.19 46.46C138.706 47.0499 138.171 47.5954 137.59 48.09C138.007 47.447 138.478 46.8413 139 46.28L142.5 42.03C143.8 40.43 145 39 146 37.79C146.445 37.1797 146.94 36.6077 147.48 36.08V36.08Z" fill="#E0E0E0"/>
<path d="M138.53 129.69C141.243 134.004 144.437 137.996 148.05 141.59Z" fill="white"/>
<path d="M148.05 141.59C147.443 141.149 146.886 140.643 146.39 140.08C145.119 138.787 143.921 137.425 142.8 136C141.669 134.594 140.615 133.128 139.64 131.61C139.203 131 138.831 130.347 138.53 129.66C139.021 130.222 139.469 130.82 139.87 131.45C140.67 132.58 141.79 134.11 143.11 135.76C144.43 137.41 145.67 138.83 146.59 139.86C147.117 140.401 147.605 140.979 148.05 141.59V141.59Z" fill="#E0E0E0"/>
<path d="M74.64 141.27L84.15 129.53Z" fill="white"/>
<path d="M84.15 129.53C82.72 131.607 81.1847 133.61 79.55 135.53C78.0125 137.526 76.3737 139.442 74.64 141.27C76.0635 139.188 77.5991 137.185 79.24 135.27C80.7791 133.275 82.4178 131.36 84.15 129.53V129.53Z" fill="#E0E0E0"/>
<path d="M74.65 36.08C76.2836 37.8368 77.8224 39.6794 79.26 41.6C80.8046 43.4402 82.2436 45.3667 83.57 47.37C81.9518 45.6106 80.4264 43.7681 79 41.85C77.4433 40.0095 75.991 38.0831 74.65 36.08V36.08Z" fill="#E0E0E0"/>
<path d="M121.25 64.23H102.97V116.12H121.25V64.23Z" fill="#E0E0E0"/>
<path d="M245.21 87.8199H187.79V171.06H245.21V87.8199Z" fill="#E0E0E0"/>
<path d="M242.33 87.8199H184.91V171.06H242.33V87.8199Z" fill="#FAFAFA"/>
<path d="M235.2 96.84H192.04V162.05H235.2V96.84Z" fill="white"/>
<path d="M235.2 162C235.2 162 235.2 161.89 235.2 161.68V160.76C235.2 159.94 235.2 158.76 235.2 157.18C235.2 154.06 235.2 149.5 235.2 143.75C235.2 132.25 235.2 115.97 235.13 96.8L235.27 96.94H192L192.16 96.79C192.16 121.38 192.16 144.06 192.16 161.99L192.03 161.87L223.44 161.93H232.12H234.4H232.14H223.49L192 162H191.88C191.88 144.07 191.88 121.39 191.88 96.8V96.64H235.33V96.79C235.33 116 235.28 132.31 235.26 143.79C235.26 149.53 235.26 154.08 235.26 157.19C235.26 158.74 235.26 159.93 235.26 160.74C235.26 161.14 235.26 161.44 235.26 161.65C235.26 161.86 235.2 162 235.2 162Z" fill="#E0E0E0"/>
<path d="M242.49 87.8199C242.21 88.3502 241.874 88.8496 241.49 89.3099C240.82 90.1999 239.88 91.4099 238.8 92.7299C237.72 94.05 236.71 95.1999 235.96 96.0299C235.573 96.4911 235.152 96.9224 234.7 97.3199C235.017 96.8069 235.382 96.3248 235.79 95.8799L238.56 92.5299L241.32 89.1699C241.675 88.6911 242.067 88.2398 242.49 87.8199Z" fill="#E0E0E0"/>
<path d="M235.42 161.83C237.563 165.243 240.09 168.4 242.95 171.24Z" fill="white"/>
<path d="M243 171.24C242.519 170.891 242.076 170.493 241.68 170.05C240.91 169.27 239.89 168.15 238.84 166.85C237.948 165.733 237.114 164.572 236.34 163.37C235.997 162.888 235.705 162.372 235.47 161.83C235.855 162.279 236.209 162.753 236.53 163.25C237.16 164.14 238.05 165.35 239.09 166.65C240.13 167.95 241.09 169.09 241.84 169.9C242.257 170.319 242.644 170.767 243 171.24V171.24Z" fill="#E0E0E0"/>
<path d="M184.9 171L192.42 161.72Z" fill="white"/>
<path d="M192.42 161.71C191.292 163.354 190.077 164.936 188.78 166.45C187.568 168.034 186.273 169.553 184.9 171C186.028 169.356 187.243 167.774 188.54 166.26C190.62 163.69 192.36 161.66 192.42 161.71Z" fill="#E0E0E0"/>
<path d="M184.91 87.8199C186.206 89.2089 187.424 90.6677 188.56 92.1899C189.785 93.6459 190.933 95.1646 192 96.7399C190.698 95.3577 189.476 93.902 188.34 92.3799C187.115 90.9234 185.97 89.4011 184.91 87.8199Z" fill="#E0E0E0"/>
<path d="M221.75 110.08H207.3V151.11H221.75V110.08Z" fill="#F5F5F5"/>
<path d="M485.41 438.4C485.41 438.55 383.47 438.66 257.75 438.66C132.03 438.66 30.0601 438.55 30.0601 438.4C30.0601 438.25 131.98 438.14 257.75 438.14C383.52 438.14 485.41 438.26 485.41 438.4Z" fill="#263238"/>
<path d="M452.3 478.26C452.3 478.41 402.54 478.52 341.17 478.52C279.8 478.52 230 478.41 230 478.26C230 478.11 279.75 478 341.14 478C402.53 478 452.3 478.12 452.3 478.26Z" fill="#263238"/>
<path d="M425.32 413.56C425.366 413.422 425.422 413.288 425.49 413.16L426 412C426.669 410.489 427.208 408.923 427.61 407.32C428.901 401.368 428.857 395.203 427.48 389.27C426.628 385.158 425.509 381.106 424.13 377.14C422.71 372.83 421.06 368.27 419.72 363.33C418.2 358.179 417.466 352.829 417.54 347.46C417.75 341.84 419.41 336.23 421.24 330.66C423.07 325.09 424.95 319.6 425.51 314.11C426.148 308.828 425.097 303.479 422.51 298.83C420.09 294.37 417.05 290.56 414.77 286.61C412.642 282.947 411.071 278.986 410.11 274.86C408.737 268.881 408.638 262.68 409.82 256.66C410.24 254.459 410.876 252.305 411.72 250.23C411.695 250.373 411.659 250.513 411.61 250.65C411.51 250.96 411.38 251.37 411.22 251.89C410.744 253.472 410.35 255.077 410.04 256.7C408.955 262.688 409.115 268.836 410.51 274.76C411.485 278.836 413.059 282.745 415.18 286.36C417.46 290.27 420.51 294.06 422.98 298.58C425.643 303.316 426.739 308.773 426.11 314.17C425.54 319.75 423.64 325.25 421.82 330.83C420 336.41 418.35 341.96 418.14 347.48C418.058 352.794 418.776 358.09 420.27 363.19C421.59 368.1 423.21 372.67 424.61 376.99C425.982 380.978 427.084 385.054 427.91 389.19C429.44 396.79 429 403.19 427.86 407.38C427.434 408.987 426.858 410.551 426.14 412.05L425.54 413.19C425.48 413.321 425.406 413.445 425.32 413.56V413.56Z" fill="#263238"/>
<path d="M417.86 290.49C417.86 290.49 413.24 275.7 421.54 267.04C421.603 266.969 421.684 266.916 421.775 266.89C421.866 266.863 421.963 266.862 422.054 266.889C422.146 266.915 422.228 266.967 422.291 267.038C422.354 267.109 422.395 267.196 422.41 267.29C422.86 269.73 423.41 277.18 417.86 290.49Z" fill="black"/>
<path d="M420.63 272C420.622 272.915 420.518 273.827 420.32 274.72C420.02 276.61 419.66 278.81 419.27 281.25L418.27 287.78C418.195 288.694 418.031 289.598 417.78 290.48C417.698 289.563 417.725 288.64 417.86 287.73C418.02 286.04 418.32 283.73 418.73 281.16C419.14 278.59 419.6 276.31 419.96 274.65C420.088 273.745 420.313 272.857 420.63 272Z" fill="#263238"/>
<path d="M423.3 325.39C423.3 325.39 426.13 310.15 437.52 306.39C437.61 306.359 437.706 306.354 437.798 306.375C437.891 306.396 437.975 306.443 438.043 306.509C438.11 306.576 438.158 306.659 438.18 306.751C438.203 306.843 438.199 306.94 438.17 307.03C437.42 309.38 434.43 316.21 423.3 325.39Z" fill="black"/>
<path d="M434.41 310.31C433.975 311.119 433.455 311.88 432.86 312.58L428.86 317.85L424.86 323.13C424.361 323.901 423.792 324.624 423.16 325.29C423.521 324.444 423.977 323.642 424.52 322.9C425.45 321.48 426.8 319.56 428.36 317.5C429.92 315.44 431.36 313.62 432.49 312.32C433.054 311.581 433.698 310.907 434.41 310.31V310.31Z" fill="#263238"/>
<path d="M420.22 363.63C420.22 363.63 418.5 348.22 428.3 341.3C428.378 341.245 428.469 341.213 428.563 341.206C428.658 341.199 428.753 341.219 428.837 341.262C428.922 341.305 428.993 341.371 429.042 341.451C429.092 341.532 429.119 341.625 429.12 341.72C429.09 344.2 428.21 351.61 420.22 363.63Z" fill="black"/>
<path d="M426.48 346C426.288 346.898 426.01 347.775 425.65 348.62L423.37 354.82C422.52 357.14 421.76 359.24 421.11 361.03C420.854 361.911 420.519 362.768 420.11 363.59C420.208 362.676 420.413 361.776 420.72 360.91C421.19 359.27 421.93 357.05 422.82 354.62C423.71 352.19 424.6 350.02 425.27 348.47C425.575 347.602 425.982 346.773 426.48 346V346Z" fill="#263238"/>
<path d="M428.8 402.09C428.8 402.09 427.63 386.63 437.67 380.09C437.748 380.036 437.839 380.005 437.934 380C438.029 379.995 438.123 380.017 438.206 380.062C438.289 380.108 438.358 380.176 438.405 380.259C438.451 380.341 438.474 380.435 438.47 380.53C438.35 383 437.21 390.37 428.8 402.09Z" fill="black"/>
<path d="M435.68 384.67C435.465 385.56 435.157 386.425 434.76 387.25C434.04 389.02 433.2 391.09 432.26 393.37C431.32 395.65 430.49 397.73 429.78 399.5C429.491 400.37 429.126 401.213 428.69 402.02C428.814 401.108 429.049 400.215 429.39 399.36C429.92 397.74 430.74 395.55 431.72 393.15C432.7 390.75 433.66 388.62 434.39 387.09C434.726 386.237 435.159 385.425 435.68 384.67V384.67Z" fill="#263238"/>
<path d="M411.21 277.49C411.21 277.49 397.47 270.32 397.21 258.32C397.206 258.225 397.229 258.131 397.275 258.049C397.322 257.966 397.391 257.898 397.474 257.852C397.557 257.807 397.651 257.785 397.746 257.79C397.841 257.795 397.932 257.826 398.01 257.88C400.05 259.29 405.7 264.16 411.21 277.49Z" fill="black"/>
<path d="M400.06 262.44C400.696 263.102 401.269 263.821 401.77 264.59C402.88 266.14 404.19 267.95 405.64 269.95L409.53 275.29C410.123 275.99 410.645 276.747 411.09 277.55C410.388 276.958 409.757 276.287 409.21 275.55C408.12 274.24 406.68 272.39 405.21 270.29C403.74 268.19 402.39 266.29 401.47 264.83C400.906 264.093 400.433 263.29 400.06 262.44V262.44Z" fill="#263238"/>
<path d="M426 309.27C426 309.27 411.85 302.94 410.85 290.99C410.84 290.896 410.857 290.801 410.898 290.715C410.939 290.63 411.004 290.558 411.083 290.507C411.163 290.456 411.256 290.428 411.351 290.427C411.446 290.426 411.539 290.451 411.62 290.5C413.72 291.78 419.66 296.29 426 309.27Z" fill="black"/>
<path d="M413.92 294.93C414.599 295.533 415.215 296.203 415.76 296.93L419.95 302.04L424.15 307.13C424.784 307.795 425.353 308.518 425.85 309.29C425.114 308.742 424.443 308.111 423.85 307.41C422.68 306.17 421.14 304.41 419.5 302.41C417.86 300.41 416.44 298.56 415.43 297.19C414.844 296.495 414.338 295.737 413.92 294.93V294.93Z" fill="#263238"/>
<path d="M417.83 344.71C417.83 344.71 408.11 332.63 412.67 321.54C412.704 321.451 412.761 321.373 412.837 321.315C412.912 321.257 413.002 321.222 413.097 321.212C413.192 321.203 413.287 321.22 413.372 321.262C413.458 321.304 413.53 321.369 413.58 321.45C414.88 323.56 418.12 330.29 417.83 344.71Z" fill="black"/>
<path d="M413.63 326.45C413.956 327.31 414.194 328.201 414.34 329.11C414.74 330.97 415.22 333.16 415.74 335.57L417.16 342.02C417.421 342.898 417.601 343.799 417.7 344.71C417.281 343.89 416.968 343.019 416.77 342.12C416.29 340.49 415.77 338.22 415.18 335.69C414.59 333.16 414.18 330.86 413.94 329.19C413.736 328.291 413.632 327.372 413.63 326.45V326.45Z" fill="#263238"/>
<path d="M427.45 386.42C427.45 386.42 413.45 379.86 412.61 367.89C412.601 367.795 412.619 367.699 412.661 367.614C412.704 367.529 412.769 367.457 412.85 367.407C412.932 367.357 413.025 367.331 413.121 367.331C413.216 367.332 413.309 367.359 413.39 367.41C415.49 368.73 421.36 373.34 427.45 386.42Z" fill="black"/>
<path d="M415.64 371.88C416.316 372.503 416.923 373.197 417.45 373.95L421.55 379.13L425.67 384.3C426.293 384.971 426.849 385.701 427.33 386.48C426.589 385.922 425.918 385.277 425.33 384.56C424.19 383.31 422.67 381.56 421.07 379.49C419.47 377.42 418.07 375.58 417.07 374.2C416.512 373.48 416.033 372.702 415.64 371.88V371.88Z" fill="#263238"/>
<path d="M455.42 325.47C455.42 325.47 455.42 325.59 455.42 325.82C455.42 326.05 455.42 326.41 455.42 326.82C455.37 327.75 455.32 329.01 455.25 330.57C455.07 333.88 454.82 338.49 454.51 344C453.51 349.61 450.65 355.83 446.81 361.86C444 366.31 441.05 370.35 438.5 374.11C436.191 377.397 434.109 380.839 432.27 384.41C431.07 386.835 430.096 389.366 429.36 391.97C429.11 392.9 428.92 393.62 428.82 394.11C428.775 394.366 428.704 394.617 428.61 394.86C428.613 394.601 428.643 394.343 428.7 394.09C428.77 393.59 428.92 392.86 429.14 391.92C429.794 389.272 430.719 386.698 431.9 384.24C433.697 380.621 435.756 377.139 438.06 373.82C440.59 370.03 443.52 365.98 446.32 361.56C450.14 355.56 452.98 349.43 454.02 343.91C454.41 338.4 454.73 333.8 454.96 330.5C455.087 328.933 455.187 327.683 455.26 326.75C455.26 326.35 455.34 326.03 455.36 325.75C455.372 325.655 455.392 325.561 455.42 325.47V325.47Z" fill="#263238"/>
<path d="M447.06 360.73C447.06 360.73 453 346.41 445.53 337C445.473 336.924 445.395 336.865 445.307 336.83C445.218 336.796 445.121 336.787 445.027 336.804C444.933 336.822 444.846 336.866 444.776 336.93C444.706 336.995 444.655 337.078 444.63 337.17C444 339.6 442.74 347 447.06 360.73Z" fill="black"/>
<path d="M446 342C446.258 342.883 446.416 343.792 446.47 344.71C446.68 346.39 446.92 348.71 447.1 351.3C447.28 353.89 447.37 356.22 447.37 357.92C447.425 358.836 447.371 359.756 447.21 360.66C447.036 359.761 446.952 358.846 446.96 357.93C446.84 356.03 446.69 353.8 446.52 351.34C446.35 348.88 446.19 346.64 446.06 344.74C445.949 343.831 445.929 342.913 446 342V342Z" fill="#263238"/>
<g opacity="0.3">
<path d="M447.06 360.73C447.06 360.73 453 346.41 445.53 337C445.473 336.924 445.395 336.865 445.307 336.83C445.218 336.796 445.121 336.787 445.027 336.804C444.933 336.822 444.846 336.866 444.776 336.93C444.706 336.995 444.655 337.078 444.63 337.17C444 339.6 442.74 347 447.06 360.73Z" fill="black"/>
</g>
<path d="M428.64 395.23C428.64 395.23 433.41 380.48 425.19 371.74C425.127 371.669 425.045 371.618 424.955 371.591C424.864 371.564 424.767 371.563 424.676 371.588C424.585 371.613 424.502 371.663 424.437 371.732C424.373 371.801 424.329 371.887 424.31 371.98C423.84 374.42 423.22 381.86 428.64 395.23Z" fill="black"/>
<path d="M426 376.68C426.334 377.536 426.565 378.429 426.69 379.34C427.04 381 427.46 383.34 427.86 385.86C428.26 388.38 428.53 390.74 428.66 392.43C428.796 393.34 428.817 394.264 428.72 395.18C428.483 394.296 428.329 393.392 428.26 392.48C427.98 390.6 427.65 388.39 427.26 385.94C426.87 383.49 426.56 381.29 426.26 379.41C426.084 378.511 425.997 377.596 426 376.68V376.68Z" fill="#263238"/>
<g opacity="0.3">
<path d="M428.64 395.23C428.64 395.23 433.41 380.48 425.19 371.74C425.127 371.669 425.045 371.618 424.955 371.591C424.864 371.564 424.767 371.563 424.676 371.588C424.585 371.613 424.502 371.663 424.437 371.732C424.373 371.801 424.329 371.887 424.31 371.98C423.84 374.42 423.22 381.86 428.64 395.23Z" fill="black"/>
</g>
<path d="M454.64 343.23C454.64 343.23 467.34 334.34 466.05 322.42C466.043 322.325 466.009 322.234 465.953 322.157C465.896 322.08 465.819 322.021 465.731 321.985C465.642 321.95 465.546 321.94 465.452 321.957C465.358 321.973 465.271 322.016 465.2 322.08C463.36 323.74 458.38 329.3 454.64 343.23Z" fill="black"/>
<g opacity="0.3">
<path d="M454.64 343.23C454.64 343.23 467.34 334.34 466.05 322.42C466.043 322.325 466.009 322.234 465.953 322.157C465.896 322.08 465.819 322.021 465.731 321.985C465.642 321.95 465.546 321.94 465.452 321.957C465.358 321.973 465.271 322.016 465.2 322.08C463.36 323.74 458.38 329.3 454.64 343.23Z" fill="black"/>
</g>
<path d="M463.76 326.87C463.504 327.754 463.148 328.606 462.7 329.41C461.98 330.94 460.93 333.03 459.7 335.31C458.47 337.59 457.29 339.61 456.37 341.04C455.923 341.844 455.383 342.593 454.76 343.27C455.103 342.419 455.525 341.602 456.02 340.83L459.19 335.03C460.36 332.86 461.43 330.9 462.34 329.22C462.725 328.386 463.201 327.598 463.76 326.87V326.87Z" fill="#263238"/>
<path d="M433.76 380.61C433.76 380.61 449.08 378.22 453.18 366.94C453.214 366.851 453.222 366.755 453.204 366.662C453.185 366.569 453.142 366.483 453.077 366.413C453.013 366.344 452.93 366.293 452.839 366.268C452.748 366.243 452.651 366.243 452.56 366.27C450.18 367 443.26 369.74 433.76 380.61Z" fill="black"/>
<g opacity="0.3">
<path d="M433.76 380.61C433.76 380.61 449.08 378.22 453.18 366.94C453.214 366.851 453.222 366.755 453.204 366.662C453.185 366.569 453.142 366.483 453.077 366.413C453.013 366.344 452.93 366.293 452.839 366.268C452.748 366.243 452.651 366.243 452.56 366.27C450.18 367 443.26 369.74 433.76 380.61Z" fill="black"/>
</g>
<path d="M449.16 369.93C448.54 370.609 447.846 371.216 447.09 371.74C445.77 372.8 443.9 374.22 441.79 375.74C439.68 377.26 437.74 378.54 436.29 379.42C435.538 379.951 434.721 380.384 433.86 380.71C434.543 380.102 435.28 379.557 436.06 379.08L441.46 375.27L446.85 371.44C447.568 370.861 448.342 370.355 449.16 369.93V369.93Z" fill="#263238"/>
<path d="M419.15 408.79L414.68 438.87H442.52L438.92 408.79H419.15Z" fill="#455A64"/>
<path d="M440 418.11C436.264 418.399 432.516 418.496 428.77 418.4C425.024 418.496 421.276 418.399 417.54 418.11C421.276 417.82 425.024 417.724 428.77 417.82C432.516 417.724 436.264 417.82 440 418.11V418.11Z" fill="#263238"/>
<path d="M440.58 420.51C440.58 420.67 435.39 420.8 428.98 420.8C422.57 420.8 417.39 420.67 417.39 420.51C417.39 420.35 422.58 420.22 428.98 420.22C435.38 420.22 440.58 420.35 440.58 420.51Z" fill="#263238"/>
<path d="M428.74 478.24C431.27 462.51 428.88 445.84 421.01 431.99C413.14 418.14 399.62 407.37 384.08 403.86C368.54 400.35 351.22 404.54 339.72 415.57C326.63 414.09 313.15 414.25 300.57 418.14C287.99 422.03 276.31 430 269.75 441.39C263.19 452.78 262.44 467.86 269.49 478.99L428.74 478.24Z" fill="black"/>
<path d="M377.05 402.65C377.05 402.77 375.24 402.71 372.44 403.41L371.35 403.7L370.19 404.11C369.343 404.399 368.512 404.732 367.7 405.11C365.854 406.029 364.106 407.132 362.48 408.4C360.872 409.7 359.392 411.15 358.06 412.73C357.5 413.5 356.9 414.18 356.46 414.91L355.79 415.91L355.25 416.91C353.88 419.45 353.47 421.22 353.36 421.18C353.417 420.762 353.514 420.35 353.65 419.95C353.7 419.74 353.76 419.53 353.83 419.29L354.12 418.54C354.346 417.923 354.614 417.322 354.92 416.74L355.44 415.74C355.66 415.4 355.88 415.05 356.1 414.68C356.53 413.93 357.1 413.23 357.69 412.44C359.023 410.814 360.518 409.326 362.15 408C363.809 406.709 365.599 405.597 367.49 404.68C368.325 404.303 369.18 403.969 370.05 403.68L371.24 403.29L372.36 403.03C372.999 402.877 373.647 402.767 374.3 402.7L375.11 402.6H375.79C376.211 402.568 376.633 402.584 377.05 402.65V402.65Z" fill="#FAFAFA"/>
<path d="M337.44 420.29C337.361 420.304 337.279 420.304 337.2 420.29L336.52 420.36C335.91 420.44 335.01 420.47 333.87 420.63C330.63 421.019 327.424 421.654 324.28 422.53C322.112 423.133 319.976 423.844 317.88 424.66C315.485 425.612 313.147 426.704 310.88 427.93C305.67 430.744 300.886 434.282 296.67 438.44C294.498 440.598 292.471 442.896 290.6 445.32C288.884 447.597 287.311 449.978 285.89 452.45C281.882 459.509 279.341 467.305 278.42 475.37C278.26 476.51 278.23 477.37 278.16 478.02C278.16 478.3 278.16 478.52 278.09 478.71C278.1 478.786 278.1 478.864 278.09 478.94C278.079 478.864 278.079 478.786 278.09 478.71C278.09 478.52 278.09 478.29 278.09 478.01C278.09 477.4 278.09 476.5 278.25 475.35C278.536 472.085 279.115 468.852 279.98 465.69C281.254 460.988 283.108 456.463 285.5 452.22C286.918 449.716 288.498 447.308 290.23 445.01C292.105 442.562 294.143 440.244 296.33 438.07C300.579 433.876 305.412 430.319 310.68 427.51C312.973 426.284 315.337 425.195 317.76 424.25C319.877 423.448 322.033 422.754 324.22 422.17C327.39 421.323 330.624 420.741 333.89 420.43C335.04 420.3 335.89 420.3 336.55 420.26H337.24C337.308 420.262 337.375 420.272 337.44 420.29V420.29Z" fill="#FAFAFA"/>
<path d="M382.88 408.91C382.624 408.936 382.366 408.936 382.11 408.91C381.6 408.91 380.85 408.86 379.89 408.91C377.179 409.03 374.493 409.476 371.89 410.24C368.021 411.357 364.376 413.141 361.12 415.51C359.191 416.887 357.417 418.469 355.83 420.23C354.101 422.097 352.613 424.173 351.4 426.41L350.76 427.61L350.64 427.83L350.41 427.73C346.054 425.783 341.274 424.978 336.52 425.39C334.458 425.568 332.418 425.946 330.43 426.52C328.709 427.041 327.036 427.71 325.43 428.52C323.088 429.706 320.924 431.214 319 433C317.66 434.26 317 435 316.95 435C317.091 434.795 317.248 434.601 317.42 434.42C317.873 433.873 318.357 433.352 318.87 432.86C320.758 431.023 322.908 429.476 325.25 428.27C326.869 427.43 328.559 426.734 330.3 426.19C332.316 425.591 334.386 425.192 336.48 425C341.319 424.554 346.192 425.36 350.63 427.34L350.29 427.46L350.95 426.24C352.177 423.964 353.689 421.853 355.45 419.96C357.066 418.18 358.873 416.583 360.84 415.2C364.15 412.818 367.858 411.043 371.79 409.96C374.429 409.225 377.151 408.832 379.89 408.79C380.89 408.79 381.61 408.85 382.12 408.86C382.374 408.848 382.629 408.865 382.88 408.91Z" fill="#263238"/>
<g opacity="0.2">
<path d="M320.47 431.53C321.331 427.974 322.9 424.629 325.084 421.694C327.268 418.76 330.021 416.296 333.18 414.45C339.47 410.95 346.75 409.56 353.94 409.25C358.36 409.05 363.1 409.34 366.67 411.96C366.67 411.96 357.33 415.31 350.51 427.54C345.667 425.169 340.232 424.282 334.887 424.992C329.542 425.702 324.526 427.977 320.47 431.53V431.53Z" fill="black"/>
</g>
<path d="M321.82 479C321.745 478.812 321.685 478.618 321.64 478.42C321.54 477.98 321.4 477.42 321.23 476.72C321.14 476.34 321.05 475.93 320.94 475.48C320.83 475.03 320.79 474.48 320.71 473.99C320.499 472.783 320.359 471.564 320.29 470.34C320.29 469.66 320.21 468.94 320.16 468.2C320.11 467.46 320.16 466.68 320.16 465.88C320.191 464.171 320.314 462.465 320.53 460.77C321.545 452.964 324.381 445.507 328.81 439L330.33 436.85C330.81 436.14 331.39 435.54 331.88 434.91C332.37 434.28 332.88 433.67 333.39 433.14L334.87 431.6C335.78 430.6 336.76 429.82 337.55 429.08C338.229 428.451 338.947 427.867 339.7 427.33L341.1 426.28C341.43 426.05 341.6 425.93 341.62 425.95C341.481 426.098 341.33 426.235 341.17 426.36L339.82 427.48C339.097 428.051 338.402 428.659 337.74 429.3C336.97 430.05 336.03 430.83 335.13 431.85L333.69 433.41C333.17 433.94 332.69 434.57 332.22 435.18C331.75 435.79 331.17 436.42 330.7 437.12L329.21 439.27C327.086 442.518 325.303 445.976 323.89 449.59C322.534 453.221 321.565 456.985 321 460.82C320.777 462.499 320.64 464.187 320.59 465.88C320.59 466.68 320.51 467.44 320.59 468.18C320.67 468.92 320.65 469.63 320.68 470.3C320.73 471.518 320.844 472.733 321.02 473.94C321.09 474.47 321.12 474.94 321.21 475.43C321.3 475.92 321.37 476.29 321.45 476.67C321.58 477.37 321.68 477.94 321.77 478.38C321.81 478.584 321.826 478.792 321.82 479Z" fill="#FAFAFA"/>
<path d="M375.11 478.49C375.11 478.49 374.94 478.38 374.64 478.12L373.34 476.99C372.79 476.49 372.1 475.89 371.34 475.12C370.58 474.35 369.71 473.53 368.86 472.5C368.01 471.47 366.99 470.4 366.06 469.13C365.59 468.5 365.06 467.87 364.6 467.18L363.16 465C361.081 461.765 359.282 458.36 357.78 454.82C355.137 448.358 353.303 441.593 352.32 434.68C351.94 432.04 351.69 429.89 351.58 428.4C351.53 427.7 351.49 427.13 351.46 426.68C351.431 426.481 351.431 426.279 351.46 426.08C351.511 426.274 351.548 426.471 351.57 426.67C351.63 427.12 351.7 427.67 351.79 428.38C351.96 429.86 352.27 432 352.7 434.63C353.786 441.488 355.655 448.198 358.27 454.63C359.761 458.141 361.534 461.525 363.57 464.75L365 466.88C365.46 467.58 366 468.21 366.43 468.88C367.35 470.15 368.31 471.24 369.16 472.27C370.01 473.3 370.88 474.13 371.58 474.92C372.28 475.71 372.96 476.33 373.49 476.85L374.72 478.05C374.864 478.184 374.994 478.331 375.11 478.49V478.49Z" fill="#FAFAFA"/>
<path d="M415.7 478.3C415.685 478.214 415.685 478.126 415.7 478.04V474.44C415.7 471.96 415.6 468.37 415.14 463.96C414.602 458.795 413.55 453.696 412 448.74C410.16 442.659 407.343 436.917 403.66 431.74C401.747 429.074 399.569 426.608 397.16 424.38C394.901 422.323 392.427 420.516 389.78 418.99C385.272 416.422 380.293 414.789 375.14 414.19C371.665 413.8 368.15 413.948 364.72 414.63L363.11 415C362.65 415.12 362.27 415.24 361.95 415.33L361.24 415.53L360.99 415.58C360.99 415.58 361.06 415.58 361.22 415.48L361.92 415.23C362.23 415.13 362.61 414.98 363.07 414.85L364.68 414.44C368.123 413.665 371.67 413.456 375.18 413.82C380.392 414.377 385.435 415.993 390 418.57C392.693 420.097 395.209 421.918 397.5 424C399.941 426.248 402.149 428.738 404.09 431.43C407.799 436.658 410.627 442.458 412.46 448.6C413.981 453.591 414.986 458.724 415.46 463.92C415.782 467.417 415.913 470.929 415.85 474.44C415.85 475.69 415.79 476.65 415.75 477.3V478.05C415.746 478.135 415.729 478.22 415.7 478.3V478.3Z" fill="#FAFAFA"/>
<path d="M260 226.68C259.27 226.35 258.615 225.875 258.073 225.284C257.532 224.693 257.116 223.998 256.851 223.242C256.585 222.486 256.476 221.684 256.529 220.884C256.582 220.085 256.797 219.304 257.16 218.59C258.29 216.59 260.56 215.38 261.28 213.23C261.679 211.588 261.492 209.858 260.75 208.34C260.004 206.838 259.437 205.254 259.06 203.62C258.888 202.798 258.953 201.943 259.249 201.157C259.545 200.371 260.058 199.685 260.73 199.18C262.73 197.98 265.31 199.38 266.87 201.11C268.49 202.948 269.635 205.155 270.205 207.538C270.775 209.921 270.753 212.408 270.14 214.78C269.59 216.83 268.6 218.73 267.97 220.78C267.21 222.78 267.21 224.99 267.97 226.99" fill="#F5F5F5"/>
<path d="M262.32 205.07C262.32 205.07 262.57 205.22 262.91 205.61C263.394 206.177 263.776 206.823 264.04 207.52C264.437 208.556 264.614 209.662 264.56 210.77C264.489 212.144 264.036 213.471 263.25 214.6C262.385 215.578 261.593 216.617 260.88 217.71C260.416 218.639 260.209 219.674 260.28 220.71C260.379 221.679 260.647 222.623 261.07 223.5C260.861 223.322 260.694 223.1 260.58 222.85C260.217 222.199 259.989 221.481 259.91 220.74C259.781 219.624 259.968 218.495 260.45 217.48C261.148 216.346 261.944 215.275 262.83 214.28C263.556 213.226 263.988 211.997 264.08 210.72C264.155 209.671 264.022 208.618 263.69 207.62C263.336 206.719 262.877 205.862 262.32 205.07V205.07Z" fill="#263238"/>
<path d="M265.89 204.68C265.89 204.68 266.14 204.83 266.49 205.23C266.964 205.798 267.343 206.44 267.61 207.13C268.008 208.169 268.185 209.279 268.13 210.39C268.059 211.761 267.605 213.084 266.82 214.21C265.958 215.19 265.166 216.229 264.45 217.32C263.987 218.249 263.779 219.284 263.85 220.32C263.949 221.289 264.217 222.233 264.64 223.11C264.64 223.11 264.41 222.92 264.15 222.47C263.789 221.815 263.561 221.094 263.48 220.35C263.351 219.234 263.538 218.105 264.02 217.09C264.72 215.957 265.517 214.887 266.4 213.89C267.128 212.84 267.559 211.614 267.65 210.34C267.73 209.291 267.597 208.237 267.26 207.24C266.905 206.336 266.445 205.477 265.89 204.68V204.68Z" fill="#263238"/>
<path d="M256.07 182.65C255.634 182.907 255.264 183.263 254.99 183.688C254.716 184.113 254.544 184.597 254.49 185.1C254.398 186.117 254.626 187.138 255.14 188.02C255.534 188.762 256.122 189.384 256.84 189.82C257.198 190.036 257.596 190.178 258.01 190.236C258.424 190.295 258.846 190.269 259.25 190.16C259.762 189.967 260.224 189.662 260.603 189.268C260.982 188.874 261.268 188.399 261.44 187.88C261.784 187.066 261.896 186.173 261.763 185.299C261.631 184.426 261.259 183.606 260.69 182.93C260.089 182.287 259.265 181.899 258.386 181.847C257.507 181.795 256.643 182.082 255.97 182.65" fill="#F5F5F5"/>
<path d="M268.84 229.34C268.84 229.25 269.14 228.98 269.84 228.73C270.862 228.4 271.947 228.308 273.01 228.46C274.634 228.683 276.157 229.379 277.39 230.46C278.462 231.402 279.27 232.608 279.735 233.957C280.2 235.307 280.305 236.754 280.041 238.157C279.777 239.559 279.152 240.869 278.227 241.957C277.303 243.044 276.112 243.873 274.77 244.36C273.762 244.737 272.681 244.881 271.61 244.78C270.86 244.7 270.48 244.51 270.49 244.42C270.49 244.15 272.15 244.42 274.34 243.34C275.583 242.731 276.645 241.807 277.42 240.66C278.31 239.248 278.696 237.575 278.514 235.916C278.333 234.256 277.595 232.707 276.42 231.52C275.416 230.567 274.177 229.898 272.83 229.58C270.46 229 268.91 229.59 268.84 229.34Z" fill="#455A64"/>
<path d="M251.92 225.61L253.48 247.27C253.539 248.08 253.905 248.837 254.504 249.385C255.102 249.934 255.888 250.232 256.7 250.22L270 250C270.832 249.987 271.626 249.647 272.209 249.054C272.793 248.461 273.12 247.662 273.12 246.83V225.61H251.92Z" fill="#455A64"/>
<path d="M240.28 239.92L252.75 233.69L259.03 233.22L265.03 232.68C265.03 232.68 265.7 234.92 261.39 236.38C257.88 237.56 254.66 238.58 254.66 238.58C254.66 238.58 255.66 244.49 252.39 247.75C250.524 249.653 248.346 251.222 245.95 252.39L240.28 239.92Z" fill="#FFBE9D"/>
<path d="M40.29 197.53L61.29 392.84L157.12 415.84L254.6 387.6C254.6 387.6 266.79 292.68 185 281.29C185 281.29 188.89 198.57 157.54 185.14L40.29 197.53Z" fill="black"/>
<path d="M144.31 186.54L144.81 186.76C145.296 186.99 145.767 187.251 146.22 187.54C147.972 188.667 149.535 190.064 150.85 191.68C154.37 195.84 157.85 203.12 160.36 212.68C162.87 222.24 164.74 233.97 165.87 247.25C167.051 261.885 167.441 276.573 167.04 291.25L166.82 290.99C169.27 291.35 171.82 291.62 174.27 292.07C176.72 292.52 179.27 292.99 181.78 293.74C186.894 295.035 191.86 296.855 196.6 299.17C203.173 302.367 209.155 306.659 214.29 311.86C214.89 312.52 215.48 313.18 216.08 313.86L216.97 314.86L217.79 315.86L219.43 317.92C219.93 318.64 220.43 319.36 220.92 320.07C221.92 321.47 222.76 323 223.66 324.45L224.85 326.71L225.44 327.84L225.97 328.99C228.698 334.898 230.641 341.138 231.75 347.55C232.285 350.56 232.649 353.599 232.84 356.65C233.035 359.563 233.035 362.487 232.84 365.4V365.55H232.69L189.29 376.55L177.2 379.55L174.03 380.33C173.31 380.5 172.93 380.57 172.93 380.57L174.01 380.26L177.17 379.42L189.23 376.27L232.59 365.07L232.43 365.26C232.62 362.37 232.62 359.47 232.43 356.58C232.236 353.545 231.868 350.523 231.33 347.53C230.221 341.161 228.281 334.965 225.56 329.1L225 328L224.41 326.88L223.22 324.64C222.32 323.2 221.52 321.64 220.5 320.29L219 318.16L217.38 316.11L216.56 315.11L215.68 314.11L213.9 312.16C208.805 307.003 202.87 302.749 196.35 299.58C191.642 297.279 186.709 295.47 181.63 294.18C179.16 293.44 176.63 293.05 174.16 292.52C171.69 291.99 169.16 291.8 166.74 291.43H166.51V291.2C166.918 276.557 166.548 261.903 165.4 247.3C164.3 234.03 162.53 222.3 160.01 212.78C157.49 203.26 154.14 195.99 150.68 191.78C149.386 190.166 147.855 188.757 146.14 187.6C145.694 187.307 145.234 187.036 144.76 186.79L144.31 186.54Z" fill="#263238"/>
<path d="M170.76 357.77C170.825 357.944 170.865 358.125 170.88 358.31C170.94 358.72 171.02 359.23 171.12 359.86C171.33 361.21 171.57 363.17 171.84 365.6C172.36 370.45 172.84 377.18 173.06 384.6C173.28 392.02 173.16 398.8 173.06 403.68C172.99 406.06 172.93 408.01 172.88 409.45C172.88 410.09 172.82 410.61 172.8 411.02C172.806 411.205 172.785 411.39 172.74 411.57C172.716 411.387 172.716 411.203 172.74 411.02C172.74 410.6 172.74 410.08 172.74 409.45C172.74 408.01 172.74 406.05 172.74 403.67C172.74 398.79 172.8 392.06 172.6 384.62C172.4 377.18 171.96 370.46 171.53 365.62C171.31 363.25 171.12 361.31 170.98 359.88C170.92 359.24 170.87 358.73 170.84 358.31C170.79 358.134 170.763 357.953 170.76 357.77V357.77Z" fill="#263238"/>
<path d="M185.66 280.54C184.728 281.054 183.767 281.511 182.78 281.91C181 282.72 178.56 283.91 175.92 285.3C173.28 286.69 170.97 288.12 169.31 289.16C168.435 289.763 167.523 290.31 166.58 290.8C167.355 290.069 168.199 289.416 169.1 288.85C171.219 287.397 173.415 286.062 175.68 284.85C177.949 283.625 180.286 282.53 182.68 281.57C183.635 281.124 184.634 280.779 185.66 280.54V280.54Z" fill="#263238"/>
<path d="M95.36 243.62C95.264 243.437 95.1933 243.242 95.15 243.04C95.02 242.6 94.85 242.04 94.65 241.35C94.2 239.81 93.59 237.69 92.85 235.1C90.9525 228.223 88.3626 221.555 85.12 215.2C81.8231 208.875 77.1851 203.347 71.53 199C69.8001 197.71 67.9596 196.576 66.03 195.61C64.66 194.93 63.87 194.61 63.89 194.61C64.0917 194.657 64.289 194.72 64.48 194.8C64.85 194.96 65.42 195.14 66.11 195.48C68.0964 196.375 69.9862 197.471 71.75 198.75C74.3687 200.643 76.7581 202.835 78.87 205.28C81.4554 208.265 83.7055 211.525 85.58 215C88.8457 221.367 91.401 228.074 93.2 235C93.93 237.65 94.48 239.8 94.84 241.29C95.01 242 95.15 242.57 95.25 243.01C95.311 243.208 95.3479 243.413 95.36 243.62V243.62Z" fill="#263238"/>
<path d="M103.62 194.78L107.71 242.17L131.45 240.28C131.6 237.51 131.45 226.78 131.45 226.78C131.45 226.78 141.32 225.25 141.45 215.37C141.51 210.58 140.82 200.67 140.1 191.74C139.706 186.977 137.462 182.557 133.849 179.428C130.236 176.299 125.541 174.709 120.77 175V175C118.335 175.144 115.953 175.773 113.765 176.851C111.576 177.929 109.626 179.434 108.028 181.277C106.43 183.12 105.216 185.264 104.459 187.583C103.702 189.902 103.417 192.349 103.62 194.78V194.78Z" fill="#FFBE9D"/>
<path d="M131.41 226.64C126.854 226.733 122.373 225.466 118.54 223C118.54 223 121.54 230.11 131.44 229.22L131.41 226.64Z" fill="#EB996E"/>
<path d="M137.63 198.3C137.635 198.668 137.496 199.023 137.241 199.289C136.987 199.555 136.638 199.71 136.27 199.72C136.09 199.736 135.909 199.716 135.738 199.66C135.567 199.605 135.408 199.515 135.273 199.396C135.137 199.277 135.027 199.132 134.949 198.969C134.871 198.807 134.827 198.63 134.82 198.45C134.817 198.083 134.958 197.729 135.212 197.464C135.466 197.199 135.813 197.043 136.18 197.03C136.359 197.016 136.539 197.039 136.709 197.095C136.879 197.152 137.037 197.242 137.172 197.361C137.307 197.479 137.417 197.623 137.495 197.784C137.574 197.945 137.62 198.121 137.63 198.3V198.3Z" fill="#263238"/>
<path d="M137.94 196.72C137.76 196.9 136.7 196.11 135.18 196.11C133.66 196.11 132.55 196.88 132.38 196.69C132.21 196.5 132.48 196.28 132.97 195.92C133.625 195.467 134.404 195.226 135.2 195.23C135.989 195.232 136.758 195.481 137.4 195.94C137.87 196.3 138 196.63 137.94 196.72Z" fill="#263238"/>
<path d="M122.77 198.66C122.773 199.027 122.632 199.381 122.378 199.646C122.124 199.911 121.777 200.067 121.41 200.08C121.231 200.095 121.05 200.074 120.879 200.018C120.709 199.961 120.551 199.871 120.416 199.753C120.28 199.634 120.17 199.49 120.092 199.328C120.014 199.166 119.969 198.99 119.96 198.81C119.955 198.444 120.093 198.09 120.345 197.825C120.598 197.559 120.944 197.403 121.31 197.39C121.49 197.374 121.672 197.394 121.844 197.449C122.016 197.505 122.175 197.595 122.311 197.714C122.447 197.832 122.558 197.977 122.637 198.14C122.716 198.303 122.761 198.479 122.77 198.66Z" fill="#263238"/>
<path d="M123 197C122.83 197.18 121.76 196.39 120.24 196.4C118.72 196.41 117.61 197.16 117.45 196.97C117.29 196.78 117.54 196.56 118.03 196.21C118.684 195.748 119.469 195.506 120.27 195.52C121.058 195.513 121.826 195.762 122.46 196.23C123 196.58 123.11 196.92 123 197Z" fill="#263238"/>
<path d="M128.53 208.25C129.329 208.004 130.155 207.856 130.99 207.81C131.38 207.81 131.75 207.69 131.81 207.43C131.841 207.029 131.75 206.629 131.55 206.28L130.41 203.33C128.82 199.13 127.67 195.67 127.84 195.61C128.01 195.55 129.43 198.9 131.02 203.1C131.41 204.1 131.77 205.1 132.12 206.1C132.366 206.567 132.437 207.106 132.32 207.62C132.263 207.755 132.177 207.877 132.069 207.975C131.96 208.074 131.83 208.147 131.69 208.19C131.474 208.246 131.253 208.276 131.03 208.28C130.199 208.378 129.359 208.368 128.53 208.25V208.25Z" fill="#263238"/>
<path d="M124.06 209.3C124.31 209.3 124.31 210.94 125.72 212.1C127.13 213.26 128.89 213.1 128.9 213.32C128.91 213.54 128.51 213.64 127.77 213.66C126.806 213.676 125.867 213.35 125.12 212.74C124.403 212.152 123.941 211.31 123.83 210.39C123.77 209.7 124 209.29 124.06 209.3Z" fill="#263238"/>
<path d="M123.41 191.05C123.26 191.46 121.75 191.27 119.97 191.48C118.19 191.69 116.75 192.18 116.51 191.81C116.41 191.64 116.66 191.25 117.24 190.81C118.009 190.309 118.887 190.001 119.8 189.91C120.713 189.801 121.638 189.911 122.5 190.23C123.15 190.53 123.48 190.86 123.41 191.05Z" fill="#263238"/>
<path d="M137.38 192.32C137.11 192.67 136.07 192.32 134.81 192.32C133.55 192.32 132.49 192.56 132.24 192.19C132.14 192.02 132.3 191.67 132.77 191.35C133.394 190.955 134.122 190.756 134.86 190.779C135.598 190.803 136.312 191.047 136.91 191.48C137.35 191.8 137.5 192.16 137.38 192.32Z" fill="#263238"/>
<path d="M114.35 184H114.29C112.724 185.237 111.69 187.026 111.4 189V189.2C111.01 192.01 111.08 194.88 110.67 197.69C110.397 200.544 109.176 203.223 107.2 205.3C106.34 206.1 104.83 206.65 104.13 205.71C103.893 205.322 103.771 204.875 103.78 204.42C103.25 197.62 101.39 191.59 101.4 184.48C101.398 183.527 101.623 182.588 102.056 181.739C102.489 180.891 103.117 180.157 103.89 179.6C105.38 178.53 107.2 177.42 108.89 178.21C110.58 179 112.69 182.09 113.98 183.4" fill="#263238"/>
<path d="M107 199.25C106.84 199.17 100.22 197.25 100.43 203.99C100.64 210.73 107.43 209.13 107.43 208.94C107.43 208.75 107 199.25 107 199.25Z" fill="#FFBE9D"/>
<path d="M105.2 206.45C105.2 206.45 105.08 206.53 104.88 206.63C104.746 206.696 104.599 206.734 104.45 206.742C104.301 206.751 104.151 206.73 104.01 206.68C103.564 206.418 103.197 206.042 102.945 205.59C102.694 205.138 102.568 204.627 102.58 204.11C102.543 203.53 102.636 202.95 102.85 202.41C102.908 202.197 103.016 202.002 103.166 201.84C103.316 201.678 103.502 201.554 103.71 201.48C103.843 201.443 103.985 201.453 104.113 201.507C104.24 201.562 104.345 201.658 104.41 201.78C104.51 201.97 104.47 202.11 104.51 202.12C104.55 202.13 104.65 202 104.58 201.72C104.541 201.553 104.441 201.407 104.3 201.31C104.208 201.241 104.103 201.193 103.991 201.167C103.879 201.141 103.763 201.139 103.65 201.16C103.375 201.223 103.12 201.355 102.91 201.544C102.7 201.733 102.542 201.973 102.45 202.24C102.18 202.835 102.063 203.488 102.11 204.14C102.088 204.742 102.248 205.337 102.569 205.848C102.89 206.358 103.357 206.759 103.91 207C104.093 207.048 104.285 207.054 104.471 207.015C104.656 206.977 104.831 206.897 104.98 206.78C105.19 206.61 105.22 206.46 105.2 206.45Z" fill="#EB996E"/>
<path d="M108.61 179.27C106.94 176.57 111.5 172.69 114.83 171.64C118.16 170.59 122.55 172.22 125.83 173.32C127.92 174.01 130 174.98 132.21 174.89C133.682 174.739 135.125 174.372 136.49 173.8C137.852 173.22 139.319 172.927 140.8 172.94C141.542 172.959 142.266 173.179 142.893 173.577C143.52 173.975 144.027 174.536 144.36 175.2C144.501 175.536 144.567 175.899 144.555 176.263C144.543 176.627 144.453 176.985 144.291 177.311C144.129 177.637 143.898 177.925 143.615 178.154C143.332 178.383 143.003 178.549 142.65 178.64C143.12 178.381 143.646 178.24 144.183 178.228C144.719 178.217 145.251 178.336 145.732 178.575C146.212 178.814 146.628 179.166 146.942 179.601C147.257 180.036 147.462 180.541 147.539 181.072C147.615 181.603 147.562 182.145 147.384 182.652C147.205 183.158 146.907 183.613 146.514 183.979C146.12 184.344 145.645 184.609 145.127 184.75C144.609 184.892 144.064 184.905 143.54 184.79C144.54 184.06 145.97 185.26 145.85 186.46C145.717 187.049 145.434 187.594 145.03 188.042C144.625 188.491 144.112 188.827 143.54 189.02C140.72 190.25 137.44 189.86 134.54 188.88C131.64 187.9 128.92 186.37 126.03 185.32C123.14 184.27 118.31 182.37 115.41 183.4C113.27 184.15 111.79 186.72 110.58 186.15C110.016 185.849 109.529 185.422 109.158 184.901C108.786 184.381 108.541 183.781 108.44 183.15C108.277 181.868 108.324 180.567 108.58 179.3" fill="#263238"/>
<path d="M143.51 178.46C143.45 178.46 143.16 178.96 142.43 179.74C141.398 180.843 140.11 181.674 138.68 182.16C136.582 182.919 134.27 182.826 132.24 181.9C129.95 180.9 127.98 178.81 125.72 176.9C123.623 174.937 120.974 173.666 118.13 173.26C116.956 173.118 115.765 173.245 114.648 173.631C113.53 174.017 112.515 174.653 111.68 175.49C111.142 176.077 110.729 176.767 110.466 177.518C110.203 178.269 110.095 179.066 110.15 179.86C110.189 180.285 110.286 180.702 110.44 181.1C110.49 181.242 110.565 181.374 110.66 181.49C110.535 180.947 110.451 180.396 110.41 179.84C110.408 178.348 110.985 176.914 112.02 175.84C112.813 175.091 113.763 174.527 114.801 174.19C115.838 173.852 116.938 173.75 118.02 173.89C120.727 174.319 123.243 175.553 125.24 177.43C127.46 179.33 129.48 181.43 131.94 182.51C133.752 183.279 135.763 183.448 137.678 182.991C139.593 182.534 141.311 181.475 142.58 179.97C142.851 179.643 143.086 179.288 143.28 178.91C143.47 178.61 143.53 178.47 143.51 178.46Z" fill="#455A64"/>
<path d="M105.23 199C105.23 199 105.53 198.82 105.78 198.28C106.117 197.51 106.235 196.662 106.12 195.83C105.97 193.66 104.04 191.32 103.8 188.32C103.634 186.941 103.896 185.545 104.55 184.32C105.124 183.339 106.006 182.576 107.06 182.15C107.771 181.855 108.547 181.752 109.31 181.85C109.85 181.93 110.14 182.06 110.17 182C110.2 181.94 109.93 181.77 109.36 181.59C108.543 181.381 107.682 181.422 106.89 181.71C105.695 182.12 104.68 182.933 104.02 184.01C103.252 185.34 102.943 186.887 103.14 188.41C103.309 189.898 103.75 191.342 104.44 192.67C104.992 193.696 105.399 194.793 105.65 195.93C105.839 196.972 105.692 198.047 105.23 199V199Z" fill="#455A64"/>
<path d="M238.05 382.78L241.33 438.4H245.85L247.87 382.78H238.05Z" fill="#263238"/>
<path d="M156.25 409.69L159.52 465.31H164.04L166.06 409.69H156.25Z" fill="#263238"/>
<path d="M62.64 391.43L65.92 438.4H70.44L72.46 391.43H62.64Z" fill="#263238"/>
<path d="M106.61 233.76C106.61 233.76 89.61 244.34 87.44 252.5C87.44 252.5 84.13 259.11 87.44 270.35C90.75 281.59 137.63 331.62 137.63 331.62L177.63 316.71L159.99 285.39C159.99 285.39 155.11 239.21 153.38 236.63C147.78 228.25 127.48 231.63 127.48 231.63L106.61 233.76Z" fill="#455A64"/>
<path d="M149.5 233.26C150.42 233.82 186.89 247.75 186.89 247.75L239.94 239.21L246.85 253.91L203.16 271.32C196.654 273.928 189.514 274.513 182.67 273L157.8 267.49L149.5 233.26Z" fill="#455A64"/>
<path d="M160 286C159.914 285.494 159.864 284.983 159.85 284.47C159.8 283.47 159.68 282.05 159.52 280.29C159.2 276.77 158.52 271.94 157.63 266.61C156.74 261.28 156.11 256.41 155.88 252.87C155.76 251.1 155.69 249.67 155.69 248.68C155.647 248.168 155.647 247.652 155.69 247.14C155.791 247.644 155.844 248.156 155.85 248.67C155.91 249.67 156.04 251.08 156.2 252.84C156.53 256.36 157.2 261.19 158.1 266.53C159 271.87 159.62 276.72 159.85 280.26C159.96 282.03 160.02 283.47 160.01 284.46C160.06 284.972 160.057 285.488 160 286V286Z" fill="#263238"/>
<path d="M160 286C158.946 286.376 157.871 286.689 156.78 286.94C154.78 287.5 152.05 288.35 149.1 289.48C146.15 290.61 143.56 291.83 141.7 292.75C140.73 293.3 139.729 293.791 138.7 294.22C138.914 294.004 139.161 293.822 139.43 293.68C139.92 293.36 140.64 292.93 141.55 292.43C143.927 291.116 146.393 289.97 148.93 289C151.462 288.02 154.058 287.215 156.7 286.59C157.7 286.35 158.54 286.18 159.12 286.09C159.407 286.015 159.704 285.985 160 286V286Z" fill="#263238"/>
<path d="M160.72 287.09C158.196 288.252 155.757 289.588 153.42 291.09C151.185 292.738 149.07 294.543 147.09 296.49C147.502 295.775 148.014 295.121 148.61 294.55C149.967 293.093 151.479 291.788 153.12 290.66C154.76 289.535 156.517 288.589 158.36 287.84C159.106 287.477 159.901 287.224 160.72 287.09Z" fill="#263238"/>
<path d="M106.05 237C105.93 234.76 105.8 232.52 105.68 230.27C105.598 229.851 105.685 229.416 105.92 229.06C106.38 228.54 107.22 228.78 107.86 229.06C113.699 231.3 120.161 231.3 126 229.06C127.311 228.467 128.673 227.995 130.07 227.65C130.771 227.479 131.502 227.465 132.209 227.611C132.917 227.756 133.583 228.056 134.16 228.49C135.63 229.76 135.72 230.72 135.75 232.66C135.81 236.07 135.75 241.13 133.31 243.52C131.66 245.14 129.31 245.73 127.01 246.24C121.85 247.43 116.5 248.62 111.32 247.55C108.984 247.199 106.854 246.016 105.32 244.22C103.41 241.67 105.32 238.62 105.98 235.51" fill="#455A64"/>
<path d="M135.76 230.64C135.821 230.861 135.848 231.091 135.84 231.32C135.84 231.84 135.84 232.48 135.9 233.26C135.821 234.211 135.542 235.135 135.08 235.97C134.483 237.045 133.693 238.001 132.75 238.79C131.659 239.733 130.44 240.517 129.13 241.12C127.664 241.755 126.126 242.208 124.55 242.47C120.325 243.207 115.995 243.081 111.82 242.1C110.548 241.819 109.336 241.315 108.24 240.61C107.943 240.413 107.677 240.174 107.45 239.9C107.31 239.7 107.24 239.59 107.26 239.58C107.593 239.903 107.958 240.192 108.35 240.44C109.46 241.059 110.662 241.498 111.91 241.74C116.042 242.601 120.3 242.675 124.46 241.96C125.995 241.702 127.496 241.266 128.93 240.66C130.198 240.08 131.385 239.337 132.46 238.45C134.149 237.182 135.284 235.313 135.63 233.23V233.23C135.63 232.45 135.68 231.81 135.69 231.29C135.692 231.072 135.715 230.854 135.76 230.64V230.64Z" fill="#263238"/>
<path d="M110.08 241C109.641 240.615 109.299 240.132 109.08 239.59C108.478 238.339 108.137 236.978 108.08 235.59C108.009 234.202 108.22 232.814 108.7 231.51C108.851 230.957 109.129 230.447 109.51 230.02C108.816 231.787 108.504 233.68 108.594 235.576C108.683 237.471 109.173 239.327 110.03 241.02L110.08 241Z" fill="#263238"/>
<path d="M117 242.13C116.574 241.721 116.234 241.232 116 240.69C114.639 238.108 114.349 235.095 115.19 232.3C115.329 231.718 115.584 231.171 115.94 230.69C115.413 232.589 115.193 234.561 115.29 236.53C115.554 238.477 116.131 240.368 117 242.13Z" fill="#263238"/>
<path d="M123.92 241.41C122.031 238.134 121.259 234.333 121.72 230.58C121.88 230.58 121.83 233.09 122.45 236.07C123.07 239.05 124.07 241.35 123.92 241.41Z" fill="#263238"/>
<path d="M131.29 239.1C131.203 238.537 131.156 237.969 131.15 237.4C130.872 234.691 129.575 232.188 127.52 230.4C126.74 229.72 126.18 229.4 126.22 229.31C126.785 229.456 127.308 229.73 127.75 230.11C128.882 230.961 129.808 232.055 130.46 233.311C131.113 234.568 131.475 235.955 131.52 237.37C131.574 237.957 131.496 238.548 131.29 239.1V239.1Z" fill="#263238"/>
<path d="M98.62 242.77C98.3155 242.779 98.0269 242.908 97.8164 243.128C97.6059 243.348 97.4905 243.642 97.4951 243.947C97.4997 244.252 97.6239 244.542 97.841 244.756C98.058 244.97 98.3504 245.089 98.655 245.089C98.9596 245.089 99.252 244.97 99.469 244.756C99.686 244.542 99.8103 244.252 99.8149 243.947C99.8195 243.642 99.7041 243.348 99.4936 243.128C99.2831 242.908 98.9945 242.779 98.69 242.77" fill="#E0E0E0"/>
<path d="M106.1 284.82C105.872 284.997 105.723 285.255 105.684 285.541C105.645 285.826 105.719 286.115 105.891 286.346C106.063 286.577 106.319 286.732 106.604 286.776C106.888 286.821 107.179 286.752 107.413 286.585C107.648 286.417 107.807 286.165 107.857 285.881C107.907 285.597 107.844 285.305 107.681 285.068C107.518 284.83 107.269 284.666 106.986 284.61C106.704 284.555 106.411 284.612 106.17 284.77" fill="#E0E0E0"/>
<path d="M123.14 252.87C122.914 253.045 122.767 253.301 122.728 253.584C122.689 253.867 122.763 254.153 122.934 254.382C123.104 254.611 123.358 254.764 123.639 254.808C123.921 254.852 124.209 254.784 124.442 254.618C124.674 254.452 124.832 254.202 124.881 253.921C124.931 253.64 124.869 253.351 124.707 253.115C124.546 252.88 124.299 252.717 124.019 252.662C123.739 252.607 123.449 252.664 123.21 252.82" fill="#E0E0E0"/>
<path d="M150.56 254.91C150.256 254.919 149.967 255.048 149.756 255.268C149.546 255.488 149.431 255.782 149.435 256.087C149.44 256.392 149.564 256.682 149.781 256.896C149.998 257.11 150.29 257.229 150.595 257.229C150.9 257.229 151.192 257.11 151.409 256.896C151.626 256.682 151.75 256.392 151.755 256.087C151.76 255.782 151.644 255.488 151.434 255.268C151.223 255.048 150.935 254.919 150.63 254.91" fill="#E0E0E0"/>
<path d="M148.86 238.25C148.616 238.417 148.447 238.673 148.39 238.963C148.333 239.253 148.391 239.554 148.553 239.801C148.715 240.049 148.967 240.223 149.256 240.286C149.545 240.35 149.847 240.297 150.097 240.141C150.348 239.984 150.527 239.735 150.597 239.448C150.666 239.161 150.62 238.858 150.469 238.604C150.318 238.35 150.073 238.165 149.787 238.09C149.501 238.014 149.197 238.054 148.94 238.2" fill="#E0E0E0"/>
<path d="M164.82 245.31C164.516 245.319 164.227 245.448 164.016 245.668C163.806 245.888 163.691 246.182 163.695 246.487C163.7 246.792 163.824 247.082 164.041 247.296C164.258 247.51 164.55 247.63 164.855 247.63C165.16 247.63 165.452 247.51 165.669 247.296C165.886 247.082 166.01 246.792 166.015 246.487C166.02 246.182 165.904 245.888 165.694 245.668C165.483 245.448 165.195 245.319 164.89 245.31" fill="#E0E0E0"/>
<path d="M191.89 265.63C191.662 265.806 191.513 266.065 191.474 266.35C191.435 266.636 191.509 266.925 191.681 267.156C191.853 267.387 192.109 267.542 192.394 267.586C192.678 267.631 192.969 267.562 193.203 267.395C193.438 267.227 193.597 266.974 193.647 266.691C193.697 266.407 193.634 266.115 193.471 265.878C193.309 265.64 193.059 265.476 192.776 265.42C192.494 265.364 192.201 265.422 191.96 265.58" fill="#E0E0E0"/>
<path d="M197.5 251.48C197.214 251.489 196.943 251.61 196.746 251.818C196.549 252.025 196.441 252.301 196.445 252.587C196.45 252.873 196.567 253.146 196.771 253.346C196.974 253.547 197.249 253.66 197.535 253.66C197.821 253.66 198.096 253.547 198.3 253.346C198.503 253.146 198.62 252.873 198.625 252.587C198.63 252.301 198.521 252.025 198.324 251.818C198.127 251.61 197.856 251.489 197.57 251.48" fill="#E0E0E0"/>
<path d="M221.29 249C221.001 249.009 220.728 249.131 220.529 249.34C220.33 249.549 220.221 249.828 220.225 250.117C220.23 250.406 220.348 250.681 220.553 250.883C220.759 251.086 221.036 251.199 221.325 251.199C221.614 251.199 221.891 251.086 222.097 250.883C222.302 250.681 222.42 250.406 222.425 250.117C222.429 249.828 222.32 249.549 222.121 249.34C221.922 249.131 221.649 249.009 221.36 249" fill="#E0E0E0"/>
<path d="M236.52 251.14C236.232 251.149 235.958 251.271 235.759 251.48C235.56 251.689 235.451 251.968 235.455 252.257C235.46 252.546 235.578 252.821 235.783 253.023C235.989 253.226 236.266 253.339 236.555 253.339C236.844 253.339 237.121 253.226 237.327 253.023C237.532 252.821 237.65 252.546 237.655 252.257C237.66 251.968 237.55 251.689 237.351 251.48C237.152 251.271 236.879 251.149 236.59 251.14" fill="#E0E0E0"/>
<path d="M210.68 261.49C210.455 261.665 210.307 261.921 210.268 262.204C210.229 262.487 210.303 262.773 210.474 263.002C210.644 263.231 210.898 263.384 211.179 263.428C211.461 263.472 211.749 263.404 211.982 263.238C212.214 263.072 212.372 262.822 212.421 262.541C212.471 262.26 212.409 261.971 212.247 261.735C212.086 261.5 211.839 261.337 211.559 261.282C211.279 261.227 210.989 261.284 210.75 261.44" fill="#E0E0E0"/>
<path d="M178.37 257C178.142 257.177 177.993 257.435 177.954 257.721C177.915 258.006 177.989 258.295 178.161 258.526C178.333 258.757 178.589 258.912 178.874 258.956C179.158 259.001 179.449 258.932 179.683 258.765C179.918 258.597 180.077 258.345 180.127 258.061C180.177 257.777 180.114 257.485 179.951 257.248C179.788 257.01 179.539 256.846 179.256 256.79C178.974 256.735 178.681 256.792 178.44 256.95" fill="#E0E0E0"/>
<path d="M163.73 260.4C163.444 260.409 163.173 260.53 162.976 260.738C162.779 260.945 162.671 261.221 162.675 261.507C162.68 261.793 162.797 262.066 163.001 262.266C163.204 262.467 163.479 262.579 163.765 262.579C164.051 262.579 164.326 262.467 164.53 262.266C164.733 262.066 164.85 261.793 164.855 261.507C164.86 261.221 164.751 260.945 164.554 260.738C164.357 260.53 164.086 260.409 163.8 260.4" fill="#E0E0E0"/>
<path d="M151 275.73C150.775 275.905 150.627 276.161 150.588 276.444C150.55 276.727 150.623 277.013 150.794 277.242C150.964 277.471 151.218 277.624 151.5 277.668C151.781 277.712 152.069 277.644 152.302 277.478C152.534 277.312 152.692 277.062 152.741 276.781C152.791 276.5 152.729 276.211 152.567 275.975C152.406 275.74 152.159 275.577 151.879 275.522C151.599 275.467 151.309 275.523 151.07 275.68" fill="#E0E0E0"/>
<path d="M141.87 269.1C141.644 269.275 141.497 269.531 141.458 269.814C141.419 270.097 141.493 270.383 141.664 270.612C141.834 270.841 142.087 270.994 142.369 271.038C142.651 271.082 142.939 271.014 143.172 270.848C143.404 270.682 143.562 270.432 143.611 270.151C143.661 269.87 143.599 269.581 143.437 269.345C143.276 269.11 143.029 268.947 142.749 268.892C142.469 268.837 142.179 268.893 141.94 269.05" fill="#E0E0E0"/>
<path d="M138.46 287.12C138.235 287.295 138.087 287.551 138.048 287.834C138.01 288.117 138.083 288.403 138.254 288.632C138.424 288.861 138.678 289.014 138.96 289.058C139.241 289.102 139.529 289.034 139.762 288.868C139.994 288.702 140.152 288.452 140.201 288.171C140.251 287.89 140.189 287.601 140.027 287.365C139.866 287.13 139.619 286.967 139.339 286.912C139.059 286.857 138.769 286.914 138.53 287.07" fill="#E0E0E0"/>
<path d="M134.46 242.83C134.235 243.005 134.087 243.261 134.048 243.544C134.01 243.827 134.083 244.113 134.254 244.342C134.424 244.571 134.678 244.724 134.96 244.768C135.241 244.812 135.529 244.744 135.762 244.578C135.994 244.412 136.152 244.162 136.201 243.881C136.251 243.6 136.189 243.311 136.027 243.075C135.866 242.84 135.619 242.677 135.339 242.622C135.059 242.567 134.769 242.623 134.53 242.78" fill="#E0E0E0"/>
<path d="M123.25 283.73C123.025 283.905 122.877 284.161 122.838 284.444C122.8 284.727 122.873 285.013 123.044 285.242C123.214 285.471 123.468 285.624 123.75 285.668C124.031 285.712 124.319 285.644 124.552 285.478C124.784 285.312 124.942 285.062 124.991 284.781C125.041 284.5 124.979 284.211 124.817 283.975C124.656 283.74 124.409 283.577 124.129 283.522C123.849 283.467 123.559 283.523 123.32 283.68" fill="#E0E0E0"/>
<path d="M115.93 271.26C115.626 271.269 115.337 271.398 115.126 271.618C114.916 271.838 114.801 272.132 114.805 272.437C114.81 272.742 114.934 273.032 115.151 273.246C115.368 273.46 115.66 273.579 115.965 273.579C116.27 273.579 116.562 273.46 116.779 273.246C116.996 273.032 117.12 272.742 117.125 272.437C117.13 272.132 117.014 271.838 116.804 271.618C116.593 271.398 116.305 271.269 116 271.26" fill="#E0E0E0"/>
<path d="M149.18 306.31C149.222 306.378 149.252 306.452 149.27 306.53C149.27 306.71 149.38 306.93 149.46 307.19C149.62 307.77 149.85 308.63 150.09 309.75C150.383 311.112 150.591 312.492 150.71 313.88C150.877 315.731 150.783 317.596 150.43 319.42C150.226 320.488 149.89 321.526 149.43 322.51C148.958 323.601 148.279 324.589 147.43 325.42C146.526 326.356 145.338 326.968 144.05 327.16C142.663 327.274 141.285 326.851 140.2 325.98C139.083 325.105 138.146 324.021 137.44 322.79C136.691 321.518 136.062 320.179 135.56 318.79C134.567 315.903 133.877 312.92 133.5 309.89C132.051 299.325 131.242 288.682 131.08 278.02C131.02 273.93 131.08 270.62 131.08 268.33C131.08 267.19 131.15 266.33 131.18 265.7C131.18 265.43 131.18 265.2 131.18 265.02C131.174 264.943 131.174 264.867 131.18 264.79C131.192 264.866 131.192 264.944 131.18 265.02C131.18 265.21 131.18 265.43 131.18 265.71C131.18 266.35 131.18 267.23 131.18 268.34C131.18 270.62 131.18 273.93 131.29 278.01C131.568 288.649 132.426 299.265 133.86 309.81C134.221 312.805 134.891 315.754 135.86 318.61C136.35 319.953 136.963 321.249 137.69 322.48C138.358 323.659 139.248 324.698 140.31 325.54C140.814 325.973 141.402 326.299 142.036 326.499C142.67 326.698 143.338 326.767 144 326.7C145.19 326.53 146.291 325.971 147.13 325.11C147.946 324.32 148.602 323.38 149.06 322.34C149.514 321.384 149.849 320.377 150.06 319.34C150.429 317.552 150.547 315.721 150.41 313.9C150.314 312.521 150.137 311.148 149.88 309.79C149.67 308.67 149.48 307.79 149.35 307.22C149.29 306.95 149.25 306.73 149.21 306.55C149.17 306.37 149.18 306.32 149.18 306.31Z" fill="#E0E0E0"/>
<path d="M313.71 414.7L350.08 426.43L371.65 384C371.369 383.661 371.022 383.383 370.63 383.182C370.238 382.981 369.81 382.862 369.37 382.831C368.931 382.8 368.49 382.859 368.074 383.003C367.658 383.147 367.276 383.374 366.95 383.67L345.6 402.94L324.5 396.58L313.71 414.7Z" fill="#E0E0E0"/>
<path d="M237 339.6L244.59 369.26L289.49 368C289.82 367.992 290.144 367.912 290.44 367.765C290.736 367.618 290.995 367.408 291.2 367.149C291.406 366.89 291.551 366.59 291.627 366.268C291.703 365.947 291.708 365.613 291.64 365.29V365.29C291.562 364.909 291.386 364.555 291.13 364.263C290.874 363.97 290.547 363.749 290.18 363.62L263.08 354.08L258.61 332.51L237 339.6Z" fill="#E0E0E0"/>
<path d="M177.58 316.71C177.58 316.71 201.99 278.45 212.37 264.27C220.92 252.59 245.37 252.33 248.95 270.83C251.65 284.62 268.84 345.24 268.84 345.24L235.84 349.13L224.76 309.92C224.76 309.92 204.96 351.64 198.21 356.37C191.46 361.1 156 324.75 156 324.75L177.58 316.71Z" fill="#263238"/>
<path d="M332.81 395.54L250.06 357.63L161 322.92L134 331.62C134 331.62 147.32 364.51 151.23 369.26C155.14 374.01 185.95 377.26 185.95 377.26L239.75 388.26L322.94 421.26L332.81 395.54Z" fill="#263238"/>
<path d="M259.12 361.78C258.842 361.721 258.571 361.634 258.31 361.52L256.02 360.65L247.63 357.4L220 346.59L192.31 335.89L183.9 332.7L181.61 331.82C181.343 331.724 181.082 331.611 180.83 331.48C181.111 331.531 181.386 331.611 181.65 331.72L183.97 332.51C185.97 333.2 188.87 334.24 192.44 335.51C199.57 338.12 209.38 341.85 220.18 346.07C230.98 350.29 240.73 354.17 247.78 357.02L256.11 360.42L258.36 361.42C258.621 361.522 258.875 361.643 259.12 361.78V361.78Z" fill="#455A64"/>
<path d="M228.39 322.92C228.169 322.403 227.995 321.868 227.87 321.32C227.58 320.32 227.18 318.77 226.71 316.9C225.71 313.16 224.48 307.98 223.12 302.25C221.76 296.52 220.56 291.32 219.73 287.55C219.32 285.67 219 284.14 218.79 283.08C218.648 282.534 218.567 281.974 218.55 281.41C218.55 281.41 218.72 281.98 218.99 283.03L220.09 287.47C221.02 291.3 222.26 296.47 223.63 302.13C225 307.79 226.17 312.97 227.07 316.81C227.47 318.63 227.81 320.13 228.07 321.27C228.213 321.812 228.32 322.364 228.39 322.92V322.92Z" fill="#455A64"/>
<path d="M223.44 300.52C222.718 300.264 222.043 299.893 221.44 299.42C218.444 297.369 215.916 294.707 214.02 291.61C213.586 290.999 213.249 290.324 213.02 289.61C214.459 291.686 216.022 293.673 217.7 295.56C219.513 297.326 221.43 298.982 223.44 300.52Z" fill="#455A64"/>
<path d="M104 203.54C103.414 203.606 102.85 203.805 102.353 204.123C101.856 204.44 101.437 204.866 101.13 205.37C100.828 205.898 100.645 206.486 100.595 207.093C100.545 207.699 100.629 208.309 100.84 208.88C101.08 209.52 101.64 210.17 102.32 210.07C102.514 210.031 102.696 209.946 102.85 209.822C103.005 209.699 103.128 209.54 103.21 209.36C103.366 208.993 103.448 208.599 103.45 208.2C103.438 207.962 103.497 207.725 103.62 207.52C103.759 207.37 103.925 207.248 104.11 207.16C104.422 206.964 104.678 206.69 104.853 206.366C105.028 206.042 105.117 205.678 105.11 205.31C105.096 204.945 104.987 204.59 104.794 204.28C104.601 203.97 104.331 203.715 104.01 203.54" fill="#E0E0E0"/>
<path d="M136.78 224.65C136.815 224.745 136.845 224.842 136.87 224.94C136.93 225.16 137 225.43 137.1 225.78C137.3 226.56 137.57 227.66 137.93 229.04L139.2 234.21C139.69 236.21 140.28 238.52 140.79 241.09C141.395 243.891 141.66 246.755 141.58 249.62C141.517 252.949 140.575 256.202 138.85 259.05C137.864 260.567 136.552 261.845 135.01 262.79C133.379 263.741 131.567 264.34 129.69 264.55C127.758 264.743 125.809 264.635 123.91 264.23C121.965 263.808 120.083 263.135 118.31 262.23C114.756 260.506 111.834 257.707 109.96 254.23C108.371 250.955 107.221 247.485 106.54 243.91C105.05 237.16 103.96 231.03 103.17 225.86C102.38 220.69 101.87 216.49 101.56 213.59C101.41 212.14 101.3 211.01 101.24 210.24C101.24 209.88 101.24 209.59 101.18 209.37C101.165 209.271 101.165 209.169 101.18 209.07C101.212 209.164 101.232 209.261 101.24 209.36C101.24 209.59 101.31 209.87 101.36 210.23C101.46 211.03 101.6 212.15 101.77 213.57C102.15 216.46 102.7 220.65 103.54 225.8C104.38 230.95 105.54 237.07 107.02 243.8C107.698 247.329 108.842 250.752 110.42 253.98C112.244 257.38 115.092 260.12 118.56 261.81C120.289 262.71 122.128 263.382 124.03 263.81C125.872 264.21 127.765 264.318 129.64 264.13C131.444 263.934 133.187 263.365 134.76 262.46C136.244 261.552 137.507 260.326 138.46 258.87C140.149 256.1 141.08 252.934 141.16 249.69C141.25 246.858 141.008 244.026 140.44 241.25C139.96 238.69 139.39 236.39 138.93 234.37L137.74 229.18C137.43 227.78 137.18 226.68 137.01 225.9C136.93 225.54 136.87 225.26 136.83 225.04C136.786 224.915 136.769 224.782 136.78 224.65V224.65Z" fill="#E0E0E0"/>
<path d="M157.16 415.86C157.99 393.8 159.01 368.26 153.16 347C149.97 335.43 145.41 323.56 136.22 316C123.82 305.8 104.22 303.95 88.22 305C87.05 280.52 84.22 258.19 75.66 235.27C72.47 226.71 68.66 218.2 62.85 211.27C57.04 204.34 49.27 198.1 40.28 197.6L61.28 392.88L157.16 415.86Z" fill="black"/>
<path d="M173.23 411.2C173.84 389.09 172.17 355.09 166.3 333.84C163.1 322.27 158.54 310.4 149.36 302.84C136.95 292.63 117.36 290.78 101.36 291.84C100.2 267.36 97.36 245.03 88.81 222.11C85.62 213.55 81.81 205.05 75.99 198.11C70.17 191.17 49.25 198.11 40.26 197.58L74.68 379.78L157.13 415.91L173.23 411.2Z" fill="black"/>
<g opacity="0.4">
<path d="M157.16 415.86C157.99 393.8 159.01 368.26 153.16 347C149.97 335.43 145.41 323.56 136.22 316C123.82 305.8 104.22 303.95 88.22 305C87.05 280.52 84.22 258.19 75.66 235.27C72.47 226.71 68.66 218.2 62.85 211.27C57.04 204.34 49.27 198.1 40.28 197.6L61.28 392.88L157.16 415.86Z" fill="black"/>
</g>
<path d="M89.78 247.75C89.78 247.75 65.62 273.75 60.21 297.75C59.2231 302.143 59.6547 306.736 61.4425 310.869C63.2303 315.002 66.2824 318.461 70.16 320.75V320.75C72.6703 322.242 75.4606 323.202 78.3576 323.57C81.2545 323.938 84.1963 323.707 87 322.89L132.4 309.7L131.4 293.42L87.4 296.12L106.84 270.2L114.62 261.2L95.62 242.2L89.78 247.75Z" fill="#455A64"/>
<path d="M111.8 315.68C111.913 315.618 112.034 315.571 112.16 315.54L113.25 315.19L117.41 313.92L132.34 309.49L132.18 309.72C131.86 304.88 131.5 299.35 131.11 293.43L131.34 293.67C128.87 293.79 126.17 293.99 123.49 294.17L91.26 296.36L81.49 296.97L78.83 297.11H78.14H77.9C77.9763 297.079 78.0577 297.062 78.14 297.06L78.83 296.99L81.48 296.75L91.24 295.97C99.48 295.34 110.87 294.49 123.45 293.63C126.17 293.45 128.77 293.25 131.39 293.14H131.6V293.39C131.96 299.31 132.3 304.84 132.6 309.68V309.86H132.43L117.43 314.12L113.24 315.27L112.13 315.55C112.026 315.607 111.915 315.651 111.8 315.68V315.68Z" fill="#263238"/>
<path d="M88.18 296.61C86.3656 295.255 84.4151 294.092 82.36 293.14C80.2331 292.357 78.0316 291.795 75.79 291.46C76.4517 291.344 77.1284 291.344 77.79 291.46C79.4228 291.636 81.0221 292.043 82.54 292.67C84.0537 293.3 85.4684 294.145 86.74 295.18C87.3033 295.565 87.7913 296.05 88.18 296.61V296.61Z" fill="#263238"/>
<path d="M96.32 284.2C96.4054 284.036 96.5131 283.885 96.64 283.75L97.64 282.51C98.49 281.44 99.73 279.88 101.18 277.91C102.898 275.614 104.481 273.22 105.92 270.74C106.77 269.291 107.48 267.764 108.04 266.18C108.605 264.478 108.796 262.673 108.6 260.89C108.224 257.416 106.605 254.194 104.04 251.82C101.916 249.919 99.2994 248.654 96.49 248.17C94.5898 247.854 92.6503 247.854 90.75 248.17C89.41 248.4 88.68 248.64 88.67 248.59C88.8289 248.496 89.0007 248.425 89.18 248.38C89.6853 248.215 90.1994 248.078 90.72 247.97C92.6411 247.587 94.6148 247.546 96.55 247.85C99.4509 248.301 102.162 249.575 104.36 251.52C107.041 253.953 108.732 257.289 109.11 260.89C109.32 262.744 109.122 264.621 108.53 266.39C107.95 268.003 107.217 269.557 106.34 271.03C104.87 273.514 103.244 275.903 101.47 278.18C99.98 280.13 98.7 281.65 97.8 282.69C97.35 283.21 96.99 283.6 96.74 283.87C96.612 283.995 96.4713 284.105 96.32 284.2V284.2Z" fill="#263238"/>
<path d="M140.68 311C142.75 307.21 151.19 292.28 153.38 288.4C153.448 288.281 153.539 288.177 153.649 288.095C153.758 288.013 153.883 287.954 154.016 287.922C154.149 287.89 154.288 287.886 154.422 287.91C154.557 287.934 154.686 287.985 154.8 288.06L164.63 294.52C164.838 294.656 164.988 294.864 165.051 295.104C165.114 295.345 165.085 295.6 164.97 295.82L153.29 318.1C153.227 318.219 153.141 318.323 153.037 318.408C152.933 318.492 152.814 318.555 152.685 318.592C152.556 318.63 152.421 318.641 152.288 318.625C152.155 318.609 152.026 318.567 151.91 318.5L141.07 312.39C140.951 312.327 140.846 312.24 140.762 312.134C140.677 312.029 140.615 311.908 140.579 311.778C140.542 311.648 140.532 311.513 140.55 311.379C140.567 311.245 140.612 311.116 140.68 311Z" fill="#263238"/>
<path d="M85.2501 267.09C84.9642 267.099 84.6933 267.22 84.496 267.428C84.2986 267.635 84.1906 267.911 84.1952 268.197C84.1998 268.483 84.3167 268.756 84.5205 268.956C84.7244 269.157 84.999 269.27 85.2851 269.27C85.5711 269.27 85.8457 269.157 86.0496 268.956C86.2535 268.756 86.3703 268.483 86.3749 268.197C86.3795 267.911 86.2715 267.635 86.0742 267.428C85.8768 267.22 85.606 267.099 85.3201 267.09" fill="#E0E0E0"/>
<path d="M69.94 298.62C69.7145 298.795 69.5666 299.051 69.5281 299.334C69.4895 299.617 69.5634 299.903 69.7338 300.132C69.9042 300.361 70.1576 300.514 70.4395 300.558C70.7214 300.602 71.0094 300.534 71.2416 300.368C71.4738 300.202 71.6317 299.952 71.6814 299.671C71.7311 299.39 71.6686 299.101 71.5074 298.865C71.3461 298.63 71.099 298.467 70.819 298.412C70.539 298.357 70.2486 298.414 70.01 298.57" fill="#E0E0E0"/>
<path d="M99.41 313.12C99.1845 313.295 99.0366 313.551 98.998 313.834C98.9595 314.117 99.0333 314.403 99.2037 314.632C99.3742 314.861 99.6275 315.014 99.9095 315.058C100.191 315.102 100.479 315.034 100.712 314.868C100.944 314.702 101.102 314.452 101.151 314.171C101.201 313.89 101.139 313.601 100.977 313.365C100.816 313.13 100.569 312.967 100.289 312.912C100.009 312.857 99.7186 312.914 99.48 313.07" fill="#E0E0E0"/>
<path d="M113.67 301.08C113.445 301.255 113.297 301.511 113.258 301.794C113.219 302.077 113.293 302.363 113.464 302.592C113.634 302.821 113.888 302.974 114.169 303.018C114.451 303.062 114.739 302.994 114.972 302.828C115.204 302.662 115.362 302.412 115.411 302.131C115.461 301.85 115.399 301.561 115.237 301.325C115.076 301.09 114.829 300.927 114.549 300.872C114.269 300.817 113.979 300.873 113.74 301.03" fill="#E0E0E0"/>
<path d="M84.84 286C84.6146 286.175 84.4667 286.431 84.4281 286.714C84.3895 286.997 84.4634 287.283 84.6338 287.512C84.8042 287.741 85.0576 287.894 85.3395 287.938C85.6214 287.982 85.9094 287.914 86.1416 287.748C86.3739 287.582 86.5318 287.332 86.5814 287.051C86.6311 286.77 86.5686 286.481 86.4074 286.245C86.2461 286.01 85.999 285.847 85.719 285.792C85.4391 285.737 85.1486 285.794 84.91 285.95" fill="#E0E0E0"/>
<path d="M102.1 261.43C101.795 261.439 101.507 261.568 101.296 261.788C101.086 262.008 100.971 262.302 100.975 262.607C100.98 262.912 101.104 263.202 101.321 263.416C101.538 263.63 101.83 263.75 102.135 263.75C102.44 263.75 102.732 263.63 102.949 263.416C103.166 263.202 103.29 262.912 103.295 262.607C103.299 262.302 103.184 262.008 102.974 261.788C102.763 261.568 102.474 261.439 102.17 261.43" fill="#E0E0E0"/>
<path d="M89.06 302.17C88.8345 302.345 88.6866 302.601 88.6481 302.884C88.6095 303.167 88.6834 303.453 88.8538 303.682C89.0242 303.911 89.2776 304.064 89.5595 304.108C89.8414 304.152 90.1294 304.084 90.3616 303.918C90.5938 303.753 90.7517 303.502 90.8014 303.221C90.8511 302.94 90.7886 302.651 90.6274 302.415C90.4661 302.18 90.219 302.017 89.939 301.962C89.659 301.907 89.3686 301.964 89.13 302.12" fill="#E0E0E0"/>
<path d="M69.4301 281.41C69.1256 281.419 68.8369 281.548 68.6265 281.768C68.416 281.988 68.3006 282.282 68.3052 282.587C68.3098 282.892 68.434 283.182 68.651 283.396C68.868 283.61 69.1604 283.729 69.4651 283.729C69.7697 283.729 70.0621 283.61 70.2791 283.396C70.4961 283.182 70.6203 282.892 70.6249 282.587C70.6295 282.282 70.5141 281.988 70.3037 281.768C70.0932 281.548 69.8045 281.419 69.5001 281.41" fill="#E0E0E0"/>
<path d="M75.79 317.43C75.5645 317.605 75.4166 317.861 75.378 318.144C75.3395 318.427 75.4133 318.713 75.5838 318.942C75.7542 319.171 76.0075 319.324 76.2895 319.368C76.5714 319.412 76.8594 319.344 77.0916 319.178C77.3238 319.013 77.4817 318.762 77.5314 318.481C77.5811 318.2 77.5186 317.911 77.3573 317.675C77.1961 317.44 76.949 317.277 76.669 317.222C76.389 317.167 76.0986 317.224 75.86 317.38" fill="#E0E0E0"/>
<path d="M157.63 294C157.919 294.016 158.19 294.143 158.386 294.356C158.582 294.569 158.687 294.849 158.68 295.138C158.672 295.427 158.551 295.702 158.344 295.904C158.137 296.106 157.859 296.218 157.57 296.218C157.281 296.218 157.003 296.106 156.796 295.904C156.589 295.702 156.468 295.427 156.46 295.138C156.453 294.849 156.558 294.569 156.754 294.356C156.95 294.143 157.221 294.016 157.51 294" fill="#E0E0E0"/>
<path d="M131.87 294.84H149.76L160.41 304.55L154.37 317.43L142.42 307.9L132.61 307.97L131.87 294.84Z" fill="#FFBE9D"/>
<path d="M160.4 304.55L161.11 308.25C161.213 308.797 161.151 309.361 160.932 309.872C160.713 310.384 160.347 310.818 159.88 311.12L158.88 311.79L159.02 312.69C159.102 313.194 159.02 313.711 158.786 314.165C158.552 314.619 158.178 314.985 157.72 315.21L156.72 315.68C156.677 315.947 156.583 316.204 156.441 316.434C156.299 316.665 156.114 316.865 155.894 317.024C155.675 317.183 155.427 317.297 155.164 317.36C154.9 317.423 154.627 317.433 154.36 317.39V317.39L153.9 311.7L160.4 304.55Z" fill="#FFBE9D"/>
<path d="M159 313.06C158.675 312.043 158.46 310.993 158.36 309.93C158.092 308.896 157.934 307.837 157.89 306.77C158.446 307.707 158.787 308.755 158.89 309.84C159.154 310.894 159.191 311.991 159 313.06V313.06Z" fill="#EB996E"/>
<path d="M156.69 315.94C156.54 315.94 156.32 315.08 156.07 314.01C155.841 313.369 155.739 312.69 155.77 312.01C155.91 311.96 156.32 312.79 156.57 313.9C156.807 314.554 156.848 315.263 156.69 315.94V315.94Z" fill="#EB996E"/>
</svg>
