<svg width="500" height="500" viewBox="0 0 500 500" fill="none" xmlns="http://www.w3.org/2000/svg">
<path d="M430.73 186.5C428.085 177.899 424.63 169.568 420.41 161.62C398.65 121.18 360.49 90.67 318.75 72.62C285.61 58.31 244.63 50.83 209.47 63.72C191.69 70.24 174.95 82.72 165.42 99.37C153 121.11 154.17 148 144.31 170.85C136.31 189.34 116.43 200.45 100.85 211.85C76.54 229.57 52.59 250.52 44.16 280.49C32.92 320.44 36.25 368 59 403.53C76 430.04 105.1 438 135.13 438.53C163.47 439.04 198.13 431.88 224.58 444.81C269.64 466.81 329.1 491.51 379.52 474.1C431.52 456.15 456.99 421.19 464.52 375.84C472.05 330.49 451.3 292.71 444.68 256.84C440.56 234.15 437.83 209.1 430.73 186.5Z" fill="black"/>
<path opacity="0.8" d="M430.73 186.5C428.085 177.899 424.63 169.568 420.41 161.62C398.65 121.18 360.49 90.67 318.75 72.62C285.61 58.31 244.63 50.83 209.47 63.72C191.69 70.24 174.95 82.72 165.42 99.37C153 121.11 154.17 148 144.31 170.85C136.31 189.34 116.43 200.45 100.85 211.85C76.54 229.57 52.59 250.52 44.16 280.49C32.92 320.44 36.25 368 59 403.53C76 430.04 105.1 438 135.13 438.53C163.47 439.04 198.13 431.88 224.58 444.81C269.64 466.81 329.1 491.51 379.52 474.1C431.52 456.15 456.99 421.19 464.52 375.84C472.05 330.49 451.3 292.71 444.68 256.84C440.56 234.15 437.83 209.1 430.73 186.5Z" fill="white"/>
<path d="M51.61 322.66C51.35 319.77 51.29 317.11 51.26 314.75C51.26 313.41 51.26 312.2 51.26 311.07C52.26 310.22 56.43 306.77 57.58 304.44C58.73 302.11 59.51 298.94 58.29 296.5C58.0273 295.918 57.6458 295.398 57.1701 294.972C56.6943 294.546 56.1348 294.225 55.5275 294.028C54.9201 293.831 54.2783 293.763 53.6433 293.829C53.0083 293.895 52.394 294.093 51.84 294.41C48.61 296.41 48.34 303.32 49.21 306.65C49.28 306.94 50.97 311.3 51.02 311.26L51.09 311.21C51.04 312.3 50.99 313.47 50.97 314.74C50.97 317.1 50.97 319.74 51.15 322.68C51.15 323.16 51.22 323.68 51.26 324.17C51.62 324.71 51.82 325.06 51.82 325.06C51.78 324.25 51.68 323.43 51.61 322.66Z" fill="#BABABA"/>
<path d="M41.22 315.33C36.88 316.04 36.32 320.11 40.37 322.71C43.8 324.91 49.66 325.06 51.37 325.06C51.37 324.76 51.37 324.46 51.3 324.17C49.66 321.66 44.78 314.74 41.22 315.33Z" fill="#BABABA"/>
<path d="M127.57 296.23C123.74 296.11 119.7 301.65 118.57 304.87C118.47 305.15 117.49 309.69 117.57 309.68H117.65C117 310.55 116.32 311.49 115.65 312.54C114.33 314.48 112.86 316.68 111.43 319.18L110.93 320.05C110.86 320.75 110.8 321.17 110.8 321.17L110.46 320.89C109.252 323.036 108.154 325.242 107.17 327.5C105.75 330.692 104.618 334.006 103.79 337.4C103.79 337.4 103.79 337.48 103.79 337.52C103.71 336.4 103.37 333.27 103.32 333.04C102.57 329.68 99.17 323.61 95.32 323.2C94.6884 323.147 94.0529 323.229 93.4555 323.441C92.8582 323.652 92.3129 323.989 91.8559 324.428C91.3988 324.867 91.0406 325.398 90.8051 325.987C90.5696 326.575 90.4621 327.207 90.49 327.84C90.49 330.55 92.71 333.1 94.76 334.65C97.08 336.41 103.19 337.82 103.67 337.93C102.918 341.415 102.397 344.946 102.11 348.5C101.93 350.57 101.82 352.66 101.73 354.77C101.62 353.77 101.53 352.93 101.5 352.77C100.75 349.42 97.35 343.35 93.5 342.94C92.8689 342.887 92.2337 342.969 91.6369 343.181C91.04 343.392 90.4953 343.729 90.039 344.168C89.5827 344.608 89.2255 345.139 88.9911 345.727C88.7568 346.316 88.6507 346.947 88.68 347.58C88.68 350.29 90.9 352.83 92.95 354.39C95 355.95 100.22 357.28 101.6 357.6C101.6 358.41 101.54 359.21 101.52 360.02C101.41 363.89 101.31 367.75 101.11 371.54C101.04 372.87 100.92 374.18 100.8 375.49C100.71 374.63 100.63 373.91 100.6 373.8C99.86 370.45 96.45 364.38 92.6 363.97C91.9685 363.915 91.3326 363.996 90.7351 364.207C90.1375 364.418 89.592 364.755 89.1354 365.195C88.6788 365.634 88.3216 366.166 88.0878 366.756C87.854 367.345 87.749 367.977 87.78 368.61C87.78 371.32 89.99 373.86 92.04 375.42C94.09 376.98 98.81 378.17 100.44 378.57C100.33 379.49 100.22 380.41 100.09 381.31C100.67 381.48 101.26 381.62 101.87 381.74C102.09 380 102.26 378.23 102.4 376.44C103.82 376.84 108.9 378.19 111.4 377.82C113.9 377.45 117.02 376.28 118.29 373.9C118.603 373.345 118.798 372.73 118.86 372.096C118.923 371.461 118.853 370.821 118.654 370.215C118.456 369.609 118.133 369.051 117.707 368.577C117.281 368.103 116.761 367.722 116.18 367.46C112.62 365.96 106.84 369.65 104.64 372.24C104.51 372.4 103.14 374.44 102.41 375.57C102.5 374.26 102.59 372.96 102.63 371.64C102.76 367.81 102.77 363.93 102.79 360.07C102.79 358.88 102.79 357.7 102.79 356.52C103.3 356.67 109.3 358.4 112.14 357.98C114.67 357.61 117.76 356.44 119.03 354.07C119.345 353.515 119.54 352.899 119.602 352.264C119.665 351.629 119.595 350.987 119.395 350.381C119.195 349.775 118.871 349.217 118.443 348.743C118.015 348.269 117.493 347.89 116.91 347.63C113.36 346.13 107.58 349.81 105.38 352.4C105.22 352.6 103.26 355.53 102.8 356.3C102.8 353.7 102.9 351.11 103.06 348.56C103.266 345.116 103.693 341.689 104.34 338.3C104.58 338.37 110.84 340.2 113.74 339.78C116.27 339.41 119.37 338.23 120.63 335.86C120.943 335.305 121.138 334.69 121.2 334.056C121.263 333.421 121.193 332.781 120.994 332.175C120.796 331.569 120.473 331.011 120.047 330.537C119.621 330.063 119.101 329.682 118.52 329.42C114.97 327.92 109.18 331.61 106.98 334.2C106.81 334.4 104.71 337.56 104.36 338.2C104.36 338 104.42 337.79 104.46 337.6C105.206 334.23 106.254 330.933 107.59 327.75C108.3 325.98 109.08 324.34 109.88 322.75C111.01 323.21 116.21 325.26 118.88 325.17C121.55 325.08 124.65 324.26 126.17 322.04C126.544 321.524 126.806 320.935 126.939 320.311C127.072 319.688 127.072 319.043 126.94 318.419C126.808 317.795 126.547 317.206 126.173 316.689C125.799 316.173 125.321 315.74 124.77 315.42C121.4 313.54 115.23 316.56 112.77 318.89C112.64 319.01 111.42 320.46 110.54 321.52C110.91 320.81 111.28 320.07 111.65 319.4C113.03 316.87 114.45 314.64 115.72 312.68C116.45 311.57 117.14 310.58 117.79 309.68C119.12 309.56 124.51 308.99 126.79 307.68C129.07 306.37 131.44 304.21 131.79 301.53C131.885 300.901 131.85 300.26 131.686 299.645C131.522 299.031 131.233 298.457 130.837 297.959C130.44 297.462 129.946 297.051 129.384 296.754C128.822 296.456 128.204 296.278 127.57 296.23Z" fill="#BABABA"/>
<path d="M74.9999 378.79C75.2599 379.3 75.5099 379.79 75.7599 380.33L77.4699 379.77C76.8199 378.48 76.1499 377.19 75.4699 375.92C76.8599 375.47 81.7999 373.8 83.6799 372.09C85.5599 370.38 87.4699 367.68 87.2099 364.99C87.1672 364.352 86.9927 363.73 86.6976 363.163C86.4024 362.595 85.993 362.096 85.4951 361.694C84.9972 361.293 84.4215 361 83.8045 360.832C83.1875 360.664 82.5424 360.626 81.9099 360.72C78.1499 361.42 75.4099 367.72 75.0299 371.11C75.0299 371.33 75.0299 373.8 75.0299 375.11C74.3699 373.97 73.7299 372.82 73.0299 371.68C71.0299 368.38 68.8899 365.11 66.7699 361.84L64.8499 358.84C65.3499 358.69 71.2599 356.84 73.3699 354.91C75.2499 353.21 77.1599 350.51 76.8999 347.82C76.8586 347.182 76.6851 346.559 76.3905 345.991C76.0958 345.423 75.6863 344.922 75.1881 344.521C74.6898 344.119 74.1136 343.826 73.4959 343.659C72.8783 343.491 72.2326 343.455 71.5999 343.55C67.8399 344.25 65.0999 350.55 64.7199 353.94C64.7199 354.2 64.7199 357.75 64.7199 358.66C63.3099 356.44 61.9299 354.22 60.6599 351.98C58.931 348.964 57.3946 345.841 56.0599 342.63C56.2899 342.56 62.4699 340.63 64.6299 338.68C66.5099 336.98 68.4199 334.28 68.1599 331.58C68.1173 330.942 67.9429 330.321 67.6476 329.754C67.3524 329.187 66.9427 328.688 66.4446 328.287C65.9465 327.887 65.3707 327.594 64.7537 327.428C64.1367 327.261 63.4918 327.225 62.8599 327.32C59.0999 328.02 56.3599 334.32 55.9799 337.71C55.9799 337.98 55.9799 341.8 55.9799 342.5C55.9099 342.31 55.8099 342.12 55.7399 341.94C54.4973 338.696 53.5403 335.35 52.8799 331.94C52.4899 330.06 52.2299 328.24 52.0099 326.46C53.1999 326.23 58.6199 325.08 60.7699 323.54C62.9199 322 65.0199 319.54 65.0599 316.88C65.0867 316.241 64.9807 315.603 64.7486 315.007C64.5164 314.41 64.1632 313.869 63.7113 313.416C63.2593 312.963 62.7184 312.609 62.1227 312.375C61.5269 312.142 60.8893 312.035 60.2499 312.06C56.4299 312.34 53.0099 318.29 52.2499 321.62C52.2499 321.8 51.9899 323.69 51.8499 325.07H51.3599C51.5499 327.29 51.8199 329.63 52.2599 332.07C52.8434 335.55 53.7369 338.97 54.9299 342.29C54.9405 342.329 54.9574 342.366 54.9799 342.4C54.2899 341.5 52.2899 339.05 52.1199 338.88C49.6499 336.47 43.4999 333.23 40.1199 334.99C39.5673 335.303 39.0871 335.728 38.7107 336.24C38.3344 336.751 38.0705 337.336 37.9364 337.957C37.8023 338.577 37.801 339.219 37.9326 339.84C38.0642 340.461 38.3257 341.047 38.6999 341.56C40.2199 343.83 43.4299 344.77 45.9799 344.94C48.8599 345.15 54.6799 342.94 55.1399 342.79C56.4345 346.144 57.9512 349.408 59.6799 352.56C60.6799 354.41 61.7299 356.24 62.8199 358.06C62.1999 357.3 61.6399 356.62 61.5499 356.54C59.0899 354.12 52.9299 350.88 49.5499 352.64C48.9958 352.952 48.5142 353.379 48.1369 353.891C47.7596 354.403 47.4951 354.989 47.3609 355.611C47.2267 356.233 47.2259 356.876 47.3585 357.498C47.491 358.12 47.754 358.707 48.1299 359.22C49.6399 361.49 52.8599 362.42 55.4099 362.6C57.9599 362.78 62.9999 361 64.3299 360.5C64.7599 361.19 65.1699 361.89 65.5999 362.58C67.5999 365.9 69.6999 369.21 71.5999 372.51C72.2699 373.68 72.8999 374.85 73.5199 376.02C72.9699 375.34 72.5199 374.78 72.4299 374.7C69.9599 372.29 63.7999 369.05 60.4299 370.81C59.8765 371.122 59.3953 371.547 59.018 372.058C58.6407 372.569 58.3758 373.154 58.2407 373.774C58.1056 374.395 58.1034 375.037 58.2343 375.658C58.3652 376.28 58.6261 376.867 58.9999 377.38C60.5099 379.65 63.7299 380.59 66.2799 380.77C68.8299 380.95 73.4099 379.35 74.9999 378.79Z" fill="#BABABA"/>
<path d="M108.66 306.89C104.85 304.7 101.84 307.51 103.34 312.08C104.62 315.99 109.15 319.86 110.43 320.88L110.9 320.04C111.22 317 111.77 308.67 108.66 306.89Z" fill="#BABABA"/>
<path d="M339.31 465.56C335.09 465.67 331 472.06 329.99 475.7C329.94 475.89 329.61 477.88 329.39 479.39C331.39 479.57 333.39 479.71 335.39 479.81C336.756 479.482 338.069 478.963 339.29 478.27C341.64 476.74 344.19 474.13 344.37 471.14C344.438 470.434 344.358 469.722 344.135 469.049C343.912 468.375 343.551 467.756 343.074 467.231C342.598 466.705 342.017 466.285 341.369 465.998C340.721 465.71 340.019 465.561 339.31 465.56V465.56Z" fill="#BABABA"/>
<path d="M302.89 409C298.03 409 296.71 413.36 300.68 416.9C304.03 419.9 310.4 421.09 312.26 421.39L312.35 420.39C311 417.34 306.88 408.94 302.89 409Z" fill="#BABABA"/>
<path d="M381.15 464.84C381.59 464.289 381.91 463.652 382.09 462.97C382.269 462.288 382.305 461.576 382.194 460.88C382.083 460.183 381.828 459.517 381.445 458.925C381.062 458.333 380.56 457.827 379.97 457.44C376.36 455.19 369.4 458.2 366.56 460.64C366.34 460.82 363.7 463.69 363.06 464.45C363.55 461.61 364.06 458.8 364.7 456.04C365.518 452.308 366.58 448.633 367.88 445.04C368.13 445.16 374.63 448.25 377.88 448.3C380.7 448.3 384.28 447.59 386.07 445.23C386.51 444.679 386.83 444.042 387.01 443.36C387.189 442.678 387.225 441.966 387.114 441.27C387.003 440.573 386.748 439.907 386.365 439.315C385.982 438.723 385.48 438.217 384.89 437.83C381.28 435.58 374.32 438.59 371.48 441.03C371.25 441.22 368.41 444.3 367.93 444.9C368.01 444.69 368.06 444.47 368.14 444.26C369.543 440.714 371.26 437.3 373.27 434.06C374.35 432.26 375.49 430.6 376.64 429.06C377.79 429.76 383.11 432.9 386.03 433.26C388.95 433.62 392.48 433.26 394.52 431.12C395.018 430.621 395.405 430.024 395.658 429.367C395.911 428.71 396.024 428.007 395.989 427.303C395.954 426.6 395.773 425.911 395.456 425.282C395.139 424.653 394.694 424.097 394.15 423.65C390.8 421.01 383.55 423.24 380.45 425.34C380.28 425.46 378.7 426.82 377.56 427.82C378.08 427.11 378.62 426.37 379.13 425.7C381.08 423.18 383.01 421 384.74 419.08C385.74 418 386.65 417.08 387.52 416.15C389 416.25 394.98 416.57 397.67 415.56C400.36 414.55 403.35 412.56 404.16 409.71C404.372 409.036 404.442 408.326 404.366 407.624C404.289 406.922 404.068 406.243 403.715 405.631C403.363 405.019 402.887 404.487 402.318 404.069C401.749 403.65 401.099 403.354 400.41 403.2C396.26 402.39 390.89 407.74 389.12 411.06C388.97 411.35 387.12 416.12 387.18 416.13H387.27C386.42 416.96 385.51 417.87 384.54 418.88C382.77 420.77 380.78 422.88 378.77 425.4L378.08 426.26C377.88 427.01 377.75 427.45 377.75 427.45C377.75 427.45 377.62 427.32 377.42 427.09C375.83 429.09 374.21 431.31 372.68 433.72C370.574 436.958 368.764 440.378 367.27 443.94C367.27 443.94 367.27 444.03 367.27 444.07C367.38 442.83 367.56 439.36 367.54 439.07C367.32 435.28 364.66 428.07 360.54 426.95C359.86 426.784 359.153 426.764 358.465 426.892C357.777 427.021 357.124 427.294 356.55 427.694C355.975 428.094 355.493 428.612 355.134 429.213C354.776 429.814 354.549 430.485 354.47 431.18C354.03 434.18 355.97 437.29 357.94 439.35C360.16 441.67 366.58 444.27 367.09 444.48C365.655 448.149 364.469 451.911 363.54 455.74C362.99 457.96 362.54 460.23 362.03 462.5C362.09 461.43 362.13 460.5 362.12 460.34C361.89 456.55 359.24 449.34 355.12 448.22C354.441 448.05 353.733 448.028 353.044 448.154C352.356 448.28 351.702 448.552 351.127 448.952C350.552 449.352 350.069 449.87 349.711 450.471C349.353 451.073 349.128 451.744 349.05 452.44C348.61 455.44 350.55 458.56 352.52 460.62C354.49 462.68 359.95 465.03 361.39 465.62L360.88 468.24C360.2 471.83 359.53 475.41 358.79 478.94L360.59 478.69C361.21 475.32 361.78 471.92 362.34 468.52C362.55 467.23 362.78 465.95 363.01 464.66C363.53 464.91 369.78 467.84 372.95 467.89C375.78 467.94 379.36 467.2 381.15 464.84Z" fill="#BABABA"/>
<path d="M377.93 411.51C374.15 408.46 370.39 411 371.22 416.24C371.94 420.74 376.22 425.74 377.42 427.08L378.08 426.25C379 423 381 414 377.93 411.51Z" fill="#BABABA"/>
<path d="M313 418.76C313.22 415.57 313.62 412.65 314 410.08C314.22 408.62 314.45 407.3 314.68 406.08C315.96 405.34 321.07 402.29 322.73 399.95C324.39 397.61 325.79 394.29 324.89 391.42C324.704 390.74 324.378 390.106 323.934 389.559C323.489 389.012 322.935 388.564 322.307 388.243C321.68 387.922 320.992 387.736 320.288 387.696C319.584 387.656 318.88 387.763 318.22 388.01C314.34 389.64 312.85 397.12 313.22 400.9C313.22 401.23 314.33 406.28 314.4 406.25L314.48 406.2C314.23 407.38 313.98 408.65 313.74 410.04C313.3 412.61 312.84 415.52 312.55 418.73C312.5 419.26 312.45 419.82 312.41 420.37C312.7 421.03 312.87 421.44 312.87 421.44C312.85 420.54 312.89 419.62 313 418.76Z" fill="#BABABA"/>
<path d="M314.2 472.83C313.36 473.113 312.618 473.629 312.06 474.317C311.502 475.006 311.152 475.84 311.05 476.72C316.22 477.72 321.39 478.55 326.55 479.1C324.25 476 318.16 471.51 314.2 472.83Z" fill="#BABABA"/>
<path d="M350.52 471C349.841 470.83 349.133 470.808 348.444 470.934C347.756 471.06 347.102 471.333 346.527 471.732C345.952 472.132 345.469 472.65 345.111 473.251C344.753 473.853 344.527 474.524 344.45 475.22C344.282 476.862 344.632 478.516 345.45 479.95C349.23 479.87 352.983 479.62 356.71 479.2C355.6 475.68 353.43 471.81 350.52 471Z" fill="#BABABA"/>
<path d="M327.71 476C326.1 472.06 324.34 468.11 322.61 464.17C322.08 462.97 321.56 461.76 321.04 460.55C321.61 460.47 328.38 459.48 331.04 457.75C333.39 456.22 335.94 453.61 336.12 450.62C336.186 449.92 336.107 449.214 335.887 448.546C335.667 447.878 335.31 447.263 334.841 446.739C334.371 446.216 333.798 445.796 333.157 445.505C332.517 445.214 331.823 445.059 331.12 445.05C326.9 445.15 322.81 451.55 321.8 455.18C321.72 455.46 321.1 459.34 321 460.33C319.85 457.67 318.73 455.01 317.74 452.33C316.374 448.74 315.241 445.066 314.35 441.33C314.61 441.33 321.68 440.33 324.35 438.53C326.69 437 329.25 434.38 329.43 431.4C329.496 430.699 329.417 429.993 329.197 429.324C328.977 428.656 328.621 428.04 328.151 427.516C327.681 426.992 327.108 426.571 326.468 426.279C325.828 425.987 325.134 425.831 324.43 425.82C320.21 425.93 316.12 432.32 315.11 435.96C315.03 436.24 314.37 440.42 314.31 441.18C314.26 440.97 314.18 440.75 314.13 440.53C313.343 436.764 312.887 432.936 312.77 429.09C312.67 426.97 312.7 424.94 312.77 422.97C314.1 422.92 320.21 422.61 322.83 421.3C325.45 419.99 328.16 417.73 328.66 414.79C328.802 414.098 328.799 413.384 328.65 412.694C328.502 412.003 328.212 411.351 327.798 410.778C327.384 410.206 326.856 409.725 326.247 409.368C325.638 409.01 324.962 408.783 324.26 408.7C320.05 408.33 315.26 414.23 313.87 417.7C313.8 417.89 313.24 419.92 312.87 421.4L312.32 421.32C312.14 423.77 312.03 426.32 312.09 429.08C312.123 432.976 312.501 436.861 313.22 440.69V440.82C312.63 439.72 310.87 436.7 310.71 436.48C308.44 433.42 302.29 428.81 298.3 430.14C297.645 430.389 297.049 430.772 296.551 431.266C296.053 431.76 295.665 432.352 295.412 433.006C295.158 433.659 295.045 434.359 295.079 435.059C295.113 435.759 295.294 436.444 295.61 437.07C296.86 439.8 300.21 441.39 302.96 442.07C306.06 442.79 312.79 441.42 313.33 441.31C314.158 445.194 315.24 449.018 316.57 452.76C317.34 454.95 318.18 457.13 319.04 459.3C318.5 458.37 318.04 457.53 317.93 457.43C315.66 454.36 309.51 449.76 305.52 451.09C304.866 451.339 304.271 451.722 303.775 452.215C303.278 452.708 302.89 453.3 302.637 453.952C302.383 454.604 302.269 455.303 302.303 456.002C302.336 456.701 302.516 457.385 302.83 458.01C304.08 460.75 307.42 462.33 310.18 463.01C312.94 463.69 318.73 462.61 320.25 462.31C320.59 463.14 320.92 463.97 321.25 464.8C322.9 468.8 324.57 472.75 326.08 476.69C326.4 477.53 326.7 478.37 327 479.2L329 479.4C328.59 478.24 328.17 477.12 327.71 476Z" fill="#BABABA"/>
<path d="M325.14 161.62L325.8 165.57L330.2 165.96L331.52 162.22C332.963 162.09 334.384 161.781 335.75 161.3L338.53 164.12L342.35 161.91L341.3 158.11C342.406 157.169 343.39 156.094 344.23 154.91L348.11 155.63L349.98 151.63L346.93 149.12C347.292 147.715 347.477 146.271 347.48 144.82L351.1 143.18L350.33 138.83L346.33 138.52C345.822 137.182 345.151 135.912 344.33 134.74L346.39 131.26L343.27 128.14L339.77 130.22C337.752 128.858 335.475 127.928 333.08 127.49L332.08 123.49H327.66L326.66 127.49C325.28 127.745 323.937 128.168 322.66 128.75L319.51 126.02L315.89 128.55L317.38 132.45C316.407 133.441 315.558 134.546 314.85 135.74L310.69 135.31L309.18 139.46L312.62 141.79C312.459 142.758 312.378 143.738 312.38 144.72C312.38 145.14 312.38 145.55 312.38 145.96L308.77 147.96L309.91 152.22L314 152.17C314.608 153.444 315.363 154.642 316.25 155.74L314.48 159.42L317.86 162.25L321.2 160M339.54 139.38C340.724 141.486 341.181 143.923 340.842 146.314C340.503 148.706 339.386 150.919 337.664 152.613C335.941 154.307 333.71 155.386 331.312 155.685C328.915 155.984 326.487 155.486 324.401 154.267C322.316 153.048 320.689 151.177 319.773 148.942C318.857 146.707 318.702 144.232 319.332 141.9C319.962 139.568 321.342 137.509 323.26 136.039C325.177 134.57 327.524 133.772 329.94 133.77C330.469 133.769 330.997 133.809 331.52 133.89M335.25 135.13C336.096 135.598 336.876 136.176 337.57 136.85" stroke="black" stroke-miterlimit="10"/>
<path d="M335.56 386.86L336.22 390.81L340.62 391.2L341.94 387.46C343.383 387.33 344.804 387.021 346.17 386.54L348.95 389.36L352.77 387.15L351.77 383.35C352.876 382.409 353.86 381.334 354.7 380.15L358.58 380.87L360.45 376.87L357.45 374.36C357.812 372.955 357.997 371.511 358 370.06L361.62 368.42L360.85 364.07L356.85 363.76C356.346 362.42 355.674 361.15 354.85 359.98L356.91 356.5L353.79 353.38L350.29 355.46C348.272 354.098 345.995 353.168 343.6 352.73L342.6 348.73H338.18L337.18 352.73C335.8 352.985 334.457 353.408 333.18 353.99L330 351.29L326.38 353.82L327.87 357.72C326.897 358.711 326.048 359.815 325.34 361.01L321.18 360.58L319.67 364.73L323.11 367.06C322.949 368.028 322.868 369.008 322.87 369.99C322.87 370.41 322.87 370.82 322.87 371.23L319.26 373.23L320.4 377.49L324.49 377.44C325.098 378.714 325.853 379.912 326.74 381.01L325 384.71L328.38 387.54L331.66 385.2M350 364.58C351.184 366.686 351.641 369.122 351.302 371.514C350.963 373.906 349.846 376.119 348.124 377.813C346.401 379.507 344.169 380.586 341.772 380.885C339.375 381.184 336.947 380.686 334.861 379.467C332.775 378.248 331.149 376.377 330.233 374.142C329.317 371.907 329.162 369.432 329.792 367.1C330.422 364.768 331.802 362.709 333.72 361.239C335.637 359.77 337.984 358.972 340.4 358.97C340.929 358.969 341.457 359.009 341.98 359.09M345.71 360.33C346.556 360.798 347.336 361.376 348.03 362.05" stroke="black" stroke-miterlimit="10"/>
<path d="M357 114.24L357.58 115.76C357.29 116.05 357.01 116.36 356.74 116.67M355.27 118.67C355.19 118.79 355.12 118.91 355.05 119.03L350.89 118.61L349.38 122.75L352.82 125.08C352.656 126.048 352.572 127.028 352.57 128.01C352.57 128.43 352.57 128.84 352.57 129.25L348.95 131.25L350.1 135.51H354.19C354.792 136.79 355.548 137.993 356.44 139.09L354.67 142.76L358.05 145.6L361.33 143.25C362.571 143.965 363.894 144.526 365.27 144.92L365.93 148.87L370.32 149.25L371.65 145.51C373.093 145.384 374.514 145.078 375.88 144.6L378.65 147.41L382.47 145.21L381.47 141.41C382.574 140.467 383.558 139.392 384.4 138.21L388.28 138.92L390.15 134.92L387.1 132.4C387.457 130.998 387.642 129.557 387.65 128.11L391.27 126.46L390.5 122.12L386.5 121.81C385.99 120.47 385.319 119.197 384.5 118.02L386.56 114.55L383.44 111.43L379.94 113.51C377.927 112.14 375.647 111.209 373.25 110.78L372.25 106.78H367.84L366.84 110.78C365.462 111.04 364.119 111.463 362.84 112.04L359.68 109.31L356.07 111.84L356.53 113.04M380.88 130.28C380.731 131.005 380.507 131.712 380.21 132.39M379.38 133.94C377.959 136.173 375.78 137.819 373.244 138.575C370.708 139.332 367.984 139.148 365.572 138.058C363.159 136.969 361.221 135.046 360.112 132.643C359.003 130.239 358.798 127.517 359.534 124.974C360.27 122.432 361.899 120.24 364.12 118.801C366.342 117.363 369.007 116.773 371.629 117.141C374.25 117.508 376.65 118.809 378.39 120.803C380.13 122.798 381.092 125.353 381.1 128C381.1 128.267 381.1 128.537 381.1 128.81" stroke="black" stroke-miterlimit="10"/>
<path d="M93.23 250.29L89.92 257.16L96.24 262.46L102.36 258.07C104.681 259.412 107.16 260.46 109.74 261.19L110.96 268.57L119.18 269.29L121.65 262.29C124.348 262.049 127.006 261.472 129.56 260.57L134.74 265.84L141.88 261.72L139.88 254.62C141.949 252.853 143.793 250.838 145.37 248.62L152.62 249.95L156.11 242.48L150.42 237.78C151.083 235.165 151.419 232.478 151.42 229.78L158.18 226.7L156.75 218.58L149.29 218C148.337 215.501 147.084 213.128 145.56 210.93L149.4 204.43L143.57 198.6L137.02 202.49C133.258 199.931 128.999 198.193 124.52 197.39L122.63 189.91H114.38L112.48 197.43C109.925 197.919 107.437 198.711 105.07 199.79L99.17 194.69L92.42 199.42L95.2 206.71C93.3865 208.563 91.7987 210.624 90.47 212.85L82.7 212.05L79.88 219.8L86.31 224.16C86.0045 225.971 85.8506 227.804 85.85 229.64C85.85 230.42 85.88 231.19 85.94 231.95L79.17 235.73L81.31 243.73L88.96 243.64C89.8057 245.442 90.8097 247.165 91.96 248.79M111.7 210.27C112.598 209.955 113.517 209.701 114.45 209.51M119.53 209.11C124.568 209.342 129.345 211.417 132.953 214.941C136.561 218.464 138.749 223.19 139.102 228.221C139.454 233.251 137.946 238.236 134.865 242.228C131.783 246.22 127.342 248.941 122.386 249.873C117.43 250.806 112.304 249.885 107.982 247.287C103.66 244.688 100.443 240.592 98.9432 235.777C97.443 230.963 97.7638 225.764 99.8447 221.171C101.926 216.577 105.621 212.908 110.23 210.86" stroke="black" stroke-miterlimit="10"/>
<path d="M198.88 228.09L190.7 222.81" stroke="#263238" stroke-width="3" stroke-linecap="round" stroke-linejoin="round"/>
<path d="M213.09 212.21L210.97 210.44" stroke="#263238" stroke-width="3" stroke-linecap="round" stroke-linejoin="round"/>
<path d="M189.21 258.77L172.28 254.53" stroke="#263238" stroke-width="3" stroke-linecap="round" stroke-linejoin="round"/>
<path d="M280.71 362.83C280.585 362.829 280.461 362.812 280.34 362.78C279.95 362.678 279.616 362.427 279.41 362.08C278.89 361.17 278.61 360.68 282.83 355.84C273.73 361.41 272.76 361.18 272.23 361.05C271.815 360.927 271.459 360.657 271.23 360.29C270.39 358.84 270.23 358.55 287.07 344.77C284.37 346.52 281.56 348.4 279.07 350.06C264.25 359.95 259.64 362.76 257.6 362.29C257.353 362.234 257.12 362.127 256.915 361.978C256.711 361.828 256.539 361.638 256.41 361.42C255.51 359.86 255.51 359.86 275.41 345.48L279.35 342.64C277.05 344.17 274.76 345.73 272.66 347.16C257 357.81 249.87 362.41 247.2 361.81C246.921 361.747 246.659 361.625 246.432 361.453C246.204 361.28 246.016 361.061 245.88 360.81C244.88 359.12 244.68 358.74 273.62 339.08L235.56 361.08C235.221 361.269 234.822 361.317 234.448 361.214C234.074 361.111 233.755 360.865 233.56 360.53C232.89 359.37 233.41 357.95 236.16 355.53C231.78 358.05 229.24 359.06 227.99 358.77C227.73 358.71 227.484 358.599 227.268 358.442C227.052 358.286 226.869 358.088 226.73 357.86C225.9 356.42 226.22 355.09 236.81 347.97C225.89 354.8 221.86 356.81 220.29 356.44C220.057 356.385 219.837 356.283 219.644 356.141C219.452 355.998 219.29 355.817 219.17 355.61C218.44 354.36 219.12 353.91 221.63 352.25L227.16 348.64L235.62 343.17C226.3 348.01 224.9 347.68 224.12 347.49C223.857 347.43 223.609 347.318 223.391 347.16C223.173 347.001 222.989 346.801 222.85 346.57C222.666 346.231 222.619 345.834 222.719 345.462C222.82 345.089 223.06 344.77 223.39 344.57C252.74 327.17 298.05 299.26 308.97 290.03C298.08 294.98 265.52 315.2 246.97 326.75C223.08 341.6 222.97 341.57 221.97 341.31C221.763 341.264 221.568 341.176 221.396 341.052C221.225 340.928 221.08 340.771 220.97 340.59C220.16 339.19 220.2 338.29 229.76 332.37C225.36 334.44 222.46 335.37 221.18 335.07C220.9 335.004 220.636 334.882 220.406 334.71C220.175 334.538 219.983 334.32 219.84 334.07C219.649 333.738 219.593 333.344 219.684 332.972C219.775 332.599 220.007 332.276 220.33 332.07C249.95 313.2 291.62 286.48 308.62 275.19C303.89 277.6 297.54 281.19 290.48 285.42C284.77 289.09 278 293.36 269.99 298.34C259.41 304.93 248.71 311.46 239.8 316.86C218.28 330.44 218.02 330.38 216.97 330.12C216.763 330.07 216.569 329.98 216.397 329.855C216.225 329.73 216.08 329.572 215.97 329.39C215.786 329.051 215.739 328.654 215.839 328.282C215.94 327.909 216.18 327.59 216.51 327.39C222.99 323.54 230.14 319.25 237.56 314.75L241.46 312.29C225.92 321.18 217.33 325.07 214.8 324.45C214.508 324.393 214.231 324.274 213.987 324.102C213.744 323.929 213.541 323.707 213.39 323.45C212.46 321.85 213.78 319.81 224.74 312.65C217.67 316.96 214.87 318.24 213.68 317.95C213.453 317.899 213.239 317.801 213.052 317.664C212.864 317.526 212.707 317.351 212.59 317.15C211.96 316.06 211.45 315.15 218.77 309.84C214.83 311.84 212.34 312.65 211.15 312.36C210.88 312.301 210.625 312.188 210.402 312.026C210.178 311.864 209.99 311.658 209.85 311.42C209.749 311.248 209.684 311.058 209.659 310.86C209.633 310.663 209.647 310.462 209.7 310.27C209.805 309.887 210.057 309.56 210.4 309.36C242.85 290.91 291.99 261.69 306.95 249.9C290.54 258.96 245.3 285.52 213.73 304.24C213.56 304.34 213.371 304.406 213.175 304.434C212.979 304.461 212.779 304.449 212.588 304.399C212.396 304.349 212.216 304.261 212.059 304.141C211.901 304.021 211.769 303.871 211.67 303.7C211.517 303.425 211.421 303.122 211.388 302.809C211.355 302.497 211.387 302.18 211.48 301.88C212.037 300.612 212.879 299.489 213.94 298.6C211.61 299.55 210.05 299.9 209.16 299.68C208.883 299.612 208.623 299.489 208.396 299.317C208.169 299.145 207.98 298.928 207.84 298.68C206.94 297.13 208.66 295.93 211.26 294.12C213.26 292.77 216.09 290.9 220.05 288.42C227.44 283.8 237.58 277.68 248.32 271.21C260.39 263.93 274.73 255.28 286.12 248.12C261.75 262.12 223.37 284.54 204.94 295.32C204.591 295.518 204.178 295.572 203.79 295.47C203.599 295.42 203.421 295.332 203.264 295.212C203.108 295.092 202.977 294.941 202.88 294.77C202.11 293.43 201.88 293.04 215.13 284.7C209.94 287.55 206.66 288.78 204.99 288.39C204.675 288.324 204.377 288.193 204.115 288.006C203.853 287.818 203.633 287.578 203.47 287.3C202.47 285.58 202.47 285.58 226.53 271.61C237.66 265.15 250.94 257.43 263.16 250.01C273.42 243.19 281.45 238.01 287.54 234.41C290.735 232.285 293.766 229.925 296.61 227.35C284.12 232.96 234.8 262.78 203.61 282.18C203.273 282.392 202.866 282.462 202.478 282.374C202.09 282.285 201.752 282.047 201.54 281.71C201.328 281.373 201.258 280.966 201.346 280.578C201.434 280.189 201.673 279.852 202.01 279.64L211.69 273.48C203.69 277.59 200.69 278.28 199.46 277.97C199.181 277.905 198.919 277.782 198.69 277.61C198.461 277.438 198.27 277.22 198.13 276.97C197.936 276.638 197.879 276.244 197.97 275.871C198.062 275.497 198.295 275.174 198.62 274.97L219.93 261.31C202.51 271.15 201.1 270.8 200.24 270.58C200.011 270.527 199.796 270.427 199.607 270.288C199.418 270.149 199.259 269.973 199.14 269.77C198.953 269.435 198.902 269.04 198.996 268.668C199.091 268.296 199.325 267.975 199.65 267.77C222.11 253.88 254.02 233.77 272.65 221.16C257.6 229.83 235.65 242.71 220.21 251.79L203 261.79C199.18 264.02 197.33 265.11 196.34 265.61L196.08 265.77C195.39 266.1 195.22 266.05 194.93 265.97C194.648 265.895 194.394 265.738 194.199 265.521C194.004 265.303 193.877 265.033 193.834 264.744C193.79 264.455 193.832 264.16 193.954 263.895C194.076 263.629 194.273 263.405 194.52 263.25C218.34 248.52 253.52 226.32 269.28 215.4C260.89 220.26 248.36 228.25 238.28 234.7C210.02 252.7 201.43 257.88 198.94 257.26C198.703 257.204 198.48 257.1 198.285 256.956C198.089 256.812 197.924 256.629 197.8 256.42C197.18 255.33 196.73 254.56 206.12 247.79C203.56 248.92 201.83 249.35 200.82 249.11C200.534 249.045 200.265 248.923 200.028 248.751C199.791 248.579 199.591 248.361 199.44 248.11C199.254 247.775 199.203 247.383 199.296 247.011C199.388 246.64 199.619 246.318 199.94 246.11C218.39 234.5 246.43 216.3 256.07 208.77C247.63 212.9 229.21 224.77 218.37 231.71C200.66 243 200 243.28 198.87 243C198.663 242.952 198.467 242.862 198.296 242.737C198.124 242.612 197.979 242.453 197.87 242.27C197.07 240.9 196.37 239.68 213.71 227.76C211.57 229.12 209.38 230.53 207.14 231.97C206.955 232.12 206.738 232.226 206.506 232.279C206.274 232.333 206.032 232.333 205.8 232.28C205.603 232.233 205.418 232.145 205.256 232.023C205.094 231.901 204.959 231.747 204.86 231.57C203.79 229.72 205.33 228.13 217.5 218.8C217.277 218.753 217.066 218.659 216.882 218.524C216.697 218.39 216.543 218.218 216.43 218.02C216.245 217.675 216.2 217.272 216.307 216.895C216.413 216.518 216.662 216.197 217 216C217.281 215.846 217.601 215.78 217.92 215.81C219.502 214.892 221.034 213.89 222.51 212.81C227.39 209.38 228.77 208.56 229.96 208.81C230.192 208.861 230.412 208.959 230.604 209.098C230.797 209.238 230.959 209.415 231.08 209.62C231.94 211.12 231.27 212.02 223.08 218.36C225.36 216.95 227.71 215.49 230.08 214.05C253.2 199.91 254.99 200.33 256.08 200.59C256.32 200.641 256.546 200.743 256.744 200.888C256.943 201.032 257.108 201.217 257.23 201.43C257.418 201.764 257.471 202.157 257.378 202.529C257.285 202.901 257.053 203.224 256.73 203.43C245.45 210.43 233.73 218.01 223.9 224.56C246.72 209.99 257.69 203.56 260.78 204.34C261.048 204.4 261.301 204.514 261.523 204.676C261.745 204.837 261.931 205.043 262.07 205.28C263.02 206.93 263.71 208.13 232.14 228.91L227.6 231.91C233.96 227.91 240.4 223.71 245.6 220.31C265.85 207.17 269.13 205.24 270.66 205.6C270.87 205.655 271.066 205.751 271.238 205.884C271.41 206.016 271.553 206.181 271.66 206.37C271.852 206.702 271.907 207.096 271.816 207.468C271.725 207.841 271.493 208.164 271.17 208.37C251.59 220.85 222.99 239.48 208.85 249.49C216.45 245.01 227.22 238.14 236.6 232.16C266.33 213.16 276.03 207.41 278.77 208.07C279.015 208.129 279.246 208.236 279.448 208.385C279.651 208.535 279.822 208.723 279.95 208.94C280.68 210.21 281.21 211.11 263.82 222.72C288.19 208.58 288.66 208.72 289.43 208.9C289.626 208.95 289.81 209.039 289.971 209.161C290.132 209.283 290.268 209.435 290.37 209.61C291.37 211.34 292.08 212.61 246.1 241.99C242.76 244.13 239.41 246.26 236.1 248.34C254.3 237.58 275.99 224.34 292.42 214.08C292.592 213.975 292.783 213.905 292.982 213.874C293.181 213.843 293.384 213.852 293.58 213.9C293.973 214 294.311 214.252 294.52 214.6C295.23 215.84 294.18 216.6 293.07 217.36C292.39 217.83 291.39 218.51 290.07 219.36C287.65 220.97 284.07 223.36 279.45 226.36C271.67 231.43 260.8 238.46 247.14 247.26C233.98 255.73 220.72 264.26 211.63 270.07C223.64 263.72 247 250 292 221.25C298.48 217.12 298.48 217.12 299.14 217.25C299.338 217.299 299.524 217.386 299.687 217.508C299.85 217.63 299.987 217.784 300.09 217.96C300.46 218.6 300.67 218.96 299.47 220.03C297.87 221.43 293.89 224.03 284.81 229.93C297.67 222.88 298.87 223.17 299.65 223.37C299.877 223.421 300.091 223.519 300.279 223.656C300.466 223.794 300.623 223.969 300.74 224.17C301.28 225.11 301.41 226.24 299.41 228.48C300.199 228.234 301.034 228.172 301.85 228.3C302.176 228.368 302.485 228.504 302.755 228.698C303.025 228.893 303.252 229.142 303.42 229.43C304.42 231.15 304.92 232.03 275.21 250.77C306.67 232.55 306.98 232.63 307.73 232.83C307.923 232.879 308.103 232.966 308.261 233.086C308.419 233.207 308.552 233.357 308.65 233.53C309.65 235.19 307.85 236.86 303.55 240C300.78 242 296.87 244.64 291.63 248C309.1 237.09 313.48 234.83 315.04 235.21C315.261 235.264 315.468 235.361 315.651 235.497C315.833 235.633 315.986 235.804 316.1 236C316.2 236.17 316.265 236.359 316.291 236.555C316.317 236.751 316.303 236.95 316.25 237.14C316.199 237.333 316.11 237.514 315.988 237.672C315.866 237.83 315.714 237.962 315.54 238.06C305.34 243.84 294.97 249.82 284.95 255.72L274.57 262.28C254.16 275.2 239.27 284.49 228.82 290.57C225.51 292.84 222.68 294.86 220.41 296.57C229.71 291.07 245.55 281.72 261.41 272.47C311.41 243.21 312.17 243.42 313.12 243.67C313.316 243.72 313.5 243.809 313.661 243.931C313.822 244.053 313.958 244.205 314.06 244.38C314.205 244.636 314.296 244.918 314.329 245.211C314.361 245.503 314.335 245.798 314.25 246.08C313.955 247.048 313.39 247.912 312.62 248.57C316.05 246.86 318.2 246.16 319.26 246.41C319.518 246.469 319.761 246.58 319.974 246.737C320.187 246.893 320.366 247.092 320.5 247.32C321.3 248.7 320.18 249.45 317.71 251.09C316.22 252.09 314.02 253.48 310.97 255.38L310.38 255.75C315.04 253.52 318.31 252.47 319.95 252.87C320.285 252.939 320.602 253.077 320.881 253.275C321.16 253.473 321.394 253.727 321.57 254.02C322.95 256.41 321.57 257.93 272.78 286.79C252.29 299 225.22 315 217.84 321C221.91 319.57 232.05 314.67 257.25 299.42C277.79 286.99 300.41 272.48 311.25 265.51C318.78 260.68 318.77 260.69 319.44 260.85C319.838 260.951 320.18 261.207 320.39 261.56C321 262.62 321.62 263.69 313.39 269.82C314.552 269.295 315.829 269.074 317.1 269.18C317.38 269.246 317.643 269.369 317.874 269.541C318.104 269.713 318.297 269.93 318.44 270.18C319.32 271.71 319.32 271.71 303.14 282.31C295.14 287.53 284.04 294.74 270.04 303.74C256.54 312.42 242.93 321.13 233.61 327.08C252.49 316.96 287.87 294.52 303.61 284.54C317.61 275.69 317.61 275.69 318.37 275.88C318.566 275.93 318.75 276.019 318.911 276.141C319.072 276.263 319.208 276.415 319.31 276.59C320.38 278.45 318.68 281.09 312.1 285.98C312.292 285.953 312.488 285.953 312.68 285.98C312.925 286.039 313.156 286.146 313.358 286.295C313.561 286.445 313.732 286.633 313.86 286.85C314.91 288.67 316.1 290.73 271.72 318.52C284.48 310.66 297.72 302.3 308.41 295.37C308.581 295.258 308.773 295.183 308.974 295.148C309.175 295.114 309.381 295.12 309.58 295.168C309.778 295.216 309.965 295.304 310.128 295.426C310.292 295.548 310.428 295.703 310.53 295.88C311.26 297.16 310.25 297.88 308.53 299.08C307.53 299.79 306.02 300.83 304.04 302.15C302.06 303.47 299.6 305.15 296.63 307.07C300.77 304.97 303.33 304.12 304.63 304.44C304.912 304.504 305.178 304.625 305.411 304.798C305.643 304.97 305.837 305.189 305.98 305.44C306.82 306.89 306.63 307.44 296.51 313.98C298.64 313.07 300.15 312.74 301.12 312.98C301.421 313.045 301.706 313.171 301.956 313.352C302.205 313.533 302.415 313.764 302.57 314.03C303.75 316.03 302.86 316.97 275.76 333.38C268 338.08 258.23 343.99 250.32 349.09L303.53 318.38C303.7 318.279 303.889 318.214 304.085 318.188C304.281 318.162 304.48 318.176 304.67 318.23C305.052 318.332 305.379 318.58 305.58 318.92C306.32 320.21 305.27 320.98 303.53 322.26C302.48 323.03 300.94 324.12 298.82 325.58C294.87 328.32 289.38 332.03 283.57 335.97C276.8 340.55 268.28 346.32 261.3 351.17C264.51 349.05 267.85 346.78 270.82 344.76C286.29 334.24 292.82 330.03 295.37 330.59C295.637 330.648 295.89 330.761 296.111 330.921C296.333 331.081 296.52 331.285 296.66 331.52C297.53 333.04 297.57 333.11 279.83 345.96C292.7 337.4 296.91 334.96 298.83 335.39C299.077 335.446 299.31 335.552 299.515 335.702C299.72 335.852 299.891 336.041 300.02 336.26C300.72 337.48 300.72 337.48 291.77 344.79C289.07 346.99 285.32 350.05 281.94 352.88C284.68 351.19 287.7 349.27 290.57 347.41C290.741 347.298 290.933 347.223 291.134 347.188C291.335 347.154 291.541 347.16 291.74 347.208C291.938 347.256 292.125 347.344 292.288 347.466C292.452 347.588 292.588 347.743 292.69 347.92C293.25 348.92 293.04 349.12 290.99 351.32C289.32 353.11 287.89 354.68 286.68 356.02C295.76 350.61 296.09 350.7 296.73 350.86C296.925 350.91 297.107 350.999 297.267 351.121C297.426 351.243 297.56 351.396 297.66 351.57C297.76 351.74 297.825 351.929 297.852 352.124C297.878 352.32 297.865 352.519 297.814 352.71C297.763 352.901 297.674 353.079 297.553 353.236C297.433 353.392 297.282 353.522 297.11 353.62C296.965 353.707 296.806 353.768 296.64 353.8C295.31 354.4 287.92 358.75 281.41 362.69C281.191 362.79 280.951 362.838 280.71 362.83V362.83ZM295.14 353C295.299 353.268 295.536 353.481 295.82 353.61C295.539 353.477 295.302 353.265 295.14 353V353ZM258.22 337.73C249.58 343.12 241.08 348.52 235.54 352.37C241.57 348.78 250.33 343 258.22 337.73V337.73ZM295.41 311.1C285.6 316.54 269.73 326.76 257.67 334.55C262.11 331.78 267.17 328.65 272.92 325.11C280.84 320.24 289.37 315 295.41 311.1V311.1ZM294.77 318.1C289.44 320.94 281.35 326.1 273.46 331.25L274.29 330.75C281.66 326.27 289.66 321.42 294.77 318.08V318.1ZM245.6 295.64C239 299.77 233 303.66 228 307C233.18 303.69 239.32 299.72 245.6 295.64ZM316.79 256.31C313.89 257.31 307.74 260.11 294.73 267.92C281.72 275.73 266 286 252 295.1C245.89 299.1 240.75 302.4 236.41 305.18C244.83 300 256.14 293.23 271.25 284.29C289.64 273.38 310.2 261.22 316.79 256.31V256.31ZM307.4 285.65L305.28 287C298.28 291.447 291.65 295.63 285.39 299.55C293.74 294.53 301.63 289.62 307.4 285.65ZM241.08 279C231.91 284.54 223 290 217.08 293.73C220.08 292.2 223.69 290.15 227.77 287.73C231.78 285 236.27 282.05 241.08 279ZM264.56 252.58C260.72 255.14 256.94 257.68 253.4 260.05C246.4 264.77 240.18 268.89 234.79 272.43L240.3 269.03C260.55 256.55 289.79 238.51 298.39 231.97C295.209 233.392 292.126 235.022 289.16 236.85C285.74 239.24 281.39 242.11 275.88 245.59C272.29 247.84 268.48 250.18 264.56 252.56V252.58Z" fill="black"/>
<g opacity="0.4">
<path d="M280.71 362.83C280.585 362.829 280.461 362.812 280.34 362.78C279.95 362.678 279.616 362.427 279.41 362.08C278.89 361.17 278.61 360.68 282.83 355.84C273.73 361.41 272.76 361.18 272.23 361.05C271.815 360.927 271.459 360.657 271.23 360.29C270.39 358.84 270.23 358.55 287.07 344.77C284.37 346.52 281.56 348.4 279.07 350.06C264.25 359.95 259.64 362.76 257.6 362.29C257.353 362.234 257.12 362.127 256.915 361.978C256.711 361.828 256.539 361.638 256.41 361.42C255.51 359.86 255.51 359.86 275.41 345.48L279.35 342.64C277.05 344.17 274.76 345.73 272.66 347.16C257 357.81 249.87 362.41 247.2 361.81C246.921 361.747 246.659 361.625 246.432 361.453C246.204 361.28 246.016 361.061 245.88 360.81C244.88 359.12 244.68 358.74 273.62 339.08L235.56 361.08C235.221 361.269 234.822 361.317 234.448 361.214C234.074 361.111 233.755 360.865 233.56 360.53C232.89 359.37 233.41 357.95 236.16 355.53C231.78 358.05 229.24 359.06 227.99 358.77C227.73 358.71 227.484 358.599 227.268 358.442C227.052 358.286 226.869 358.088 226.73 357.86C225.9 356.42 226.22 355.09 236.81 347.97C225.89 354.8 221.86 356.81 220.29 356.44C220.057 356.385 219.837 356.283 219.644 356.141C219.452 355.998 219.29 355.817 219.17 355.61C218.44 354.36 219.12 353.91 221.63 352.25L227.16 348.64L235.62 343.17C226.3 348.01 224.9 347.68 224.12 347.49C223.857 347.43 223.609 347.318 223.391 347.16C223.173 347.001 222.989 346.801 222.85 346.57C222.666 346.231 222.619 345.834 222.719 345.462C222.82 345.089 223.06 344.77 223.39 344.57C252.74 327.17 298.05 299.26 308.97 290.03C298.08 294.98 265.52 315.2 246.97 326.75C223.08 341.6 222.97 341.57 221.97 341.31C221.763 341.264 221.568 341.176 221.396 341.052C221.225 340.928 221.08 340.771 220.97 340.59C220.16 339.19 220.2 338.29 229.76 332.37C225.36 334.44 222.46 335.37 221.18 335.07C220.9 335.004 220.636 334.882 220.406 334.71C220.175 334.538 219.983 334.32 219.84 334.07C219.649 333.738 219.593 333.344 219.684 332.972C219.775 332.599 220.007 332.276 220.33 332.07C249.95 313.2 291.62 286.48 308.62 275.19C303.89 277.6 297.54 281.19 290.48 285.42C284.77 289.09 278 293.36 269.99 298.34C259.41 304.93 248.71 311.46 239.8 316.86C218.28 330.44 218.02 330.38 216.97 330.12C216.763 330.07 216.569 329.98 216.397 329.855C216.225 329.73 216.08 329.572 215.97 329.39C215.786 329.051 215.739 328.654 215.839 328.282C215.94 327.909 216.18 327.59 216.51 327.39C222.99 323.54 230.14 319.25 237.56 314.75L241.46 312.29C225.92 321.18 217.33 325.07 214.8 324.45C214.508 324.393 214.231 324.274 213.987 324.102C213.744 323.929 213.541 323.707 213.39 323.45C212.46 321.85 213.78 319.81 224.74 312.65C217.67 316.96 214.87 318.24 213.68 317.95C213.453 317.899 213.239 317.801 213.052 317.664C212.864 317.526 212.707 317.351 212.59 317.15C211.96 316.06 211.45 315.15 218.77 309.84C214.83 311.84 212.34 312.65 211.15 312.36C210.88 312.301 210.625 312.188 210.402 312.026C210.178 311.864 209.99 311.658 209.85 311.42C209.749 311.248 209.684 311.058 209.659 310.86C209.633 310.663 209.647 310.462 209.7 310.27C209.805 309.887 210.057 309.56 210.4 309.36C242.85 290.91 291.99 261.69 306.95 249.9C290.54 258.96 245.3 285.52 213.73 304.24C213.56 304.34 213.371 304.406 213.175 304.434C212.979 304.461 212.779 304.449 212.588 304.399C212.396 304.349 212.216 304.261 212.059 304.141C211.901 304.021 211.769 303.871 211.67 303.7C211.517 303.425 211.421 303.122 211.388 302.809C211.355 302.497 211.387 302.18 211.48 301.88C212.037 300.612 212.879 299.489 213.94 298.6C211.61 299.55 210.05 299.9 209.16 299.68C208.883 299.612 208.623 299.489 208.396 299.317C208.169 299.145 207.98 298.928 207.84 298.68C206.94 297.13 208.66 295.93 211.26 294.12C213.26 292.77 216.09 290.9 220.05 288.42C227.44 283.8 237.58 277.68 248.32 271.21C260.39 263.93 274.73 255.28 286.12 248.12C261.75 262.12 223.37 284.54 204.94 295.32C204.591 295.518 204.178 295.572 203.79 295.47C203.599 295.42 203.421 295.332 203.264 295.212C203.108 295.092 202.977 294.941 202.88 294.77C202.11 293.43 201.88 293.04 215.13 284.7C209.94 287.55 206.66 288.78 204.99 288.39C204.675 288.324 204.377 288.193 204.115 288.006C203.853 287.818 203.633 287.578 203.47 287.3C202.47 285.58 202.47 285.58 226.53 271.61C237.66 265.15 250.94 257.43 263.16 250.01C273.42 243.19 281.45 238.01 287.54 234.41C290.735 232.285 293.766 229.925 296.61 227.35C284.12 232.96 234.8 262.78 203.61 282.18C203.273 282.392 202.866 282.462 202.478 282.374C202.09 282.285 201.752 282.047 201.54 281.71C201.328 281.373 201.258 280.966 201.346 280.578C201.434 280.189 201.673 279.852 202.01 279.64L211.69 273.48C203.69 277.59 200.69 278.28 199.46 277.97C199.181 277.905 198.919 277.782 198.69 277.61C198.461 277.438 198.27 277.22 198.13 276.97C197.936 276.638 197.879 276.244 197.97 275.871C198.062 275.497 198.295 275.174 198.62 274.97L219.93 261.31C202.51 271.15 201.1 270.8 200.24 270.58C200.011 270.527 199.796 270.427 199.607 270.288C199.418 270.149 199.259 269.973 199.14 269.77C198.953 269.435 198.902 269.04 198.996 268.668C199.091 268.296 199.325 267.975 199.65 267.77C222.11 253.88 254.02 233.77 272.65 221.16C257.6 229.83 235.65 242.71 220.21 251.79L203 261.79C199.18 264.02 197.33 265.11 196.34 265.61L196.08 265.77C195.39 266.1 195.22 266.05 194.93 265.97C194.648 265.895 194.394 265.738 194.199 265.521C194.004 265.303 193.877 265.033 193.834 264.744C193.79 264.455 193.832 264.16 193.954 263.895C194.076 263.629 194.273 263.405 194.52 263.25C218.34 248.52 253.52 226.32 269.28 215.4C260.89 220.26 248.36 228.25 238.28 234.7C210.02 252.7 201.43 257.88 198.94 257.26C198.703 257.204 198.48 257.1 198.285 256.956C198.089 256.812 197.924 256.629 197.8 256.42C197.18 255.33 196.73 254.56 206.12 247.79C203.56 248.92 201.83 249.35 200.82 249.11C200.534 249.045 200.265 248.923 200.028 248.751C199.791 248.579 199.591 248.361 199.44 248.11C199.254 247.775 199.203 247.383 199.296 247.011C199.388 246.64 199.619 246.318 199.94 246.11C218.39 234.5 246.43 216.3 256.07 208.77C247.63 212.9 229.21 224.77 218.37 231.71C200.66 243 200 243.28 198.87 243C198.663 242.952 198.467 242.862 198.296 242.737C198.124 242.612 197.979 242.453 197.87 242.27C197.07 240.9 196.37 239.68 213.71 227.76C211.57 229.12 209.38 230.53 207.14 231.97C206.955 232.12 206.738 232.226 206.506 232.279C206.274 232.333 206.032 232.333 205.8 232.28C205.603 232.233 205.418 232.145 205.256 232.023C205.094 231.901 204.959 231.747 204.86 231.57C203.79 229.72 205.33 228.13 217.5 218.8C217.277 218.753 217.066 218.659 216.882 218.524C216.697 218.39 216.543 218.218 216.43 218.02C216.245 217.675 216.2 217.272 216.307 216.895C216.413 216.518 216.662 216.197 217 216C217.281 215.846 217.601 215.78 217.92 215.81C219.502 214.892 221.034 213.89 222.51 212.81C227.39 209.38 228.77 208.56 229.96 208.81C230.192 208.861 230.412 208.959 230.604 209.098C230.797 209.238 230.959 209.415 231.08 209.62C231.94 211.12 231.27 212.02 223.08 218.36C225.36 216.95 227.71 215.49 230.08 214.05C253.2 199.91 254.99 200.33 256.08 200.59C256.32 200.641 256.546 200.743 256.744 200.888C256.943 201.032 257.108 201.217 257.23 201.43C257.418 201.764 257.471 202.157 257.378 202.529C257.285 202.901 257.053 203.224 256.73 203.43C245.45 210.43 233.73 218.01 223.9 224.56C246.72 209.99 257.69 203.56 260.78 204.34C261.048 204.4 261.301 204.514 261.523 204.676C261.745 204.837 261.931 205.043 262.07 205.28C263.02 206.93 263.71 208.13 232.14 228.91L227.6 231.91C233.96 227.91 240.4 223.71 245.6 220.31C265.85 207.17 269.13 205.24 270.66 205.6C270.87 205.655 271.066 205.751 271.238 205.884C271.41 206.016 271.553 206.181 271.66 206.37C271.852 206.702 271.907 207.096 271.816 207.468C271.725 207.841 271.493 208.164 271.17 208.37C251.59 220.85 222.99 239.48 208.85 249.49C216.45 245.01 227.22 238.14 236.6 232.16C266.33 213.16 276.03 207.41 278.77 208.07C279.015 208.129 279.246 208.236 279.448 208.385C279.651 208.535 279.822 208.723 279.95 208.94C280.68 210.21 281.21 211.11 263.82 222.72C288.19 208.58 288.66 208.72 289.43 208.9C289.626 208.95 289.81 209.039 289.971 209.161C290.132 209.283 290.268 209.435 290.37 209.61C291.37 211.34 292.08 212.61 246.1 241.99C242.76 244.13 239.41 246.26 236.1 248.34C254.3 237.58 275.99 224.34 292.42 214.08C292.592 213.975 292.783 213.905 292.982 213.874C293.181 213.843 293.384 213.852 293.58 213.9C293.973 214 294.311 214.252 294.52 214.6C295.23 215.84 294.18 216.6 293.07 217.36C292.39 217.83 291.39 218.51 290.07 219.36C287.65 220.97 284.07 223.36 279.45 226.36C271.67 231.43 260.8 238.46 247.14 247.26C233.98 255.73 220.72 264.26 211.63 270.07C223.64 263.72 247 250 292 221.25C298.48 217.12 298.48 217.12 299.14 217.25C299.338 217.299 299.524 217.386 299.687 217.508C299.85 217.63 299.987 217.784 300.09 217.96C300.46 218.6 300.67 218.96 299.47 220.03C297.87 221.43 293.89 224.03 284.81 229.93C297.67 222.88 298.87 223.17 299.65 223.37C299.877 223.421 300.091 223.519 300.279 223.656C300.466 223.794 300.623 223.969 300.74 224.17C301.28 225.11 301.41 226.24 299.41 228.48C300.199 228.234 301.034 228.172 301.85 228.3C302.176 228.368 302.485 228.504 302.755 228.698C303.025 228.893 303.252 229.142 303.42 229.43C304.42 231.15 304.92 232.03 275.21 250.77C306.67 232.55 306.98 232.63 307.73 232.83C307.923 232.879 308.103 232.966 308.261 233.086C308.419 233.207 308.552 233.357 308.65 233.53C309.65 235.19 307.85 236.86 303.55 240C300.78 242 296.87 244.64 291.63 248C309.1 237.09 313.48 234.83 315.04 235.21C315.261 235.264 315.468 235.361 315.651 235.497C315.833 235.633 315.986 235.804 316.1 236C316.2 236.17 316.265 236.359 316.291 236.555C316.317 236.751 316.303 236.95 316.25 237.14C316.199 237.333 316.11 237.514 315.988 237.672C315.866 237.83 315.714 237.962 315.54 238.06C305.34 243.84 294.97 249.82 284.95 255.72L274.57 262.28C254.16 275.2 239.27 284.49 228.82 290.57C225.51 292.84 222.68 294.86 220.41 296.57C229.71 291.07 245.55 281.72 261.41 272.47C311.41 243.21 312.17 243.42 313.12 243.67C313.316 243.72 313.5 243.809 313.661 243.931C313.822 244.053 313.958 244.205 314.06 244.38C314.205 244.636 314.296 244.918 314.329 245.211C314.361 245.503 314.335 245.798 314.25 246.08C313.955 247.048 313.39 247.912 312.62 248.57C316.05 246.86 318.2 246.16 319.26 246.41C319.518 246.469 319.761 246.58 319.974 246.737C320.187 246.893 320.366 247.092 320.5 247.32C321.3 248.7 320.18 249.45 317.71 251.09C316.22 252.09 314.02 253.48 310.97 255.38L310.38 255.75C315.04 253.52 318.31 252.47 319.95 252.87C320.285 252.939 320.602 253.077 320.881 253.275C321.16 253.473 321.394 253.727 321.57 254.02C322.95 256.41 321.57 257.93 272.78 286.79C252.29 299 225.22 315 217.84 321C221.91 319.57 232.05 314.67 257.25 299.42C277.79 286.99 300.41 272.48 311.25 265.51C318.78 260.68 318.77 260.69 319.44 260.85C319.838 260.951 320.18 261.207 320.39 261.56C321 262.62 321.62 263.69 313.39 269.82C314.552 269.295 315.829 269.074 317.1 269.18C317.38 269.246 317.643 269.369 317.874 269.541C318.104 269.713 318.297 269.93 318.44 270.18C319.32 271.71 319.32 271.71 303.14 282.31C295.14 287.53 284.04 294.74 270.04 303.74C256.54 312.42 242.93 321.13 233.61 327.08C252.49 316.96 287.87 294.52 303.61 284.54C317.61 275.69 317.61 275.69 318.37 275.88C318.566 275.93 318.75 276.019 318.911 276.141C319.072 276.263 319.208 276.415 319.31 276.59C320.38 278.45 318.68 281.09 312.1 285.98C312.292 285.953 312.488 285.953 312.68 285.98C312.925 286.039 313.156 286.146 313.358 286.295C313.561 286.445 313.732 286.633 313.86 286.85C314.91 288.67 316.1 290.73 271.72 318.52C284.48 310.66 297.72 302.3 308.41 295.37C308.581 295.258 308.773 295.183 308.974 295.148C309.175 295.114 309.381 295.12 309.58 295.168C309.778 295.216 309.965 295.304 310.128 295.426C310.292 295.548 310.428 295.703 310.53 295.88C311.26 297.16 310.25 297.88 308.53 299.08C307.53 299.79 306.02 300.83 304.04 302.15C302.06 303.47 299.6 305.15 296.63 307.07C300.77 304.97 303.33 304.12 304.63 304.44C304.912 304.504 305.178 304.625 305.411 304.798C305.643 304.97 305.837 305.189 305.98 305.44C306.82 306.89 306.63 307.44 296.51 313.98C298.64 313.07 300.15 312.74 301.12 312.98C301.421 313.045 301.706 313.171 301.956 313.352C302.205 313.533 302.415 313.764 302.57 314.03C303.75 316.03 302.86 316.97 275.76 333.38C268 338.08 258.23 343.99 250.32 349.09L303.53 318.38C303.7 318.279 303.889 318.214 304.085 318.188C304.281 318.162 304.48 318.176 304.67 318.23C305.052 318.332 305.379 318.58 305.58 318.92C306.32 320.21 305.27 320.98 303.53 322.26C302.48 323.03 300.94 324.12 298.82 325.58C294.87 328.32 289.38 332.03 283.57 335.97C276.8 340.55 268.28 346.32 261.3 351.17C264.51 349.05 267.85 346.78 270.82 344.76C286.29 334.24 292.82 330.03 295.37 330.59C295.637 330.648 295.89 330.761 296.111 330.921C296.333 331.081 296.52 331.285 296.66 331.52C297.53 333.04 297.57 333.11 279.83 345.96C292.7 337.4 296.91 334.96 298.83 335.39C299.077 335.446 299.31 335.552 299.515 335.702C299.72 335.852 299.891 336.041 300.02 336.26C300.72 337.48 300.72 337.48 291.77 344.79C289.07 346.99 285.32 350.05 281.94 352.88C284.68 351.19 287.7 349.27 290.57 347.41C290.741 347.298 290.933 347.223 291.134 347.188C291.335 347.154 291.541 347.16 291.74 347.208C291.938 347.256 292.125 347.344 292.288 347.466C292.452 347.588 292.588 347.743 292.69 347.92C293.25 348.92 293.04 349.12 290.99 351.32C289.32 353.11 287.89 354.68 286.68 356.02C295.76 350.61 296.09 350.7 296.73 350.86C296.925 350.91 297.107 350.999 297.267 351.121C297.426 351.243 297.56 351.396 297.66 351.57C297.76 351.74 297.825 351.929 297.852 352.124C297.878 352.32 297.865 352.519 297.814 352.71C297.763 352.901 297.674 353.079 297.553 353.236C297.433 353.392 297.282 353.522 297.11 353.62C296.965 353.707 296.806 353.768 296.64 353.8C295.31 354.4 287.92 358.75 281.41 362.69C281.191 362.79 280.951 362.838 280.71 362.83V362.83ZM295.14 353C295.299 353.268 295.536 353.481 295.82 353.61C295.539 353.477 295.302 353.265 295.14 353V353ZM258.22 337.73C249.58 343.12 241.08 348.52 235.54 352.37C241.57 348.78 250.33 343 258.22 337.73V337.73ZM295.41 311.1C285.6 316.54 269.73 326.76 257.67 334.55C262.11 331.78 267.17 328.65 272.92 325.11C280.84 320.24 289.37 315 295.41 311.1V311.1ZM294.77 318.1C289.44 320.94 281.35 326.1 273.46 331.25L274.29 330.75C281.66 326.27 289.66 321.42 294.77 318.08V318.1ZM245.6 295.64C239 299.77 233 303.66 228 307C233.18 303.69 239.32 299.72 245.6 295.64ZM316.79 256.31C313.89 257.31 307.74 260.11 294.73 267.92C281.72 275.73 266 286 252 295.1C245.89 299.1 240.75 302.4 236.41 305.18C244.83 300 256.14 293.23 271.25 284.29C289.64 273.38 310.2 261.22 316.79 256.31V256.31ZM307.4 285.65L305.28 287C298.28 291.447 291.65 295.63 285.39 299.55C293.74 294.53 301.63 289.62 307.4 285.65ZM241.08 279C231.91 284.54 223 290 217.08 293.73C220.08 292.2 223.69 290.15 227.77 287.73C231.78 285 236.27 282.05 241.08 279ZM264.56 252.58C260.72 255.14 256.94 257.68 253.4 260.05C246.4 264.77 240.18 268.89 234.79 272.43L240.3 269.03C260.55 256.55 289.79 238.51 298.39 231.97C295.209 233.392 292.126 235.022 289.16 236.85C285.74 239.24 281.39 242.11 275.88 245.59C272.29 247.84 268.48 250.18 264.56 252.56V252.58Z" fill="white"/>
</g>
<path d="M259.47 202.55H258.8C222.54 203.22 195.21 230.96 195.21 265.09C195.194 275.282 197.68 285.323 202.45 294.33C204.45 299.08 209.29 310.71 214.08 325.75C218.52 339.63 220.84 353.6 220.84 355.75C220.84 355.95 220.84 356.16 220.84 356.39C220.82 357.018 220.926 357.643 221.152 358.228C221.378 358.814 221.72 359.349 222.156 359.8C222.592 360.251 223.115 360.611 223.693 360.856C224.271 361.102 224.892 361.229 225.52 361.23H290.46C291.088 361.229 291.709 361.102 292.287 360.856C292.865 360.611 293.388 360.251 293.824 359.8C294.26 359.349 294.602 358.814 294.828 358.228C295.054 357.643 295.16 357.018 295.14 356.39C295.14 356.16 295.14 355.95 295.14 355.75C295.14 353.64 297.46 339.67 301.89 325.75C306.69 310.75 311.48 299.08 313.52 294.33C318.507 284.894 320.998 274.34 320.754 263.67C320.511 253 317.542 242.57 312.13 233.372C306.718 224.173 299.043 216.512 289.834 211.118C280.626 205.723 270.19 202.773 259.52 202.55H259.47Z" stroke="#263238" stroke-width="2" stroke-linecap="round" stroke-linejoin="round"/>
<path d="M281.38 212.59C279.569 211.777 277.713 211.069 275.82 210.47" stroke="#263238" stroke-width="3" stroke-linecap="round" stroke-linejoin="round"/>
<path d="M302.22 228.47C302.22 228.47 297.12 220.37 285.91 214.86" stroke="#263238" stroke-width="3" stroke-linecap="round" stroke-linejoin="round"/>
<path d="M253.84 332.87V300.75C253.84 300.75 256.31 285.11 248.18 285.11C240.05 285.11 240.67 293.25 250.05 302C259.43 310.75 273.83 302.63 275.71 295.75C277.59 288.87 272.58 285.75 269.45 291.37C266.32 296.99 269.45 360.82 269.45 360.82" stroke="#263238" stroke-width="3" stroke-linecap="round" stroke-linejoin="round"/>
<path d="M236.45 186.3L239.91 197.19" stroke="#263238" stroke-width="3" stroke-linecap="round" stroke-linejoin="round"/>
<path d="M321.23 210.05L309.84 218.96" stroke="#263238" stroke-width="3" stroke-linecap="round" stroke-linejoin="round"/>
<path d="M279 178.35L274.71 197.19" stroke="#263238" stroke-width="3" stroke-linecap="round" stroke-linejoin="round"/>
<path d="M292.27 365.91H223.68C222.802 365.91 222.09 366.622 222.09 367.5V368.29C222.09 369.168 222.802 369.88 223.68 369.88H292.27C293.148 369.88 293.86 369.168 293.86 368.29V367.5C293.86 366.622 293.148 365.91 292.27 365.91Z" fill="#263238" stroke="#263238" stroke-linecap="round" stroke-linejoin="round"/>
<path d="M292.27 374.85H223.68C222.802 374.85 222.09 375.562 222.09 376.44V377.23C222.09 378.108 222.802 378.82 223.68 378.82H292.27C293.148 378.82 293.86 378.108 293.86 377.23V376.44C293.86 375.562 293.148 374.85 292.27 374.85Z" fill="#263238" stroke="#263238" stroke-linecap="round" stroke-linejoin="round"/>
<path d="M292.27 383.79H223.68C222.802 383.79 222.09 384.502 222.09 385.38V386.17C222.09 387.048 222.802 387.76 223.68 387.76H292.27C293.148 387.76 293.86 387.048 293.86 386.17V385.38C293.86 384.502 293.148 383.79 292.27 383.79Z" fill="#263238" stroke="#263238" stroke-linecap="round" stroke-linejoin="round"/>
<path d="M260.08 392.52H224.86L235 406.52C235.869 407.722 237.012 408.701 238.333 409.375C239.654 410.05 241.117 410.401 242.6 410.4H273.6C275.087 410.399 276.552 410.045 277.875 409.367C279.198 408.689 280.341 407.706 281.21 406.5L291.27 392.57L260.08 392.52Z" fill="#263238" stroke="#263238" stroke-linecap="round" stroke-linejoin="round"/>
<path d="M335.69 243C335.69 243 329.29 250 324.05 253.48C318.81 256.96 315.16 261.59 319.97 263.96C322.86 265.38 326.97 263.38 326.97 263.38C326.97 263.38 320.56 265.12 319.4 270.95C318.24 276.78 331 274.42 331 274.42C331 274.42 321.69 280.82 324.6 283.15C327.51 285.48 333.33 283.73 336.24 283.73C339.15 283.73 353.71 274.42 357.24 274.42C360.77 274.42 367.72 281.99 367.72 287.81C367.72 293.63 377 293.05 378.19 275C379.38 256.95 374.7 241.82 367.13 237.16C359.56 232.5 335.69 243 335.69 243Z" fill="white" stroke="#263238" stroke-miterlimit="10" stroke-linecap="round"/>
<path d="M332.2 262.77L355.43 254.09C355.43 254.09 365.63 251.88 372.95 263.94" stroke="#263238" stroke-miterlimit="10" stroke-linecap="round"/>
<path d="M336.27 269.76L357.27 266.27C357.27 266.27 366.59 265.69 372.41 276.75" stroke="#263238" stroke-miterlimit="10" stroke-linecap="round"/>
<path d="M361.89 283.73L346.17 287.23L355.48 324.48C355.48 324.48 363.64 340.78 365.96 347.77C368.28 354.76 392.16 378 392.16 378L420.1 351.22C420.1 351.22 407.3 336.09 406.72 332.59C406.14 329.09 403.8 288.35 403.8 282.53C403.8 276.71 392.16 262.73 392.16 262.73C392.16 262.73 387.38 255.88 385.05 244.24C382.72 232.6 372.05 227.81 366.21 228.39C360.37 228.97 344.42 230.72 338.02 235.39C331.62 240.06 325.79 245.87 331.62 247.62C341.29 250.52 357.11 237.62 364.74 246.54C368.24 250.61 372.37 268.54 372.95 270.91C372.95 270.91 370.04 281.97 361.89 283.71" fill="white"/>
<path d="M361.89 283.73L346.17 287.23L355.48 324.48C355.48 324.48 363.64 340.78 365.96 347.77C368.28 354.76 392.16 378 392.16 378L420.1 351.22C420.1 351.22 407.3 336.09 406.72 332.59C406.14 329.09 403.8 288.35 403.8 282.53C403.8 276.71 392.16 262.73 392.16 262.73C392.16 262.73 387.38 255.88 385.05 244.24C382.72 232.6 372.05 227.81 366.21 228.39C360.37 228.97 344.42 230.72 338.02 235.39C331.62 240.06 325.79 245.87 331.62 247.62C341.29 250.52 357.11 237.62 364.74 246.54C368.24 250.61 372.37 268.54 372.95 270.91C372.95 270.91 370.04 281.97 361.89 283.71" stroke="#263238" stroke-miterlimit="10" stroke-linecap="round"/>
<path d="M303.27 229.62C303.448 229.433 303.687 229.316 303.944 229.291C304.201 229.265 304.459 229.332 304.67 229.48L307.05 231.13C307.285 231.295 307.445 231.547 307.496 231.829C307.546 232.112 307.483 232.404 307.32 232.64C307.157 232.874 306.907 233.034 306.626 233.085C306.345 233.135 306.055 233.073 305.82 232.91L303.44 231.25C303.206 231.087 303.046 230.837 302.995 230.556C302.945 230.275 303.008 229.985 303.17 229.75C303.198 229.703 303.231 229.659 303.27 229.62Z" fill="#263238" stroke="#263238" stroke-miterlimit="10" stroke-linecap="round"/>
<path d="M306 231.54C306.404 231.108 306.95 230.837 307.538 230.776C308.127 230.716 308.717 230.87 309.2 231.21L316.66 235.05L389.9 283.23C390.525 283.664 391.057 284.217 391.468 284.857C391.879 285.497 392.16 286.211 392.294 286.96C392.429 287.708 392.415 288.476 392.253 289.219C392.091 289.962 391.784 290.666 391.35 291.29C390.916 291.914 390.363 292.447 389.723 292.858C389.083 293.269 388.369 293.55 387.62 293.684C386.872 293.819 386.104 293.805 385.361 293.643C384.618 293.481 383.915 293.174 383.29 292.74L312.21 240.3L306.4 235.3C306.133 235.115 305.906 234.879 305.73 234.606C305.555 234.333 305.435 234.028 305.377 233.709C305.319 233.389 305.325 233.061 305.395 232.744C305.464 232.427 305.595 232.127 305.78 231.86C305.843 231.746 305.917 231.639 306 231.54V231.54Z" fill="black" stroke="#263238" stroke-miterlimit="10" stroke-linecap="round"/>
<path d="M389.91 283.23L368.77 269.33C367.139 269.803 365.7 270.783 364.663 272.127C363.626 273.472 363.043 275.112 363 276.81C363.001 277.145 363.028 277.479 363.08 277.81L383.3 292.73C384.561 293.607 386.119 293.946 387.63 293.674C389.142 293.402 390.483 292.541 391.36 291.28C392.237 290.019 392.576 288.461 392.304 286.95C392.032 285.438 391.171 284.097 389.91 283.22V283.23Z" fill="#263238" stroke="#263238" stroke-miterlimit="10" stroke-linecap="round"/>
<path d="M366 347.77C359.6 338.46 351.45 314.59 348 309.93C344.55 305.27 335.14 294.93 331.65 284.49C328.16 274.05 325.87 265.69 325.87 256.95C325.87 248.21 333.38 246.71 339.2 256.03C345.02 265.35 352 279.66 352 279.66C352 279.66 356.66 285.48 366 283.73" fill="white"/>
<path d="M366 347.77C359.6 338.46 351.45 314.59 348 309.93C344.55 305.27 335.14 294.93 331.65 284.49C328.16 274.05 325.87 265.69 325.87 256.95C325.87 248.21 333.38 246.71 339.2 256.03C345.02 265.35 352 279.66 352 279.66C352 279.66 356.66 285.48 366 283.73" stroke="#263238" stroke-miterlimit="10" stroke-linecap="round"/>
<path d="M333.09 253.31L335.09 257.2C335.09 257.2 334.65 257.2 331.54 258.97C329.684 260.028 328.126 261.538 327.01 263.36C327.01 263.36 324.01 254.98 326.66 252.36C327.304 251.68 328.155 251.233 329.08 251.09C329.895 251.005 330.717 251.172 331.435 251.569C332.152 251.966 332.73 252.574 333.09 253.31Z" fill="white" stroke="#263238" stroke-miterlimit="10" stroke-linecap="round"/>
<path d="M414 339.36C414 339.36 398.59 343.92 390.59 351.92C385.292 357.319 380.333 363.04 375.74 369.05L390.02 385.61C390.02 385.61 402.02 371.9 410.02 365.61C415.469 361.425 421.192 357.61 427.15 354.19L414 339.36Z" fill="white" stroke="#263238" stroke-miterlimit="10" stroke-linecap="round"/>
<path d="M428.31 459.84L383.2 387.32C383.2 387.32 394.62 370.19 404.33 361.63C414.04 353.07 426.6 350.78 426.6 350.78L483 404.91" fill="#263238"/>
<path d="M428.31 459.84L383.2 387.32C383.2 387.32 394.62 370.19 404.33 361.63C414.04 353.07 426.6 350.78 426.6 350.78L483 404.91" stroke="#263238" stroke-miterlimit="10" stroke-linecap="round"/>
<path d="M341.4 274.49L342.4 274.39" stroke="#263238" stroke-miterlimit="10" stroke-linecap="round"/>
<path d="M332.69 279.33C332.69 279.33 333.22 276.14 339.63 274.8" stroke="#263238" stroke-miterlimit="10" stroke-linecap="round"/>
<path d="M339.65 277.08C339.65 277.08 339.2 278.43 334.71 280.23" stroke="#263238" stroke-miterlimit="10" stroke-linecap="round"/>
<path d="M339.47 272.81C337.223 273.163 335.088 274.028 333.23 275.34" stroke="#263238" stroke-miterlimit="10" stroke-linecap="round"/>
<path d="M198.76 173.35C198.76 173.35 208.2 174.12 214.18 176.11C220.16 178.1 226.04 178.11 224.95 172.89C224.3 169.74 220.2 167.73 220.2 167.73C220.2 167.73 225.51 171.73 230.82 169.06C236.13 166.39 226.43 157.73 226.43 157.73C226.43 157.73 237.21 161.15 237.26 157.42C237.31 153.69 232.36 150.17 230.57 147.87C228.78 145.57 212.5 139.8 210.35 137.05C208.2 134.3 209.89 124.13 214.49 120.55C219.09 116.97 212.91 110 198 120.14C183.09 130.28 174 143.27 174.91 152.14C175.82 161.01 198.76 173.35 198.76 173.35Z" fill="white" stroke="#263238" stroke-miterlimit="10" stroke-linecap="round"/>
<path d="M216.53 164L195.41 151C195.41 151 187.41 144.31 192.41 131.13" stroke="#263238" stroke-miterlimit="10" stroke-linecap="round"/>
<path d="M219.54 156.45L203.92 142.05C203.92 142.05 197.74 135.05 202.92 123.67" stroke="#263238" stroke-miterlimit="10" stroke-linecap="round"/>
<path d="M214.85 127.65L227.25 137.92L251 107.69C251 107.69 266.3 100.82 270.33 94.69C274.36 88.56 277.79 55.36 277.79 55.36L239.4 50C239.4 50 235.49 69.44 233.11 72.07C230.73 74.7 192.79 91.7 188.2 95.28C183.61 98.86 179.72 116.62 179.72 116.62C177.673 123.841 174.996 130.868 171.72 137.62C162.97 155.34 164.53 153.98 168.56 158.22C172.59 162.46 182.4 171.08 190.01 173.28C197.62 175.48 207.08 183.34 204.96 173.73C202.78 163.88 181.42 159.73 183.77 148.25C184.84 142.99 196.49 128.7 197.97 126.81C197.97 126.81 208.48 122.32 214.87 127.68" fill="white"/>
<path d="M214.85 127.65L227.25 137.92L251 107.69C251 107.69 266.3 100.82 270.33 94.69C274.36 88.56 277.79 55.36 277.79 55.36L239.4 50C239.4 50 235.49 69.44 233.11 72.07C230.73 74.7 192.79 91.7 188.2 95.28C183.61 98.86 179.72 116.62 179.72 116.62C177.673 123.841 174.996 130.868 171.72 137.62C162.97 155.34 164.53 153.98 168.56 158.22C172.59 162.46 182.4 171.08 190.01 173.28C197.62 175.48 207.08 183.34 204.96 173.73C202.78 163.88 181.42 159.73 183.77 148.25C184.84 142.99 196.49 128.7 197.97 126.81C197.97 126.81 208.48 122.32 214.87 127.68" stroke="#263238" stroke-miterlimit="10" stroke-linecap="round"/>
<path d="M208.12 207.15C207.861 207.131 207.617 207.02 207.434 206.836C207.25 206.653 207.139 206.409 207.12 206.15L206.97 203.25C206.95 203.102 206.961 202.952 207.002 202.809C207.043 202.666 207.113 202.532 207.208 202.418C207.303 202.303 207.42 202.209 207.553 202.142C207.686 202.074 207.831 202.035 207.98 202.027C208.129 202.019 208.278 202.041 208.417 202.093C208.557 202.145 208.684 202.226 208.791 202.329C208.898 202.433 208.983 202.557 209.039 202.695C209.096 202.833 209.123 202.981 209.12 203.13L209.28 206.03C209.297 206.313 209.201 206.592 209.014 206.805C208.827 207.018 208.563 207.149 208.28 207.17L208.12 207.15Z" fill="#263238" stroke="#263238" stroke-miterlimit="10" stroke-linecap="round"/>
<path d="M208 203.8C207.411 203.748 206.861 203.484 206.451 203.057C206.041 202.631 205.799 202.071 205.77 201.48L204.23 193.23L197.3 105.84C197.218 104.306 197.748 102.802 198.775 101.659C199.802 100.516 201.241 99.8272 202.775 99.745C204.309 99.6628 205.813 100.193 206.956 101.22C208.099 102.247 208.788 103.686 208.87 105.22L211.11 193.53L210.69 201.22C210.708 201.543 210.661 201.867 210.553 202.172C210.446 202.477 210.279 202.758 210.063 202.999C209.846 203.239 209.584 203.435 209.292 203.574C209 203.713 208.683 203.793 208.36 203.81C208.24 203.817 208.12 203.813 208 203.8V203.8Z" fill="black" stroke="#263238" stroke-miterlimit="10" stroke-linecap="round"/>
<path d="M197.25 105.84L199.25 131.06C200.621 132.064 202.276 132.604 203.975 132.604C205.674 132.604 207.329 132.064 208.7 131.06C208.966 130.852 209.217 130.625 209.45 130.38L208.82 105.26C208.738 103.726 208.049 102.287 206.906 101.26C205.763 100.233 204.259 99.7028 202.725 99.785C201.191 99.8673 199.752 100.556 198.725 101.699C197.698 102.842 197.168 104.346 197.25 105.88V105.84Z" fill="#263238" stroke="#263238" stroke-miterlimit="10" stroke-linecap="round"/>
<path d="M270.28 94.65C267 105.46 252.52 120.32 250 125.56C244.349 137.432 237.811 148.862 230.44 159.75C227.95 163.48 225.26 164.01 223.62 165.35C221.22 167.35 219.99 169.4 215.89 172.58C209 177.94 203.2 172.95 206.98 162.64C210.76 152.33 217.7 138 217.7 138C217.7 138 219.44 130.75 212.35 124.47" fill="white"/>
<path d="M270.28 94.65C267 105.46 252.52 120.32 250 125.56C244.349 137.432 237.811 148.862 230.44 159.75C227.95 163.48 225.26 164.01 223.62 165.35C221.22 167.35 219.99 169.4 215.89 172.58C209 177.94 203.2 172.95 206.98 162.64C210.76 152.33 217.7 138 217.7 138C217.7 138 219.44 130.75 212.35 124.47" stroke="#263238" stroke-miterlimit="10" stroke-linecap="round"/>
<path d="M208.5 169.06L210.38 165.14C210.38 165.14 210.65 165.49 213.96 166.85C215.932 167.665 218.079 167.968 220.2 167.73C220.2 167.73 215.43 175.25 211.7 174.78C210.77 174.692 209.897 174.294 209.22 173.65C208.637 173.055 208.254 172.293 208.125 171.47C207.996 170.647 208.127 169.805 208.5 169.06Z" fill="white" stroke="#263238" stroke-miterlimit="10" stroke-linecap="round"/>
<path d="M236.16 18.67L228.21 70.3C228.21 70.3 237.8 78.73 250.54 81C263.28 83.27 286.54 86.71 286.54 86.71L306.9 18.65" fill="#263238"/>
<path d="M236.16 18.67L228.21 70.3C228.21 70.3 237.8 78.73 250.54 81C263.28 83.27 286.54 86.71 286.54 86.71L306.9 18.65" stroke="#263238" stroke-miterlimit="10" stroke-linecap="round"/>
<path d="M282.44 75.17C282.44 75.9473 282.21 76.7071 281.778 77.3534C281.346 77.9997 280.732 78.5034 280.014 78.8008C279.296 79.0983 278.506 79.1761 277.743 79.0245C276.981 78.8728 276.281 78.4985 275.731 77.9489C275.182 77.3993 274.807 76.699 274.656 75.9367C274.504 75.1744 274.582 74.3842 274.879 73.666C275.177 72.9479 275.68 72.3341 276.327 71.9023C276.973 71.4705 277.733 71.24 278.51 71.24C279.552 71.24 280.552 71.654 281.289 72.3911C282.026 73.1281 282.44 74.1277 282.44 75.17V75.17Z" fill="white" stroke="#263238" stroke-width="2" stroke-linecap="round" stroke-linejoin="round"/>
<path d="M217.21 156.31L216.54 155.63" stroke="#263238" stroke-miterlimit="10" stroke-linecap="round"/>
<path d="M226.37 160.22C226.37 160.22 223.53 161.76 218.54 157.53" stroke="#263238" stroke-miterlimit="10" stroke-linecap="round"/>
<path d="M220.32 156.1C220.32 156.1 221.66 155.63 225.84 158.1" stroke="#263238" stroke-miterlimit="10" stroke-linecap="round"/>
<path d="M217.07 158.88C218.727 160.431 220.719 161.58 222.89 162.24" stroke="#263238" stroke-miterlimit="10" stroke-linecap="round"/>
<path d="M219.94 327.17C219.94 327.17 220.85 336.6 222.94 342.55C225.03 348.5 225.15 354.38 219.88 353.37C216.72 352.76 214.65 348.7 214.65 348.7C214.65 348.7 218.72 353.95 216.14 359.29C213.56 364.63 204.74 355.07 204.74 355.07C204.74 355.07 208.32 365.79 204.6 365.9C200.88 366.01 197.27 361.11 194.95 359.36C192.63 357.61 186.61 341.36 183.82 339.3C181.03 337.24 170.9 339.03 167.4 343.68C163.9 348.33 156.8 342.26 166.74 327.15C176.68 312.04 189.51 302.75 198.35 303.59C207.19 304.43 219.94 327.17 219.94 327.17Z" fill="white" stroke="#263238" stroke-miterlimit="10" stroke-linecap="round"/>
<path d="M210.81 345.08L197.49 324.15C197.49 324.15 190.68 316.24 177.57 321.47" stroke="#263238" stroke-miterlimit="10" stroke-linecap="round"/>
<path d="M203.35 348.2L188.72 332.79C188.72 332.79 181.63 326.72 170.33 332.05" stroke="#263238" stroke-miterlimit="10" stroke-linecap="round"/>
<path d="M174.49 343.93L184.93 356.19L155.06 380.33C155.06 380.33 138.74 388.43 132.68 392.61C126.62 396.79 93.53 401 93.53 401L87.35 362.8C87.35 362.8 106.69 358.43 109.25 355.99C111.81 353.55 138.25 322.42 141.72 317.77C145.19 313.12 162.94 308.97 162.94 308.97C162.94 308.97 170.88 306.38 179.75 298.49C188.62 290.6 200.03 293.21 204.33 297.18C208.63 301.15 220.33 312.18 222.64 319.72C224.95 327.26 226.09 335.45 220.39 333.34C210.92 329.83 206.05 310.02 194.59 312.53C189.35 313.68 175.23 325.53 173.37 327.05C173.37 327.05 169.03 337.63 174.49 343.93" fill="white"/>
<path d="M174.49 343.93L184.93 356.19L155.06 380.33C155.06 380.33 138.74 388.43 132.68 392.61C126.62 396.79 93.53 401 93.53 401L87.35 362.8C87.35 362.8 106.69 358.43 109.25 355.99C111.81 353.55 138.25 322.42 141.72 317.77C145.19 313.12 162.94 308.97 162.94 308.97C162.94 308.97 170.88 306.38 179.75 298.49C188.62 290.6 200.03 293.21 204.33 297.18C208.63 301.15 220.33 312.18 222.64 319.72C224.95 327.26 226.09 335.45 220.39 333.34C210.92 329.83 206.05 310.02 194.59 312.53C189.35 313.68 175.23 325.53 173.37 327.05C173.37 327.05 169.03 337.63 174.49 343.93" stroke="#263238" stroke-miterlimit="10" stroke-linecap="round"/>
<path d="M253.87 336C253.851 335.741 253.74 335.497 253.556 335.313C253.373 335.13 253.129 335.018 252.87 335L249.97 334.89C249.828 334.885 249.687 334.907 249.554 334.957C249.42 335.006 249.298 335.081 249.194 335.178C249.09 335.274 249.006 335.391 248.947 335.52C248.888 335.649 248.855 335.788 248.85 335.93C248.845 336.072 248.867 336.213 248.917 336.346C248.966 336.479 249.041 336.601 249.138 336.705C249.234 336.809 249.351 336.893 249.48 336.952C249.609 337.011 249.748 337.045 249.89 337.05L252.79 337.16C253.069 337.169 253.341 337.07 253.549 336.883C253.758 336.697 253.887 336.438 253.91 336.16C253.902 336.105 253.889 336.052 253.87 336V336Z" fill="#263238" stroke="#263238" stroke-miterlimit="10" stroke-linecap="round"/>
<path d="M250.53 335.91C250.466 335.321 250.192 334.775 249.759 334.371C249.326 333.967 248.762 333.733 248.17 333.71L239.9 332.29L152.42 326.66C151.66 326.63 150.901 326.751 150.187 327.015C149.473 327.278 148.818 327.68 148.26 328.197C147.701 328.713 147.25 329.335 146.932 330.026C146.614 330.717 146.435 331.465 146.405 332.225C146.375 332.985 146.496 333.744 146.76 334.458C147.023 335.172 147.425 335.826 147.942 336.385C148.459 336.943 149.08 337.395 149.771 337.713C150.463 338.031 151.21 338.21 151.97 338.24L240.3 339.16L247.98 338.64C248.634 338.664 249.27 338.428 249.75 337.984C250.23 337.54 250.514 336.923 250.54 336.27C250.547 336.15 250.543 336.029 250.53 335.91Z" fill="black" stroke="#263238" stroke-miterlimit="10" stroke-linecap="round"/>
<path d="M152.42 326.66L177.66 328.29C178.679 329.649 179.24 331.298 179.259 332.997C179.279 334.696 178.758 336.357 177.77 337.74C177.56 338.005 177.336 338.258 177.1 338.5L152 338.24C151.24 338.21 150.492 338.031 149.801 337.713C149.11 337.395 148.488 336.943 147.972 336.385C147.455 335.826 147.053 335.172 146.79 334.458C146.526 333.744 146.405 332.985 146.435 332.225C146.464 331.465 146.643 330.717 146.962 330.026C147.28 329.335 147.731 328.713 148.29 328.197C148.848 327.68 149.503 327.278 150.217 327.015C150.931 326.751 151.69 326.63 152.45 326.66H152.42Z" fill="#263238" stroke="#263238" stroke-miterlimit="10" stroke-linecap="round"/>
<path d="M132.68 392.61C143.4 389.03 164.28 374.88 169.87 373.26C175.46 371.64 189.14 369.06 198.24 362.8C207.34 356.54 214.17 351.26 219.43 344.28C224.69 337.3 219.61 331.59 209.35 335.52C199.09 339.45 184.84 346.64 184.84 346.64C184.84 346.64 177.62 348.48 171.23 341.48" fill="white"/>
<path d="M132.68 392.61C143.4 389.03 164.28 374.88 169.87 373.26C175.46 371.64 189.14 369.06 198.24 362.8C207.34 356.54 214.17 351.26 219.43 344.28C224.69 337.3 219.61 331.59 209.35 335.52C199.09 339.45 184.84 346.64 184.84 346.64C184.84 346.64 177.62 348.48 171.23 341.48" stroke="#263238" stroke-miterlimit="10" stroke-linecap="round"/>
<path d="M215.8 337L211.9 338.93C211.9 338.93 212.26 339.2 213.67 342.48C214.525 344.442 214.869 346.589 214.67 348.72C214.67 348.72 222.12 343.84 221.59 340.11C221.487 339.181 221.079 338.312 220.43 337.64C219.823 337.061 219.049 336.688 218.218 336.573C217.387 336.458 216.541 336.608 215.8 337Z" fill="white" stroke="#263238" stroke-miterlimit="10" stroke-linecap="round"/>
<path d="M107.18 354.57C107.18 354.57 116.74 367.5 118.31 378.7C119.29 386.198 119.804 393.749 119.85 401.31L90.6599 408.31C90.6599 408.31 89.3399 390.15 86.7399 380.31C84.9092 373.689 82.6374 367.198 79.9399 360.88L107.18 354.57Z" fill="white" stroke="#263238" stroke-miterlimit="10" stroke-linecap="round"/>
<path d="M108.51 377.13C105.91 364.45 97.2599 355.06 97.2599 355.06L28.1899 366.06V444.06L109.91 410.35C109.91 410.35 111.1 389.81 108.51 377.13Z" fill="#263238" stroke="#263238" stroke-miterlimit="10" stroke-linecap="round"/>
<path d="M89.9999 411C90.0118 411.61 89.8409 412.21 89.5093 412.722C89.1777 413.235 88.7004 413.636 88.1389 413.875C87.5774 414.114 86.9572 414.18 86.3581 414.063C85.759 413.947 85.2083 413.655 84.7768 413.223C84.3452 412.792 84.0526 412.241 83.9364 411.642C83.8203 411.043 83.8859 410.423 84.1249 409.861C84.3639 409.299 84.7654 408.822 85.2777 408.491C85.79 408.159 86.3898 407.988 86.9999 408C87.7908 408.015 88.5449 408.336 89.1042 408.896C89.6636 409.455 89.9846 410.209 89.9999 411Z" fill="white"/>
<path d="M98.5799 407.36C98.578 407.965 98.3968 408.555 98.0594 409.057C97.7219 409.559 97.2434 409.95 96.684 410.18C96.1247 410.41 95.5098 410.469 94.9169 410.35C94.3239 410.231 93.7796 409.938 93.3527 409.51C92.9257 409.082 92.6353 408.537 92.518 407.943C92.4008 407.35 92.4619 406.735 92.6938 406.177C92.9257 405.618 93.3179 405.141 93.8209 404.805C94.3239 404.469 94.9152 404.29 95.5199 404.29C95.9226 404.29 96.3214 404.369 96.6933 404.524C97.0652 404.678 97.403 404.904 97.6872 405.19C97.9715 405.475 98.1967 405.813 98.3499 406.186C98.5031 406.558 98.5813 406.957 98.5799 407.36V407.36Z" fill="white"/>
<path d="M196.4 348.89L195.72 348.23" stroke="#263238" stroke-miterlimit="10" stroke-linecap="round"/>
<path d="M200.45 358C200.45 358 201.95 355.13 197.64 350.2" stroke="#263238" stroke-miterlimit="10" stroke-linecap="round"/>
<path d="M196.25 352C196.25 352 195.79 353.35 198.3 357.49" stroke="#263238" stroke-miterlimit="10" stroke-linecap="round"/>
<path d="M199 348.71C200.58 350.345 201.761 352.323 202.45 354.49" stroke="#263238" stroke-miterlimit="10" stroke-linecap="round"/>
</svg>
